<svg width="25" height="25" viewBox="0 0 25 25" fill="none" xmlns="http://www.w3.org/2000/svg">
<g clip-path="url(#clip0)">
<path fill-rule="evenodd" clip-rule="evenodd" d="M12.5 0C15.815 0.000724349 18.994 1.31792 21.338 3.66197C23.6821 6.00601 24.9993 9.18502 25 12.5C25 12.8361 25 13.1667 24.9618 13.4945H20.929C20.6849 15.5583 19.692 17.4607 18.1387 18.8411C16.5853 20.2216 14.5795 20.9841 12.5014 20.9841C10.4233 20.9841 8.41739 20.2216 6.86404 18.8411C5.31069 17.4607 4.31786 15.5583 4.07377 13.4945H2.05465C2.28382 15.9207 3.3504 18.1914 5.0713 19.9169C6.7922 21.6423 9.06007 22.7149 11.4856 22.9505C13.9111 23.1861 16.343 22.5701 18.3638 21.208C20.3846 19.846 21.8683 17.823 22.5601 15.4863H24.6393C23.9106 18.4538 22.1202 21.0516 19.6064 22.7888C17.0925 24.526 14.0295 25.2822 10.996 24.9145C7.96251 24.5469 5.16878 23.0808 3.14274 20.7934C1.1167 18.506 -0.00130673 15.5557 1.14619e-06 12.5C1.14619e-06 12.1639 0.0136624 11.8333 0.0382525 11.5055H6.09563C6.04235 11.8344 6.01403 12.1668 6.01093 12.5C5.99323 13.3621 6.14774 14.2191 6.46541 15.0207C6.78308 15.8223 7.25753 16.5525 7.86096 17.1684C8.46439 17.7844 9.18468 18.2737 9.97961 18.6078C10.7746 18.9419 11.6282 19.1139 12.4904 19.1139C13.3527 19.1139 14.2063 18.9419 15.0013 18.6078C15.7962 18.2737 16.5165 17.7844 17.1199 17.1684C17.7233 16.5525 18.1978 15.8223 18.5155 15.0207C18.8331 14.2191 18.9877 13.3621 18.9699 12.5C18.9696 12.167 18.944 11.8346 18.8934 11.5055H22.9508C22.7247 9.07655 21.6592 6.80234 19.9377 5.07399C18.2162 3.34564 15.9463 2.27117 13.5183 2.03539C11.0903 1.79961 8.656 2.41725 6.63412 3.78208C4.61224 5.14692 3.12914 7.17364 2.43989 9.51366H0.360657C1.02906 6.79894 2.58807 4.38657 4.7886 2.662C6.98914 0.937436 9.7042 0.000185019 12.5 0Z" fill="#343434"/>
</g>
<defs>
<clipPath id="clip0">
<rect width="25" height="25" fill="white"/>
</clipPath>
</defs>
</svg>
