<svg width="41" height="32" viewBox="0 0 41 32" fill="none" xmlns="http://www.w3.org/2000/svg">
<g clip-path="url(#clip0)">
<path d="M31.4214 7.38794C36.2813 8.10333 40.7019 13.1654 40.9754 18.3196C41.3276 25.0467 37.6609 30.2385 31.1314 31.6818C29.3027 32.1342 27.3917 32.1234 25.5681 31.6505C23.7445 31.1775 22.0649 30.2571 20.6784 28.9709L20.9436 28.6739C21.4244 28.6545 21.9027 28.5929 22.3729 28.4898C25.385 27.6112 27.4565 25.4776 29.0516 22.934C32.0719 18.1313 33.348 12.9897 31.4214 7.38794Z" fill="#FE9E60"/>
<path d="M15.6942 31.4187C11.5511 32.7197 7.76845 31.7952 4.50784 29.0884C-2.61412 23.1896 -1.02732 11.802 7.37072 8.01167C7.7537 7.86592 8.14528 7.74436 8.54321 7.64771C7.67391 10.0318 7.47881 12.6131 7.97975 15.1028C8.88709 19.9892 11.0995 24.1978 15.2012 27.1933C15.3669 28.6073 15.5285 30.013 15.6942 31.4187Z" fill="#49C9FA"/>
<path d="M15.2011 27.1932C11.0994 24.1852 8.88701 19.9765 7.97968 15.0901C7.47873 12.6005 7.67383 10.0191 8.54314 7.63506L8.87873 7.28364C9.7322 7.2167 10.5898 7.16232 11.4433 7.07864C14.7951 6.75651 17.7491 7.64342 20.2266 10.0071C20.0078 10.3916 19.7555 10.7556 19.4726 11.0949C16.0628 14.5798 15.5905 20.9513 17.5088 24.704C18.2131 26.072 19.1412 27.327 19.9698 28.6365C18.1758 28.8666 16.6843 28.0299 15.2011 27.1932Z" fill="#8770EE"/>
<path d="M31.4211 7.38802C33.3477 12.9898 32.0716 18.1314 29.0513 22.9341C27.4562 25.4777 25.3847 27.6113 22.3726 28.4899C21.8983 28.5937 21.4158 28.6553 20.9308 28.6739C21.3203 28.151 21.7139 27.6281 22.1033 27.1009C23.255 25.5971 24.0515 23.8476 24.432 21.9857C24.8126 20.1239 24.7671 18.199 24.2992 16.3576C23.7481 13.8851 22.3395 11.8728 20.7154 10.0111C23.019 7.86913 25.7824 7.00313 28.869 7.02405C29.6065 7.02405 30.3439 7.02405 31.0814 7.02405L31.4211 7.38802Z" fill="#B96BD2"/>
<path d="M31.0732 7.02422C30.3357 7.02422 29.5983 7.02422 28.8608 7.02422C25.7742 7.0033 23.0108 7.86093 20.7072 10.0113H20.239C17.7532 7.6643 14.8074 6.77739 11.4557 7.08279C10.6022 7.16646 9.74459 7.22084 8.89111 7.28778C10.7969 2.51016 16.3777 -0.673523 21.5441 0.121352C25.8695 0.790721 29.1384 2.96617 31.0732 7.02422Z" fill="#BA93F8"/>
<path d="M20.2269 10.0027H20.6951C22.3523 11.8644 23.7485 13.8767 24.312 16.3491C24.78 18.1905 24.8254 20.1155 24.4449 21.9773C24.0643 23.8391 23.2679 25.5886 22.1162 27.0925C21.7267 27.6196 21.3331 28.1426 20.9437 28.6655L20.6785 28.9625L20.4258 28.9165L19.9742 28.6279C19.1456 27.3184 18.2175 26.0633 17.5132 24.6953C15.5949 20.9301 16.0673 14.5711 19.477 11.0862C19.7583 10.7482 20.0092 10.3856 20.2269 10.0027Z" fill="#AA5ED1"/>
<path d="M19.9739 28.6367L20.4255 28.9254L15.6941 31.4355C15.5284 30.0298 15.3668 28.6241 15.2011 27.2227C16.6843 28.0301 18.1758 28.8668 19.9739 28.6367Z" fill="#4C83DC"/>
</g>
<defs>
<clipPath id="clip0">
<rect width="41" height="32" fill="white"/>
</clipPath>
</defs>
</svg>
