<svg width="51" height="51" viewBox="0 0 51 51" fill="none" xmlns="http://www.w3.org/2000/svg">
<rect width="51" height="51" fill="#E5E5E5"/>
<g clip-path="url(#clip0)">
<rect x="-1089" y="-1166" width="1440" height="5368" fill="white"/>
<rect x="-1089" y="-265" width="1440" height="731" fill="#F3F3F3"/>
<rect x="-145" y="-46" width="339" height="395" rx="7.52399" fill="white"/>
<circle cx="25.097" cy="25.097" r="25.097" fill="#16B271"/>
<g clip-path="url(#clip1)">
<path d="M31.7178 35.5266C30.2643 35.5266 28.8317 35.1563 27.5769 34.4657C25.0255 33.0546 23.4361 30.4225 23.4361 27.6003C23.4361 26.7696 23.2165 25.9489 22.7983 25.2284C22.3486 24.4377 21.669 23.7772 20.8533 23.3269C20.5187 23.1367 20.1528 22.9866 19.7868 22.8865C19.2535 22.7364 18.8457 22.3161 18.7202 21.8057C18.6156 21.3853 18.5634 20.945 18.5634 20.5146C18.5634 17.4822 21.1461 15.0103 24.3145 15.0103C27.2423 15.0103 29.6683 17.1219 30.0238 19.8441C30.578 19.734 31.1531 19.674 31.7282 19.674C36.2978 19.674 40.0099 23.2268 40.0099 27.6003C40.0099 31.9737 36.2873 35.5266 31.7178 35.5266ZM21.7003 20.3645C21.9513 20.4746 22.1918 20.5947 22.4218 20.7248C23.7289 21.4554 24.8164 22.5062 25.5379 23.7772C26.2071 24.9381 26.5627 26.2592 26.5627 27.5903C26.5627 29.3416 27.5456 30.983 29.135 31.8637C29.9088 32.294 30.808 32.5242 31.7073 32.5242C34.541 32.5242 36.852 30.3124 36.852 27.6003C36.852 24.8881 34.541 22.6763 31.7073 22.6763C30.7976 22.6763 29.9088 22.9065 29.135 23.3369C29.0722 23.3769 29.0095 23.4069 28.9468 23.447C28.3612 23.8072 27.5979 23.7572 27.0646 23.3169C26.5417 22.8765 26.3849 22.1559 26.6777 21.5555C26.6986 21.5154 26.7195 21.4754 26.7404 21.4254C26.8554 21.1351 26.9182 20.8349 26.9182 20.5246C26.9182 19.1435 25.747 18.0226 24.304 18.0226C22.9133 18.0026 21.7735 19.0535 21.7003 20.3645Z" fill="white"/>
<path d="M31.718 35.5266H18.2812C13.7117 35.5266 9.99962 31.9637 9.99962 27.5902C9.99962 23.2168 13.7117 19.6639 18.2812 19.6639C19.1073 19.6639 19.9229 19.784 20.7072 20.0042C21.3032 20.1743 21.8783 20.4145 22.4325 20.7248C23.7396 21.4554 24.8271 22.5062 25.5486 23.7772C26.2178 24.9381 26.5733 26.2592 26.5733 27.5902C26.5733 29.3416 27.5563 30.9829 29.1457 31.8636C29.9195 32.294 30.8187 32.5242 31.718 32.5242C32.5859 32.5242 33.2865 33.1947 33.2865 34.0254C33.2865 34.856 32.5859 35.5266 31.718 35.5266ZM18.2812 22.6663C15.4475 22.6663 13.1366 24.8781 13.1366 27.5902C13.1366 30.3024 15.4475 32.5142 18.2812 32.5142H25.2244C24.0847 31.1331 23.4259 29.4017 23.4259 27.5902C23.4259 26.7596 23.2063 25.9389 22.788 25.2184C22.3384 24.4277 21.6587 23.7672 20.8431 23.3168C20.5085 23.1267 20.1425 22.9766 19.7765 22.8765C19.306 22.7364 18.7936 22.6663 18.2812 22.6663Z" fill="white"/>
</g>
</g>
<defs>
<clipPath id="clip0">
<rect x="-1089" y="-1166" width="1440" height="5368" fill="white"/>
</clipPath>
<clipPath id="clip1">
<rect width="30" height="20.5263" fill="white" transform="translate(10 15)"/>
</clipPath>
</defs>
</svg>
