<svg width="51" height="51" viewBox="0 0 51 51" fill="none" xmlns="http://www.w3.org/2000/svg">
<rect width="51" height="51" fill="#E5E5E5"/>
<g clip-path="url(#clip0)">
<rect x="-1089" y="-1166" width="1440" height="5777" fill="white"/>
<rect x="-1089" y="-265" width="1440" height="1138" fill="#F3F3F3"/>
<rect x="-145" y="-46" width="339" height="395" rx="7.52399" fill="white"/>
<circle cx="25.097" cy="25.097" r="25.097" fill="#16B271"/>
<g clip-path="url(#clip1)">
<path d="M31.7176 35.5266C30.2642 35.5266 28.8316 35.1563 27.5768 34.4657C25.0254 33.0546 23.436 30.4225 23.436 27.6003C23.436 26.7696 23.2164 25.9489 22.7982 25.2284C22.3485 24.4377 21.6688 23.7772 20.8532 23.3269C20.5186 23.1367 20.1526 22.9866 19.7867 22.8865C19.2534 22.7364 18.8456 22.3161 18.7201 21.8057C18.6155 21.3853 18.5632 20.945 18.5632 20.5146C18.5632 17.4822 21.146 15.0103 24.3144 15.0103C27.2422 15.0103 29.6681 17.1219 30.0237 19.8441C30.5779 19.734 31.153 19.674 31.7281 19.674C36.2976 19.674 40.0097 23.2268 40.0097 27.6003C40.0097 31.9737 36.2872 35.5266 31.7176 35.5266ZM21.7002 20.3645C21.9512 20.4746 22.1917 20.5947 22.4217 20.7248C23.7288 21.4554 24.8163 22.5062 25.5378 23.7772C26.207 24.9381 26.5625 26.2592 26.5625 27.5903C26.5625 29.3416 27.5455 30.983 29.1349 31.8637C29.9087 32.294 30.8079 32.5242 31.7072 32.5242C34.5409 32.5242 36.8518 30.3124 36.8518 27.6003C36.8518 24.8881 34.5409 22.6763 31.7072 22.6763C30.7975 22.6763 29.9087 22.9065 29.1349 23.3369C29.0721 23.3769 29.0094 23.4069 28.9466 23.447C28.3611 23.8072 27.5977 23.7572 27.0645 23.3169C26.5416 22.8765 26.3848 22.1559 26.6776 21.5555C26.6985 21.5154 26.7194 21.4754 26.7403 21.4254C26.8553 21.1351 26.9181 20.8349 26.9181 20.5246C26.9181 19.1435 25.7469 18.0226 24.3039 18.0226C22.9132 18.0026 21.7734 19.0535 21.7002 20.3645Z" fill="white"/>
<path d="M31.7179 35.5266H18.2811C13.7116 35.5266 9.99951 31.9637 9.99951 27.5902C9.99951 23.2168 13.7116 19.6639 18.2811 19.6639C19.1072 19.6639 19.9228 19.784 20.7071 20.0042C21.3031 20.1743 21.8782 20.4145 22.4324 20.7248C23.7395 21.4554 24.827 22.5062 25.5485 23.7772C26.2177 24.9381 26.5732 26.2592 26.5732 27.5902C26.5732 29.3416 27.5562 30.9829 29.1456 31.8636C29.9193 32.294 30.8186 32.5242 31.7179 32.5242C32.5858 32.5242 33.2864 33.1947 33.2864 34.0254C33.2864 34.856 32.5858 35.5266 31.7179 35.5266ZM18.2811 22.6663C15.4474 22.6663 13.1365 24.8781 13.1365 27.5902C13.1365 30.3024 15.4474 32.5142 18.2811 32.5142H25.2243C24.0846 31.1331 23.4258 29.4017 23.4258 27.5902C23.4258 26.7596 23.2062 25.9389 22.7879 25.2184C22.3383 24.4277 21.6586 23.7672 20.843 23.3168C20.5084 23.1267 20.1424 22.9766 19.7764 22.8765C19.3059 22.7364 18.7935 22.6663 18.2811 22.6663Z" fill="white"/>
</g>
</g>
<defs>
<clipPath id="clip0">
<rect x="-1089" y="-1166" width="1440" height="5777" fill="white"/>
</clipPath>
<clipPath id="clip1">
<rect width="30" height="20.5263" fill="white" transform="translate(10 15)"/>
</clipPath>
</defs>
</svg>
