<svg width="54" height="54" viewBox="0 0 54 54" fill="none" xmlns="http://www.w3.org/2000/svg">
<circle cx="26.6847" cy="26.6847" r="26.6847" fill="#05613A"/>
<g clip-path="url(#clip0)">
<path d="M34.5286 39.1942C32.8317 39.1942 31.1593 38.7429 29.6944 37.9013C26.7157 36.1814 24.8601 32.9735 24.8601 29.5338C24.8601 28.5214 24.6038 27.5213 24.1155 26.643C23.5906 25.6794 22.7971 24.8744 21.8449 24.3255C21.4542 24.0938 21.0269 23.9108 20.5997 23.7888C19.9771 23.6059 19.501 23.0936 19.3545 22.4715C19.2324 21.9592 19.1714 21.4225 19.1714 20.898C19.1714 17.2022 22.1867 14.1895 25.8856 14.1895C29.3037 14.1895 32.1359 16.7631 32.551 20.0808C33.198 19.9466 33.8694 19.8735 34.5408 19.8735C39.8756 19.8735 44.2093 24.2036 44.2093 29.5338C44.2093 34.8641 39.8633 39.1942 34.5286 39.1942ZM22.8337 20.7151C23.1267 20.8493 23.4074 20.9956 23.676 21.1542C25.202 22.0446 26.4716 23.3253 27.3139 24.8744C28.0952 26.2893 28.5102 27.8994 28.5102 29.5216C28.5102 31.6562 29.6578 33.6566 31.5133 34.7299C32.4167 35.2544 33.4665 35.535 34.5164 35.535C37.8247 35.535 40.5226 32.8393 40.5226 29.5338C40.5226 26.2283 37.8247 23.5327 34.5164 23.5327C33.4543 23.5327 32.4167 23.8132 31.5133 24.3377C31.4401 24.3865 31.3668 24.4231 31.2936 24.4719C30.6099 24.911 29.7188 24.85 29.0962 24.3133C28.4858 23.7766 28.3027 22.8984 28.6445 22.1666C28.6689 22.1178 28.6933 22.069 28.7178 22.008C28.852 21.6543 28.9253 21.2884 28.9253 20.9102C28.9253 19.227 27.558 17.8609 25.8734 17.8609C24.2498 17.8365 22.9191 19.1172 22.8337 20.7151Z" fill="white"/>
<path d="M34.5286 39.1943H18.8418C13.5071 39.1943 9.17334 34.852 9.17334 29.5217C9.17334 24.1914 13.5071 19.8613 18.8418 19.8613C19.8062 19.8613 20.7584 20.0077 21.674 20.276C22.3698 20.4834 23.0412 20.7761 23.6882 21.1543C25.2142 22.0447 26.4838 23.3254 27.3261 24.8745C28.1074 26.2894 28.5225 27.8994 28.5225 29.5217C28.5225 31.6563 29.67 33.6566 31.5255 34.73C32.4289 35.2545 33.4788 35.535 34.5286 35.535C35.5418 35.535 36.3598 36.3523 36.3598 37.3647C36.3598 38.377 35.5418 39.1943 34.5286 39.1943ZM18.8418 23.5206C15.5335 23.5206 12.8356 26.2162 12.8356 29.5217C12.8356 32.8272 15.5335 35.5228 18.8418 35.5228H26.9477C25.617 33.8396 24.848 31.7294 24.848 29.5217C24.848 28.5093 24.5916 27.5091 24.1033 26.6309C23.5784 25.6673 22.7849 24.8623 21.8327 24.3134C21.442 24.0816 21.0148 23.8987 20.5875 23.7767C20.0381 23.6059 19.44 23.5206 18.8418 23.5206Z" fill="white"/>
</g>
<defs>
<clipPath id="clip0">
<rect width="35.0237" height="25.0169" fill="white" transform="translate(9.17383 14.1768)"/>
</clipPath>
</defs>
</svg>
