<svg width="388" height="320" viewBox="0 0 388 320" fill="none" xmlns="http://www.w3.org/2000/svg">
<g clip-path="url(#clip0)">
<path d="M193.9 319.8C300.988 319.8 387.8 314.741 387.8 308.5C387.8 302.259 300.988 297.2 193.9 297.2C86.812 297.2 0 302.259 0 308.5C0 314.741 86.812 319.8 193.9 319.8Z" fill="#FB6B71"/>
<path d="M329.6 123C329.3 123 328.9 123 328.6 123C320.5 109.4 305.6 100.2 288.6 100.2C271.8 100.2 257.1 109.1 248.9 122.5C246 120.3 242.4 119 238.5 119C228.9 119 221.1 126.8 221.1 136.4C221.1 137 221.1 137.5 221.2 138C206.6 138.8 195.1 150.8 195.1 165.6C195.1 180.9 207.5 193.2 222.7 193.2H329.5C348.9 193.2 364.6 177.5 364.6 158.1C364.7 138.7 349 123 329.6 123Z" fill="#EDEDED"/>
<path opacity="0.5" d="M329.6 123C329.3 123 328.9 123 328.6 123C320.5 109.4 305.6 100.2 288.6 100.2C271.8 100.2 257.1 109.1 248.9 122.5C246 120.3 242.4 119 238.5 119C228.9 119 221.1 126.8 221.1 136.4C221.1 137 221.1 137.5 221.2 138C206.6 138.8 195.1 150.8 195.1 165.6C195.1 180.9 207.5 193.2 222.7 193.2H329.5C348.9 193.2 364.6 177.5 364.6 158.1C364.7 138.7 349 123 329.6 123Z" fill="#FF9E60"/>
<path d="M249.4 295L241.9 292.9L244.7 274.8L252.3 276.9L249.4 295Z" fill="#7F3E3B"/>
<path d="M305.4 300H297.5L295.6 281.8H303.4L305.4 300Z" fill="#7F3E3B"/>
<path d="M296.9 299.101H306.5C306.8 299.101 307.1 299.301 307.2 299.601L308.8 306.601C309 307.301 308.4 308.001 307.6 308.001C304.5 307.901 302.3 307.801 298.4 307.801C296 307.801 288.8 308.001 285.5 308.001C282.3 308.001 281.8 304.701 283.1 304.401C289.2 303.101 293.7 301.201 295.7 299.501C295.9 299.301 296.4 299.101 296.9 299.101Z" fill="#1A1F21"/>
<path d="M242.1 292.001L250.4 294.301C250.7 294.401 250.9 294.701 250.9 295.001L250.5 302.201C250.5 302.901 249.7 303.501 249 303.201C246 302.301 241.8 301.001 238 299.901C233.6 298.701 229.8 297.901 224.6 296.501C221.5 295.601 221.5 292.301 222.9 292.301C229.2 292.601 234.1 293.801 240.1 292.101C240.8 291.901 241.5 291.801 242.1 292.001Z" fill="#1A1F21"/>
<path d="M273.1 61.5002C270.2 66.5002 267.1 71.3002 263.9 76.1002C260.7 80.9002 257.2 85.5002 253.5 90.1002C252.5 91.2002 251.6 92.4002 250.5 93.5002L249.7 94.3002L249.3 94.7002C249 95.0002 248.6 95.4002 248.2 95.6002C246.7 96.7002 245.3 97.1002 244.1 97.3002C241.7 97.7002 239.9 97.5002 238.2 97.2002C236.5 96.9002 235 96.5002 233.5 96.1002C227.6 94.3002 222.4 91.7002 217.3 88.6002L219.7 83.2002C225 84.7002 230.4 86.1002 235.5 86.9002C236.8 87.1002 238 87.2002 239.1 87.2002C240.2 87.2002 241.3 87.1002 241.7 86.9002C241.9 86.8002 241.8 86.7002 241.5 87.0002C241.4 87.1002 241.3 87.1002 241.2 87.2002L241.5 86.8002L242.1 86.0002C242.9 85.0002 243.7 83.9002 244.5 82.9002C247.7 78.6002 250.8 74.0002 253.8 69.3002C256.8 64.6002 259.8 59.9002 262.6 55.2002L273.1 61.5002Z" fill="#7F3E3B"/>
<path d="M276 55.6999C278.9 62.5999 263.8 82.8999 263.8 82.8999L248.5 73.5999C248.5 73.5999 253.1 63.6999 258.1 55.2999C261.6 49.5999 272.8 47.8999 276 55.6999Z" fill="#EDEDED"/>
<path opacity="0.2" d="M266 57.4004L272.5 69.3004C268.8 76.3004 263.9 82.9004 263.9 82.9004L255.7 77.9004C257.3 72.2004 261 61.4004 266 57.4004Z" fill="#FF9E60"/>
<path d="M218.8 83.0004L212.4 80.9004L215.8 90.8004C215.8 90.8004 219.5 91.3004 222.3 88.5004L221.9 85.9004C221.6 84.3004 220.3 83.2004 218.8 83.0004Z" fill="#7F3E3B"/>
<path d="M208.5 82.9004L206.8 88.7004L215.8 90.8004L212.4 80.9004L208.5 82.9004Z" fill="#7F3E3B"/>
<path opacity="0.2" d="M244.7 274.8L243.2 284.1L250.8 286.2L252.3 276.9L244.7 274.8Z" fill="#FF9E60"/>
<path opacity="0.2" d="M303.4 281.8H295.6L296.6 291.2H304.4L303.4 281.8Z" fill="#FF9E60"/>
<path d="M308.1 53.6C305.7 62.3 304.1 71.1 303.1 79.5C302.4 85.6 301.9 91.4 301.6 96.7C300.9 109.1 301.2 118.5 300.9 121.7C294.8 121.3 271.6 119.7 258.9 118.8C253.8 78.7 262 56 263.8 51.8C264 51.3 264.4 51 264.9 50.9C266.4 50.6 270.1 50 274.2 49.8C274.9 49.8 275.6 49.7 276.4 49.7C281.2 49.6 288.9 50.3 294.2 50.9C295.3 51 296.5 51.2 297.6 51.4C303.1 52.2 308.1 53.6 308.1 53.6Z" fill="#EDEDED"/>
<path opacity="0.2" d="M297.5 64.9004C297.5 71.9004 299.4 77.9004 302.7 83.1004C302.8 81.9004 303 80.7004 303.1 79.5004C303.7 74.9004 304.4 70.2004 305.3 65.4004L297.5 64.9004Z" fill="#FF9E60"/>
<path d="M293.8 30.6006C292.3 36.3006 290.4 46.7006 294.2 50.8006C291 53.6006 286.5 55.9006 280.1 55.3006C275.2 54.8006 275.2 51.4006 276.4 49.5006C282.9 48.4006 283.1 43.7006 282.3 39.1006L293.8 30.6006Z" fill="#7F3E3B"/>
<path opacity="0.2" d="M289 34.1006L282.1 39.2006C282.3 40.3006 282.4 41.4006 282.4 42.4006C284.9 42.2006 288.4 39.8006 288.9 37.2006C289.2 36.0006 289.2 34.7006 289 34.1006Z" fill="#FF9E60"/>
<path d="M295.1 22.0005C294.1 29.7005 293.9 34.3005 289.7 38.0005C283.4 43.6005 274 39.4005 272.7 31.5005C271.5 24.4005 273.4 12.9005 281.2 10.4005C288.9 7.90049 296.1 14.3005 295.1 22.0005Z" fill="#7F3E3B"/>
<path d="M293.5 28.8003C290.4 26.3003 289.2 10.1003 296.7 10.8003C303.1 11.4003 310.2 19.8003 293.5 28.8003Z" fill="#1A1F21"/>
<path d="M294.9 15.1999C285.2 17.7999 264.5 10.9999 270.1 5.09993C277.6 -2.80007 291.2 9.19993 294.9 15.1999Z" fill="#1A1F21"/>
<path d="M299 17.2001C291.1 16.1001 274.8 0.800141 283.3 0.000141416C294 -0.999859 298.2 11.7001 299 17.2001Z" fill="#1A1F21"/>
<path d="M297.6 12.7006C297.6 12.7006 297.5 12.7006 297.6 12.7006C297.2 12.7006 297.1 12.4006 297.1 12.1006C297.1 12.1006 297.6 8.80062 296.5 5.00062C296.4 4.70062 296.6 4.50062 296.8 4.40062C297.1 4.30062 297.3 4.50062 297.4 4.70062C298.6 8.80062 298.1 12.1006 298 12.3006C298 12.5006 297.8 12.7006 297.6 12.7006Z" fill="#1A1F21"/>
<path d="M298 30.8001C296.8 32.5001 294.9 33.5001 293.2 33.7001C290.6 34.1001 289.7 31.7001 290.7 29.4001C291.6 27.4001 294 24.7001 296.5 25.4001C298.7 26.1001 299.4 28.9001 298 30.8001Z" fill="#7F3E3B"/>
<path d="M240.9 281.6L253.7 285.1C253.7 285.1 262.9 235.8 265.2 211.4C265.9 204 267.9 193.6 270.3 182.6C273.4 168.7 277.3 153.6 280.5 141.8C283.9 129.4 286.4 120.6 286.4 120.6L258.8 118.7C258.8 118.7 242.1 183.9 241.3 207.9C240.5 232.8 240.9 281.6 240.9 281.6Z" fill="#EDEDED"/>
<path opacity="0.7" d="M240.9 281.6L253.7 285.1C253.7 285.1 262.9 235.8 265.2 211.4C265.9 204 267.9 193.6 270.3 182.6C273.4 168.7 277.3 153.6 280.5 141.8C283.9 129.4 286.4 120.6 286.4 120.6L258.8 118.7C258.8 118.7 242.1 183.9 241.3 207.9C240.5 232.8 240.9 281.6 240.9 281.6Z" fill="#488FE1"/>
<path opacity="0.2" d="M270.3 182.601C273.4 168.701 277.3 153.601 280.5 141.801L277.6 135.601C270.8 143.801 269 169.001 270.3 182.601Z" fill="#FF9E60"/>
<path d="M273.8 119.7C273.8 119.7 276.8 187 280.1 209.8C283.7 234.8 293 289.3 293 289.3H307.4C307.4 289.3 303.3 237.3 300.5 212.9C297.3 185.1 300.9 121.6 300.9 121.6L273.8 119.7Z" fill="#EDEDED"/>
<path opacity="0.7" d="M273.8 119.7C273.8 119.7 276.8 187 280.1 209.8C283.7 234.8 293 289.3 293 289.3H307.4C307.4 289.3 303.3 237.3 300.5 212.9C297.3 185.1 300.9 121.6 300.9 121.6L273.8 119.7Z" fill="#488FE1"/>
<path d="M291.2 289.7H308.2V284.6L289.2 284.3L291.2 289.7Z" fill="#EDEDED"/>
<path d="M239.2 281.4L254.5 285.7L255.8 280.7L238.8 275.7L239.2 281.4Z" fill="#EDEDED"/>
<path d="M283.148 23.3403C283.19 22.7342 282.867 22.218 282.426 22.1872C281.986 22.1564 281.594 22.6228 281.552 23.2288C281.509 23.8349 281.832 24.3511 282.273 24.3819C282.714 24.4127 283.105 23.9463 283.148 23.3403Z" fill="#1A1F21"/>
<path d="M275.992 22.891C276.034 22.2849 275.711 21.7687 275.27 21.7379C274.83 21.7072 274.438 22.1735 274.396 22.7796C274.353 23.3856 274.676 23.9019 275.117 23.9326C275.558 23.9634 275.95 23.497 275.992 22.891Z" fill="#1A1F21"/>
<path d="M278.2 23.4004C278.2 23.4004 276.5 26.9004 274.8 28.6004C275.8 29.7004 277.8 29.4004 277.8 29.4004L278.2 23.4004Z" fill="#630F0F"/>
<path d="M285.5 21.1998C285.4 21.1998 285.2 21.1998 285.1 20.9998C284.2 19.5998 282.8 19.5998 282.8 19.5998C282.6 19.5998 282.4 19.3998 282.4 19.1998C282.4 18.9998 282.6 18.7998 282.8 18.7998C282.9 18.7998 284.6 18.7998 285.7 20.4998C285.8 20.6998 285.8 20.8998 285.6 20.9998C285.6 21.1998 285.6 21.1998 285.5 21.1998Z" fill="#1A1F21"/>
<path d="M280.6 32.4C283.8 32.3 285.2 30 285.2 29.9C285.3 29.8 285.2 29.7 285.1 29.6C285 29.5 284.9 29.6 284.8 29.7C284.8 29.7 283.5 31.9 280.5 32C280.4 32 280.3 32.1 280.3 32.2C280.4 32.3 280.5 32.4 280.6 32.4Z" fill="#1A1F21"/>
<path d="M273.1 20.1998C273 20.1998 272.9 20.1998 272.9 20.1998C272.7 20.0998 272.7 19.8998 272.8 19.6998C273.8 17.8998 275.5 17.7998 275.6 17.7998C275.8 17.7998 276 17.8998 276 18.1998C276 18.3998 275.8 18.5998 275.7 18.5998C275.6 18.5998 274.3 18.6998 273.5 20.0998C273.3 20.0998 273.2 20.1998 273.1 20.1998Z" fill="#1A1F21"/>
<path d="M294.3 300.5C293.7 300.5 293.1 300.4 292.8 300.1C292.5 299.9 292.4 299.5 292.4 299.1C292.4 298.8 292.6 298.6 292.7 298.6C293.6 298.2 296.1 299.7 296.4 299.9C296.5 299.9 296.5 300 296.5 300.1C296.5 300.2 296.4 300.2 296.4 300.3C295.8 300.3 295 300.5 294.3 300.5ZM293.1 298.9C293 298.9 292.9 298.9 292.9 298.9C292.9 298.9 292.8 299 292.8 299.1C292.8 299.4 292.9 299.6 293.1 299.8C293.5 300.2 294.6 300.2 295.9 299.9C294.9 299.4 293.7 298.9 293.1 298.9Z" fill="#EDEDED"/>
<path d="M296.3 300.201C296.3 300.201 296.2 300.201 296.3 300.201C295.4 299.701 293.8 298.001 294 297.101C294 296.901 294.1 296.701 294.6 296.601C294.9 296.601 295.2 296.601 295.4 296.801C296.3 297.501 296.5 299.801 296.5 299.901C296.5 300.001 296.5 300.001 296.4 300.101C296.4 300.201 296.3 300.201 296.3 300.201ZM294.7 297.001C294.7 297.001 294.6 297.001 294.7 297.001C294.4 297.001 294.4 297.101 294.3 297.201C294.2 297.701 295.2 299.001 296 299.601C295.9 298.901 295.7 297.601 295.1 297.101C295 297.101 294.8 297.001 294.7 297.001Z" fill="#EDEDED"/>
<path d="M241.1 292.9C239.8 292.8 237.5 292.5 236.9 291.5C236.7 291.2 236.7 290.9 236.8 290.5C236.9 290.3 237 290.2 237.2 290.1C238.3 289.9 240.9 292.2 241.2 292.5C241.3 292.6 241.3 292.6 241.2 292.7C241.2 292.8 241.2 292.9 241.1 292.9ZM237.4 290.5C237.3 290.5 237.2 290.6 237.2 290.7C237.1 290.9 237.1 291.1 237.3 291.3C237.7 291.8 238.9 292.3 240.6 292.4C239.5 291.5 238 290.4 237.4 290.5Z" fill="#EDEDED"/>
<path d="M241.1 292.9H241C240.2 292.2 238.8 290.1 239.2 289.3C239.3 289.1 239.5 288.9 240 289C240.4 289.1 240.7 289.3 240.9 289.6C241.6 290.7 241.3 292.8 241.3 292.8C241.3 292.8 241.2 292.8 241.1 292.9ZM239.7 289.2C239.6 289.2 239.5 289.3 239.5 289.3C239.3 289.8 240.2 291.4 240.9 292.2C241 291.6 241 290.3 240.5 289.6C240.3 289.4 240.1 289.2 239.8 289.2C239.8 289.2 239.8 289.2 239.7 289.2Z" fill="#EDEDED"/>
<path d="M309.2 57.7998C312.9 62.3998 316.2 67.0998 319.4 72.0998C322.6 76.9998 325.5 82.0998 328 87.6998C328.7 89.2998 328.9 90.7998 328.9 92.0998C328.9 93.3998 328.7 94.4998 328.4 95.4998C327.9 97.3998 327.1 98.9998 326.3 100.5C324.7 103.4 322.9 105.8 321 108.2C317.2 112.8 313.1 116.9 308.5 120.7L304.3 116.6C305.9 114.4 307.6 112.1 309.2 109.8C310.8 107.5 312.3 105.2 313.7 102.9C315.1 100.6 316.4 98.2998 317.3 96.0998C317.8 94.9998 318.1 93.8998 318.2 93.0998C318.3 92.6998 318.3 92.3998 318.2 92.1998C318.2 91.9998 318.1 92.1998 318.2 92.4998C316.9 90.1998 315.5 87.8998 314 85.5998C312.5 83.2998 311 80.9998 309.4 78.7998C306.2 74.2998 302.9 69.6998 299.7 65.3998L309.2 57.7998Z" fill="#7F3E3B"/>
<path d="M307.8 53.5001C315 55.7001 322.2 73.0001 322.2 73.0001L309.4 86.2001C309.4 86.2001 301.8 76.3001 297.4 67.6001C292.6 58.2001 299.1 50.9001 307.8 53.5001Z" fill="#EDEDED"/>
<path d="M307.1 115.4L299.1 115.2L303 124.5C303 124.5 309.8 123.2 309.6 119.5L307.1 115.4Z" fill="#7F3E3B"/>
<path d="M293.8 119L297.4 126.5L303.1 124.4L299.2 115.2L293.8 119Z" fill="#7F3E3B"/>
<path d="M104.3 106.899L103.8 105.999C105.9 104.899 108 103.799 110.2 102.899L110.6 103.799C108.4 104.699 106.3 105.799 104.3 106.899Z" fill="#FF9E60"/>
<path d="M87.2 119.799L86.5 119.099C90.1 115.399 94.1 112.199 98.4 109.299L99 110.099C94.7 112.899 90.7 116.199 87.2 119.799Z" fill="#FF9E60"/>
<path d="M76.9 135.099C77.4 135.099 77.9 135.099 78.4 135.099C90.8 114.199 113.6 100.199 139.7 100.199C165.4 100.199 188 113.899 200.5 134.299C204.9 130.999 210.4 128.999 216.4 128.999C231.1 128.999 243 140.899 243 155.599C243 156.399 243 157.299 242.9 158.099C265.2 159.299 282.9 177.799 282.9 200.399C282.9 223.799 263.9 242.699 240.6 242.699H76.9C47.1 242.799 23 218.699 23 188.999C23 159.199 47.1 135.099 76.9 135.099Z" fill="#FF9E60"/>
<path opacity="0.2" d="M218.6 94.3994L235.6 191.799C236.2 194.999 234 197.999 230.8 198.599L169.8 209.199C166.6 209.799 163.6 207.599 163 204.399L146 106.999L218.6 94.3994Z" fill="#FF9E60"/>
<path d="M245.3 179.6L222.6 90.2996L200 83.0996L148.1 96.2996C145.8 96.8996 144.4 99.1996 145 101.5L169.8 198.8C170.4 201.1 172.7 202.5 175 201.9L242.2 184.8C244.5 184.3 245.9 181.9 245.3 179.6Z" fill="white"/>
<path d="M173.9 203.099C171.5 203.099 169.4 201.499 168.7 199.099L144 101.799C143.6 100.399 143.9 98.9992 144.6 97.7992C145.3 96.5992 146.5 95.6992 147.9 95.3992L199.8 82.1992C200 82.1992 200.2 82.1992 200.4 82.1992L223 89.4992C223.3 89.5992 223.6 89.8992 223.7 90.1992L246.4 179.499C246.8 180.899 246.5 182.299 245.8 183.499C245.1 184.699 243.9 185.599 242.5 185.899L175.2 202.999C174.8 203.099 174.3 203.099 173.9 203.099ZM199.9 84.0992L148.3 97.1992C147.4 97.3992 146.7 97.9992 146.3 98.6992C145.8 99.4992 145.7 100.299 145.9 101.199L170.7 198.499C170.9 199.399 171.5 200.099 172.2 200.499C173 200.999 173.8 201.099 174.7 200.899L241.9 183.799C242.8 183.599 243.5 182.999 243.9 182.299C244.4 181.499 244.5 180.699 244.3 179.799L221.7 91.0992L199.9 84.0992Z" fill="#EDEDED"/>
<path d="M222.6 90.3996L200 83.0996L211.3 94.8996C212.9 96.5996 215.6 96.6996 217.3 95.0996L222.6 90.3996Z" fill="#7AABE5"/>
<path d="M214.4 97.2996C213 97.2996 211.6 96.6996 210.5 95.5996L199.2 83.7996C198.9 83.4996 198.8 82.9996 199.1 82.5996C199.3 82.1996 199.8 81.9996 200.3 82.1996L222.9 89.4996C223.2 89.5996 223.5 89.8996 223.6 90.2996C223.7 90.6996 223.6 90.9996 223.3 91.2996L218 96.0996C216.9 96.7996 215.6 97.2996 214.4 97.2996ZM203.4 85.2996L211.9 94.2996C213.1 95.5996 215.2 95.6996 216.5 94.4996L220.5 90.8996L203.4 85.2996Z" fill="#EDEDED"/>
<path d="M197.1 160.1L207.8 149.7L209 154.3C214.8 151.7 218.1 145.3 216.5 138.9C214.7 131.8 207.5 127.5 200.4 129.3L199.2 124.5C208.9 122 218.9 127.9 221.4 137.7C223.7 146.7 218.8 155.9 210.3 159.2L211.6 164.1L197.1 160.1Z" fill="#EDEDED"/>
<path d="M194.9 127.899L184.2 138.299L183 133.699C177.2 136.299 173.9 142.699 175.5 149.099C177.3 156.199 184.5 160.499 191.6 158.699L192.8 163.499C183.1 165.999 173.1 160.099 170.6 150.299C168.3 141.299 173.2 132.099 181.7 128.799L180.4 123.899L194.9 127.899Z" fill="#EDEDED"/>
</g>
<defs>
<clipPath id="clip0">
<rect width="387.8" height="319.8" fill="white"/>
</clipPath>
</defs>
</svg>
