<svg width="10" height="20" viewBox="0 0 10 20" fill="none" xmlns="http://www.w3.org/2000/svg">
<path fill-rule="evenodd" clip-rule="evenodd" d="M2.43994 10.1883V19.6902C2.43994 19.8047 2.55441 19.9192 2.6689 19.9192H6.21781C6.33229 19.9192 6.44677 19.8047 6.44677 19.6902V10.0165H9.02259C9.13707 10.0165 9.25157 9.90206 9.25157 9.78758L9.48053 6.86831C9.48053 6.69659 9.36605 6.58211 9.25157 6.58211H6.44677V4.52145C6.44677 4.06352 6.84745 3.66284 7.30538 3.66284H9.25157C9.36605 3.66284 9.48053 3.54836 9.48053 3.43388V0.514608C9.48053 0.400127 9.36605 0.285645 9.25157 0.285645H5.93161C3.98543 0.285645 2.38269 1.88838 2.38269 3.83456V6.63935H0.60824C0.493759 6.63935 0.379272 6.75383 0.379272 6.86831V9.78758C0.379272 9.90206 0.493759 10.0165 0.60824 10.0165H2.38269V10.1883H2.43994Z" fill="#828282"/>
</svg>
