<svg width="12" height="24" viewBox="0 0 12 24" fill="none" xmlns="http://www.w3.org/2000/svg">
<path fill-rule="evenodd" clip-rule="evenodd" d="M2.49386 11.9844V23.4838C2.49386 23.6223 2.6324 23.7609 2.77095 23.7609H7.06592C7.20447 23.7609 7.34301 23.6223 7.34301 23.4838V11.7765H10.4603C10.5989 11.7765 10.7374 11.638 10.7374 11.4994L11.0145 7.96648C11.0145 7.75866 10.876 7.62011 10.7374 7.62011H7.34301V5.12626C7.34301 4.57207 7.82793 4.08715 8.38212 4.08715H10.7374C10.876 4.08715 11.0145 3.9486 11.0145 3.81006V0.277096C11.0145 0.138549 10.876 0 10.7374 0H6.71955C4.36424 0 2.42458 1.93967 2.42458 4.29497V7.68939H0.277101C0.138554 7.68939 0 7.82793 0 7.96648V11.4994C0 11.638 0.138554 11.7765 0.277101 11.7765H2.42458V11.9844H2.49386Z" fill="#4781DC"/>
</svg>
