<svg width="558" height="354" viewBox="0 0 558 354" fill="none" xmlns="http://www.w3.org/2000/svg">
<g clip-path="url(#clip0)">
<path d="M380.783 352.736C477.965 352.736 556.746 273.856 556.746 176.552C556.746 79.2484 477.965 0.368164 380.783 0.368164C283.601 0.368164 204.82 79.2484 204.82 176.552C204.82 273.856 283.601 352.736 380.783 352.736Z" stroke="#D1D1D1" stroke-width="0.783427"/>
<path d="M380.416 301.977C449.397 301.977 505.317 245.987 505.317 176.919C505.317 107.852 449.397 51.8613 380.416 51.8613C311.435 51.8613 255.515 107.852 255.515 176.919C255.515 245.987 311.435 301.977 380.416 301.977Z" stroke="#D1D1D1" stroke-width="0.783427"/>
<path d="M380.415 251.218C421.398 251.218 454.621 217.953 454.621 176.919C454.621 135.885 421.398 102.62 380.415 102.62C339.433 102.62 306.209 135.885 306.209 176.919C306.209 217.953 339.433 251.218 380.415 251.218Z" stroke="#D1D1D1" stroke-width="0.783427"/>
<path opacity="0.1" d="M519.537 325.615C523.643 314.563 529.879 300.539 530.487 288.726C531.096 276.988 527.674 264.412 518.777 256.715C511.934 250.846 502.656 248.331 496.04 242.157C483.57 230.572 484.711 210.909 486.079 193.988C487.448 176.992 486.536 156.795 472.316 147.496C456.423 137.13 435.132 147.649 416.426 144.295C403.119 141.932 392.092 132.633 382.587 122.954C373.083 113.274 363.958 102.68 351.943 96.5066C339.928 90.2571 323.732 89.5711 313.922 98.9461C301.527 110.836 303.048 134.463 287.612 142.008C269.058 151.078 247.386 126.46 228.072 133.777C210.05 140.56 209.974 168.608 193.549 178.592C171.954 191.626 141.689 163.882 120.17 177.22C98.8026 190.482 110.284 229.276 89.8293 243.834C80.4003 250.618 67.4732 249.398 56.5994 253.361C43.9006 258.01 34.3955 270.433 33.2548 283.924C32.0382 297.414 37.1329 318.908 48.7672 325.767H519.537V325.615Z" fill="#4781DC"/>
<g opacity="0.03">
<path d="M65.5722 66.4792V20.749H35.1558V66.4792H65.5722Z" fill="#4781DC"/>
<path d="M102.775 66.4606V20.7305H72.3589V66.4606H102.775Z" fill="#4781DC"/>
<path d="M65.5815 118.696V72.9658H35.165V118.696H65.5815Z" fill="#4781DC"/>
<path d="M102.784 118.678V72.9473H72.3672V118.678H102.784Z" fill="#4781DC"/>
<path d="M263.688 66.4489V20.7188H233.271V66.4489H263.688Z" fill="#4781DC"/>
<path d="M300.891 66.5074V20.7773H270.475V66.5074H300.891Z" fill="#4781DC"/>
<path d="M263.696 118.666V72.9355H233.28V118.666H263.696Z" fill="#4781DC"/>
<path d="M300.899 118.725V72.9941H270.482V118.725H300.899Z" fill="#4781DC"/>
<path d="M477.013 66.4967V20.7666H446.596V66.4967H477.013Z" fill="#4781DC"/>
<path d="M514.215 66.4792V20.749H483.799V66.4792H514.215Z" fill="#4781DC"/>
<path d="M477.022 118.714V72.9834H446.605V118.714H477.022Z" fill="#4781DC"/>
<path d="M514.224 118.696V72.9658H483.808V118.696H514.224Z" fill="#4781DC"/>
<g filter="url(#filter0_d)">
<path d="M315.214 64.6484H288.067C283.048 64.6484 278.942 60.5327 278.942 55.5023V40.7925C278.942 35.7622 283.048 31.6465 288.067 31.6465H315.214C320.232 31.6465 324.339 35.7622 324.339 40.7925V55.5023C324.339 60.5327 320.232 64.6484 315.214 64.6484Z" fill="#4781DC"/>
</g>
</g>
<g filter="url(#filter1_d)">
<path d="M324.34 55.5025L332.856 51.2344H324.34V55.5025Z" fill="white"/>
</g>
<path d="M285.634 40.4873H317.572" stroke="#FF6E78" stroke-width="2" stroke-miterlimit="10" stroke-linecap="round" stroke-linejoin="round"/>
<path d="M285.634 48.1094H317.572" stroke="#031A40" stroke-width="0.391714" stroke-miterlimit="10" stroke-linecap="round" stroke-linejoin="round"/>
<path d="M285.634 55.7305H317.572" stroke="#031A40" stroke-width="0.391714" stroke-miterlimit="10" stroke-linecap="round" stroke-linejoin="round"/>
<g filter="url(#filter2_d)">
<path d="M193.321 52.835H146.861C141.842 52.835 137.736 48.7193 137.736 43.6889V23.8726C137.736 18.8423 141.842 14.7266 146.861 14.7266H193.321C198.34 14.7266 202.446 18.8423 202.446 23.8726V43.6889C202.446 48.7193 198.34 52.835 193.321 52.835Z" fill="white"/>
</g>
<g filter="url(#filter3_d)">
<path d="M146.86 52.835L139.713 60.1518L155.605 52.835H146.86Z" fill="white"/>
</g>
<path d="M145.568 22.3486H194.691" stroke="#876FEF" stroke-width="2" stroke-miterlimit="10" stroke-linecap="round" stroke-linejoin="round"/>
<path d="M145.568 29.9707H194.691" stroke="#876FEF" stroke-width="2" stroke-miterlimit="10" stroke-linecap="round" stroke-linejoin="round"/>
<path d="M145.568 37.5918H194.691" stroke="#031A40" stroke-width="0.391714" stroke-miterlimit="10" stroke-linecap="round" stroke-linejoin="round"/>
<path d="M145.568 45.2139H194.691" stroke="#031A40" stroke-width="0.391714" stroke-miterlimit="10" stroke-linecap="round" stroke-linejoin="round"/>
<path d="M451.253 287.507H350.575C342.058 287.507 335.139 280.571 335.139 272.034V30.1986C335.139 21.6623 342.058 14.7266 350.575 14.7266H451.177C459.694 14.7266 466.614 21.6623 466.614 30.1986V272.111C466.614 280.571 459.77 287.507 451.253 287.507Z" fill="#343434"/>
<path d="M459.39 35.229V261.746C459.39 269.52 453.078 275.846 445.322 275.846H356.506C348.75 275.846 342.438 269.52 342.438 261.746V35.229C342.438 27.4549 348.75 21.1289 356.506 21.1289H371.714C374.528 21.1289 376.885 23.4154 376.885 26.3116V28.903C376.885 31.723 379.166 34.0857 382.056 34.0857H419.925C422.738 34.0857 425.095 31.7992 425.095 28.903V26.3116C425.095 23.4916 427.376 21.1289 430.266 21.1289H445.474C453.154 21.2051 459.39 27.4549 459.39 35.229Z" fill="#DBDBDB"/>
<path d="M444.258 275.847C446.54 236.366 440.228 188.654 427.681 151.232L376.886 153.9C366.012 193.837 360.233 234.461 361.906 275.847H444.258Z" fill="#4781DC"/>
<path d="M326.698 96.9646C325.178 91.0194 323.2 85.4556 321.148 79.6631C320.996 79.282 320.844 78.8248 320.616 78.5199C320.311 78.215 319.931 77.9863 319.474 77.9863C319.019 78.0626 318.638 78.5199 318.562 78.9772C318.41 79.4344 318.486 79.8917 318.562 80.4253C318.867 82.6356 319.171 84.8459 319.474 86.9799C316.813 88.1994 315.141 91.4005 315.293 94.373C315.521 97.4219 317.27 100.013 319.323 102.376C321.528 100.623 324.57 98.6407 326.698 96.9646Z" fill="#AC6A54"/>
<path d="M379.471 92.9258C369.13 100.09 348.218 118.992 346.089 126.537C344.796 122.193 341.603 118.915 338.562 115.486C333.923 110.075 329.284 103.597 326.623 96.9654C323.962 98.7185 321.452 100.09 319.323 102.301C321.908 113.504 325.102 124.48 329.056 135.227C330.044 137.817 331.033 140.485 332.63 142.695C334.303 144.906 336.661 146.735 339.398 147.04C342.895 147.497 346.165 145.592 349.055 143.61C356.887 138.351 364.111 132.254 370.651 125.47C378.482 117.391 378.634 104.13 379.471 92.9258Z" fill="#AC6A54"/>
<path d="M376.886 153.899C378.407 154.28 379.928 154.585 381.448 154.889C389.205 156.261 397.265 156.414 405.249 156.033C412.93 155.728 421.598 154.889 427.681 151.231C426.465 146.506 426.16 142.924 426.312 138.198C426.541 130.5 428.442 122.879 429.658 115.257C430.875 107.636 431.559 99.3273 429.05 92.0109C422.815 90.6389 416.504 90.1055 410.116 90.1055L392.474 90.6389C388.216 91.4011 383.73 92.0109 379.471 92.7731C375.517 100.623 372.551 109.007 369.738 117.315C368.901 119.83 367.989 122.422 368.369 125.089C368.673 127.452 370.042 129.585 371.639 131.338C373.312 133.092 375.289 134.387 377.266 135.759C377.418 141.857 377.342 147.878 376.886 153.899Z" fill="#FF6E78"/>
<path d="M395.82 167.312L394.3 158.7C394.3 158.7 423.424 143.38 432.473 141.703C419.774 123.792 426.617 94.9063 429.051 92.0098C438.631 107.405 446.312 123.945 451.33 141.322C452.471 145.209 453.383 149.63 451.254 153.059C449.353 156.184 445.551 157.404 441.977 158.318C426.922 162.358 411.409 167.312 395.82 167.312Z" fill="#AC6A54"/>
<path d="M394.224 158.701C394.224 158.701 375.593 158.929 370.118 167.314H395.744L394.224 158.701Z" fill="#AC6A54"/>
<path d="M397.188 79.4355C397.035 83.1702 397.035 86.9048 396.883 90.6394L392.474 90.7918C390.801 91.0967 389.128 91.3253 387.455 91.6302C388.823 88.1242 389.507 84.4658 390.268 80.8837C392.55 80.4264 394.906 79.8166 397.188 79.4355Z" fill="#343434"/>
<path d="M399.697 100.319C404.031 100.319 408.061 95.594 410.039 90.1824C408.061 87.1336 406.312 75.9298 406.617 70.8232L394.754 80.3504C394.754 80.5027 394.754 80.6552 394.754 80.8076C394.754 82.0271 394.603 83.7039 394.146 85.6094C393.842 86.9812 393.005 89.039 392.397 90.6396C391.941 95.1368 395.362 100.319 399.697 100.319Z" fill="#AC6A54"/>
<path d="M394.222 85.7615C398.632 83.5512 402.13 79.3592 403.423 74.5576C400.914 76.9966 397.872 79.1306 394.83 80.9598C394.83 82.1031 394.602 83.7798 394.222 85.7615Z" fill="#031A40"/>
<path d="M405.02 55.5796C401.75 53.979 398.1 53.2931 394.527 53.598C390.953 53.9029 387.455 55.4272 384.489 57.5613C383.424 63.43 382.968 69.4511 383.196 75.396C383.272 77.3014 383.5 79.3593 384.641 80.8836C385.478 81.9507 386.694 82.5604 387.986 82.9415C389.28 83.2464 390.648 83.2464 391.941 83.0177C397.416 82.3317 403.347 77.9112 406.236 73.262L406.312 68.2316C406.236 67.0884 406.16 65.8689 406.084 64.7257L405.02 55.5796Z" fill="#AC6A54"/>
<path d="M407.148 74.405C409.753 74.405 411.863 72.2893 411.863 69.6796C411.863 67.0697 409.753 64.9541 407.148 64.9541C404.545 64.9541 402.434 67.0697 402.434 69.6796C402.434 72.2893 404.545 74.405 407.148 74.405Z" fill="#AC6A54"/>
<path d="M389.887 66.1738C389.811 67.4695 389.507 68.689 388.899 69.8322C388.595 69.6798 388.138 69.6798 387.91 69.9085C387.682 70.1371 387.606 70.5182 387.682 70.8993C387.758 71.2803 387.986 71.509 388.214 71.7376C388.519 71.9664 388.823 72.1188 389.126 72.2712" stroke="#343434" stroke-width="0.391714" stroke-miterlimit="10" stroke-linecap="round" stroke-linejoin="round"/>
<path d="M394.222 68.384C394.642 68.384 394.983 67.9064 394.983 67.3171C394.983 66.7278 394.642 66.25 394.222 66.25C393.802 66.25 393.461 66.7278 393.461 67.3171C393.461 67.9064 393.802 68.384 394.222 68.384Z" fill="#343434"/>
<path d="M386.922 68.384C387.342 68.384 387.682 67.9064 387.682 67.3171C387.682 66.7278 387.342 66.25 386.922 66.25C386.503 66.25 386.162 66.7278 386.162 67.3171C386.162 67.9064 386.503 68.384 386.922 68.384Z" fill="#343434"/>
<path d="M420.076 90.6393C416.806 90.3345 413.461 90.1821 410.115 90.1821C408.518 87.7431 407.073 79.8929 406.693 74.329C406.845 74.329 406.997 74.329 407.149 74.329C409.735 74.329 411.864 72.1949 411.864 69.6036C411.864 67.0121 409.735 64.8781 407.149 64.8781C405.856 64.8781 404.716 65.4116 403.879 66.1738C401.826 64.1922 400.457 61.5246 400.001 58.7045C398.633 59.6953 396.884 60.0765 395.287 59.7716C393.69 59.4667 392.169 58.3997 391.333 56.9515C390.116 58.2472 388.596 59.3904 386.847 59.7716C385.098 60.1526 383.044 59.6192 382.131 58.0948C381.524 56.9515 381.524 55.6559 381.903 54.4364C382.816 51.159 385.553 48.5677 388.9 47.8818C389.888 47.653 390.952 47.6531 391.865 48.0342C392.777 48.4915 393.462 49.4823 393.31 50.4731C395.819 47.1958 399.241 44.5282 403.272 43.8422C407.377 43.1563 411.788 44.5282 414.525 47.5769C416.883 50.1682 420 55.2747 420.609 58.7045C422.053 67.4694 422.053 81.1122 420.076 90.6393Z" fill="#343434"/>
<path d="M393.918 75.6247C394.754 75.8533 395.743 75.5485 396.35 74.9387C396.959 74.2527 397.644 72.576 396.807 72.4236C396.426 72.3473 394.982 72.9571 394.754 73.0333C394.07 73.3382 393.461 73.6431 392.852 74.1003C392.321 74.4052 390.115 76.2344 391.864 76.3868C392.625 76.3868 393.385 76.082 393.918 75.6247Z" fill="white"/>
<path d="M387.987 63.9631C388.291 63.8869 388.595 63.8108 388.9 63.5821C389.128 63.3534 389.355 63.0486 389.355 62.7437C389.355 62.4388 389.128 62.134 388.824 61.9815C388.519 61.8291 388.139 61.8291 387.835 61.8291C386.923 61.8291 386.086 62.134 385.326 62.5913C384.945 62.8199 384.641 63.0486 384.489 63.4296C383.501 65.335 387.303 64.1918 387.987 63.9631Z" fill="#343434"/>
<path d="M393.157 63.9631C392.853 63.8869 392.549 63.8108 392.245 63.5821C392.017 63.3534 391.789 63.0486 391.789 62.7437C391.789 62.4388 392.017 62.134 392.321 61.9815C392.626 61.8291 393.005 61.8291 393.309 61.8291C394.222 61.8291 395.058 62.134 395.819 62.5913C396.199 62.8199 396.503 63.0486 396.655 63.4296C397.568 65.335 393.842 64.1918 393.157 63.9631Z" fill="#343434"/>
<path d="M379.471 92.8496C375.593 101.005 372.247 109.541 369.434 118.154C368.674 120.44 367.99 122.879 368.369 125.242C368.75 127.757 370.194 129.967 372.019 131.72C373.844 133.473 375.441 134.769 377.646 136.065" stroke="#031A40" stroke-width="0.391714" stroke-miterlimit="10" stroke-linecap="round" stroke-linejoin="round"/>
<path d="M389.052 93.0781C388.292 96.8886 390.269 101.081 393.615 103.138C396.96 105.197 401.371 105.121 404.869 103.368C408.367 101.615 410.876 98.1844 411.941 94.45" stroke="#031A40" stroke-width="0.391714" stroke-miterlimit="10" stroke-linecap="round" stroke-linejoin="round"/>
<path d="M425.324 106.797C424.411 114.724 424.944 122.879 426.845 130.653" stroke="#031A40" stroke-width="0.391714" stroke-miterlimit="10" stroke-linecap="round" stroke-linejoin="round"/>
<path d="M432.245 141.78C434.146 143 436.274 143.839 438.48 144.296" stroke="#031A40" stroke-width="0.391714" stroke-miterlimit="10" stroke-linecap="round" stroke-linejoin="round"/>
<path d="M385.782 135.683C394.983 136.75 404.337 136.674 413.614 135.607" stroke="#031A40" stroke-width="0.391714" stroke-miterlimit="10" stroke-linecap="round" stroke-linejoin="round"/>
<path d="M346.089 126.156C346.317 127.528 346.317 128.976 345.938 130.272" stroke="#031A40" stroke-width="0.391714" stroke-miterlimit="10" stroke-linecap="round" stroke-linejoin="round"/>
<path d="M371.944 193.913C368.294 222.646 366.849 251.685 367.762 280.648" stroke="#031A40" stroke-width="0.391714" stroke-miterlimit="10" stroke-linecap="round" stroke-linejoin="round"/>
<path d="M426.465 167.923C436.274 202.983 440.609 239.49 439.316 275.922" stroke="#031A40" stroke-width="0.391714" stroke-miterlimit="10" stroke-linecap="round" stroke-linejoin="round"/>
<path d="M404.032 216.625C404.26 237.128 407.834 257.554 414.45 276.989" stroke="#031A40" stroke-width="0.391714" stroke-miterlimit="10" stroke-linecap="round" stroke-linejoin="round"/>
<path d="M391.638 233.546C388.825 248.408 388.216 263.651 389.737 278.666" stroke="#031A40" stroke-width="0.391714" stroke-miterlimit="10" stroke-linecap="round" stroke-linejoin="round"/>
<path d="M362.362 181.412H354.757V275.845H362.362V181.412Z" fill="#031A40"/>
<path d="M312.706 181.414H408.898L405.096 171.734H308.904L312.706 181.414Z" fill="#031A40"/>
<path d="M316.584 167.313V171.733H397.872L395.819 167.313H316.584Z" fill="#D1D1D1"/>
<path d="M297.574 130.806H349.054L368.064 171.734H316.584L297.574 130.806Z" fill="#343434"/>
<path d="M332.857 155.804C335.377 155.804 337.419 153.756 337.419 151.231C337.419 148.705 335.377 146.658 332.857 146.658C330.338 146.658 328.294 148.705 328.294 151.231C328.294 153.756 330.338 155.804 332.857 155.804Z" fill="#DBDBDB"/>
<path d="M308.904 171.734H405.096L408.899 181.414" stroke="#031A40" stroke-width="0.391714" stroke-miterlimit="10" stroke-linecap="round" stroke-linejoin="round"/>
<path d="M349.054 130.806L368.064 171.734" stroke="#031A40" stroke-width="0.391714" stroke-miterlimit="10" stroke-linecap="round" stroke-linejoin="round"/>
<path d="M395.819 167.313H366.011" stroke="#031A40" stroke-width="0.391714" stroke-miterlimit="10" stroke-linecap="round" stroke-linejoin="round"/>
<path d="M200.012 145.438H192.409V325.462H200.012V145.438Z" fill="#031A40"/>
<path d="M210.963 325.691H181.535C181.535 322.033 184.501 319.136 188.074 319.136H204.423C207.997 319.136 210.963 322.033 210.963 325.691Z" fill="#031A40"/>
<path d="M75.2302 126.231L23.4463 126.002L53.3304 228.438L135.911 229.505L143.744 204.048L75.2302 126.231Z" fill="#D1D1D1"/>
<path d="M101.996 229.506H92.2632V321.804H101.996V229.506Z" fill="#031A40"/>
<path d="M132.564 325.691H61.6177C61.6177 320.28 65.9521 315.936 71.351 315.936H122.907C128.229 315.936 132.564 320.356 132.564 325.691Z" fill="#D1D1D1"/>
<path d="M145.34 294.062V308.009L150.587 310.144L154.921 307.78L156.746 294.9L145.34 294.062Z" fill="#CB775E"/>
<path d="M179.863 314.869C179.863 314.869 181.459 320.356 180.622 322.263C179.026 325.692 174.083 325.768 170.357 325.464C166.631 325.158 162.981 324.092 159.255 324.168C156.442 324.244 153.704 324.93 150.891 325.311C148.077 325.768 145.188 325.921 142.526 325.006C141.386 324.625 140.321 324.016 139.561 323.101C138.116 321.195 138.42 318.604 138.8 316.241C138.952 315.479 139.104 314.565 139.789 314.107C153.096 315.25 166.479 315.555 179.863 314.869Z" fill="#031A40"/>
<path d="M153.02 307.628C151.195 308.618 148.686 308.085 147.392 306.408C146.557 305.341 146.1 303.816 144.808 303.512C144.047 303.283 143.211 303.664 142.602 304.274C142.07 304.884 141.69 305.569 141.31 306.332C140.549 307.856 139.865 309.457 139.485 311.134C139.104 312.81 139.18 314.639 140.017 316.164C141.158 318.221 143.515 319.365 145.796 319.593C148.153 319.822 150.435 319.365 152.716 318.756C154.997 318.221 157.278 317.612 159.636 317.688C164.274 317.841 168.609 320.737 173.247 320.356C174.767 320.204 176.288 319.746 177.505 318.756C178.722 317.764 179.559 316.316 179.635 314.792C179.786 312.124 177.581 309.762 175.072 308.77C172.562 307.704 169.825 307.628 167.239 307.246C164.578 306.865 161.84 306.027 160.091 303.893C159.179 302.75 157.811 300.234 155.91 301.226C154.769 301.835 155.225 304.121 154.769 305.188C154.616 306.332 153.933 307.17 153.02 307.628Z" fill="white"/>
<path d="M189.139 261.441L193.169 274.703L198.872 275.236L202.294 271.654L200.316 258.85L189.139 261.441Z" fill="#CB775E"/>
<path d="M228.224 271.271C228.224 271.271 231.342 276.073 231.037 278.132C230.505 281.866 225.79 283.39 222.14 284.153C218.49 284.915 214.688 284.991 211.114 286.134C208.453 286.972 206.02 288.42 203.434 289.716C200.925 290.936 198.187 292.003 195.374 291.85C194.158 291.774 192.941 291.545 192.029 290.86C190.127 289.488 189.671 286.896 189.367 284.534C189.291 283.695 189.214 282.857 189.671 282.171C202.674 279.428 215.601 275.845 228.224 271.271Z" fill="#031A40"/>
<path d="M200.469 272.111C199.024 273.559 196.44 273.789 194.767 272.569C193.702 271.806 192.79 270.434 191.496 270.511C190.66 270.588 189.976 271.121 189.595 271.882C189.216 272.569 189.064 273.407 188.987 274.246C188.759 275.922 188.531 277.675 188.683 279.352C188.835 281.029 189.444 282.781 190.66 284.001C192.333 285.678 194.919 286.059 197.199 285.602C199.481 285.145 201.61 284.001 203.587 282.781C205.565 281.562 207.617 280.343 209.898 279.733C214.385 278.514 219.404 280.038 223.738 278.285C225.183 277.751 226.475 276.836 227.388 275.541C228.3 274.246 228.681 272.645 228.3 271.121C227.616 268.529 224.879 266.928 222.217 266.7C219.556 266.395 216.894 267.157 214.233 267.539C211.571 267.92 208.682 267.92 206.477 266.395C205.26 265.556 203.283 263.499 201.762 265.099C200.849 266.014 201.915 268.072 201.839 269.215C201.61 270.434 201.154 271.425 200.469 272.111Z" fill="white"/>
<path d="M189.823 263.65L190.888 267.08L200.697 261.06L189.823 263.65Z" fill="#031A40"/>
<path d="M156.366 297.949L145.34 298.025V301.608L156.366 297.949Z" fill="#031A40"/>
<path d="M168.836 128.288C171.042 127.146 173.398 126.307 175.832 125.85C178.266 125.469 180.851 125.545 183.132 126.383C185.413 127.222 187.467 129.127 188.607 131.337C186.249 131.718 183.893 132.252 181.535 132.709C178.114 133.319 174.616 133.929 171.346 135.072C170.585 134.005 169.673 133.166 169.141 131.947C168.608 130.728 168.608 129.508 168.836 128.288Z" fill="#CB775E"/>
<path d="M143.743 117.619C148.077 113.274 152.564 109.464 157.278 105.5C157.582 105.195 157.962 104.967 158.343 104.814C158.722 104.662 159.255 104.662 159.559 104.967C159.94 105.271 160.016 105.804 159.864 106.262C159.711 106.719 159.407 107.1 159.103 107.481C157.734 109.234 156.366 110.988 154.996 112.665C156.745 115.103 156.518 118.685 154.845 121.124C153.096 123.64 150.282 124.935 147.393 125.926C146.328 123.41 144.807 120.133 143.743 117.619Z" fill="#CB775E"/>
<path d="M102.833 108.854C114.239 110.301 131.501 125.926 139.332 137.664C139.332 137.664 158.723 126.154 168.913 128.136C172.411 136.672 171.726 135.377 171.726 135.377C171.726 135.377 147.85 161.291 139.408 159.004C130.968 156.718 112.186 137.359 111.35 135.072C110.437 132.71 102.833 108.854 102.833 108.854Z" fill="#FFA35D"/>
<path d="M119.105 167.084C98.346 170.362 76.3704 172.876 55.6112 176.153C55.3832 163.197 56.0675 145.286 58.1206 132.482C58.9571 127.222 60.0977 121.887 62.9873 117.466C67.0174 111.446 74.5455 107.406 81.7693 108.168L97.8142 108.702C101.007 108.702 104.202 108.702 106.787 110.607C109.372 112.512 111.197 115.333 112.414 118.305C113.63 121.278 114.239 124.479 114.771 127.604C115.836 133.625 116.825 139.798 117.584 146.048C117.661 146.963 117.813 147.877 117.889 148.792C118.269 152.984 119.029 162.892 119.105 167.084Z" fill="#FFA35D"/>
<path d="M110.741 149.325C123.744 142.923 136.746 135.835 147.316 125.926C147.089 122.877 145.795 119.906 143.742 117.619C133.249 120.058 122.907 123.64 113.25 128.366C112.642 135.149 111.425 142.542 110.741 149.325Z" fill="#FFA35D"/>
<path d="M91.0463 118.457C86.712 118.457 82.8339 113.808 80.7808 108.472C82.7579 105.5 84.5068 94.3726 84.2026 89.418L95.9132 98.8685C95.9132 99.0215 95.9132 99.1736 95.9132 99.3257C95.9132 100.545 96.0651 102.146 96.4449 104.128C96.7497 105.5 97.5862 107.558 98.118 109.082C98.7266 113.274 95.3805 118.457 91.0463 118.457Z" fill="#CB775E"/>
<path d="M96.5207 103.976C92.1106 101.766 88.7649 97.6499 87.4722 92.9248C89.9815 95.3635 92.947 97.4217 95.9889 99.2509C95.913 100.394 96.0649 102.071 96.5207 103.976Z" fill="#031A40"/>
<path d="M85.8756 74.1755C89.0692 72.6512 92.7192 71.9653 96.217 72.2701C99.791 72.575 103.213 74.0993 106.102 76.1572C107.167 81.9497 107.624 87.8946 107.395 93.7633C107.319 95.6687 107.091 97.727 105.951 99.1749C105.114 100.242 103.898 100.851 102.604 101.156C101.312 101.461 100.019 101.461 98.7266 101.232C93.3276 100.547 87.4724 96.2021 84.5828 91.553L84.5068 86.5989C84.5828 85.4557 84.6589 84.3123 84.7349 83.1691L85.8756 74.1755Z" fill="#CB775E"/>
<path d="M83.7464 92.772C86.3082 92.772 88.3849 90.6905 88.3849 88.1228C88.3849 85.5551 86.3082 83.4736 83.7464 83.4736C81.1846 83.4736 79.1079 85.5551 79.1079 88.1228C79.1079 90.6905 81.1846 92.772 83.7464 92.772Z" fill="#CB775E"/>
<path d="M100.779 84.6162C100.855 85.8357 101.16 87.1313 101.768 88.1984C102.073 88.0459 102.528 88.046 102.757 88.2746C102.985 88.5033 103.061 88.8843 102.985 89.2653C102.909 89.5702 102.68 89.8751 102.452 90.1038C102.224 90.3324 101.845 90.4848 101.54 90.6373" stroke="#343434" stroke-width="0.391714" stroke-miterlimit="10" stroke-linecap="round" stroke-linejoin="round"/>
<path d="M96.5208 86.7512C96.941 86.7512 97.2814 86.3076 97.2814 85.7604C97.2814 85.2132 96.941 84.7695 96.5208 84.7695C96.1007 84.7695 95.7603 85.2132 95.7603 85.7604C95.7603 86.3076 96.1007 86.7512 96.5208 86.7512Z" fill="#343434"/>
<path d="M103.746 86.7512C104.166 86.7512 104.506 86.3076 104.506 85.7604C104.506 85.2132 104.166 84.7695 103.746 84.7695C103.326 84.7695 102.985 85.2132 102.985 85.7604C102.985 86.3076 103.326 86.7512 103.746 86.7512Z" fill="#343434"/>
<path d="M94.3911 91.0947C95.0757 92.6191 96.2921 93.9148 97.8132 94.7533C99.2584 95.5918 101.007 95.8961 102.68 95.744" stroke="#343434" stroke-width="0.391714" stroke-miterlimit="10" stroke-linecap="round" stroke-linejoin="round"/>
<path d="M93.0989 82.7121C93.2509 82.8645 93.403 82.8645 93.6312 82.8645C94.9238 82.9407 96.2162 82.4834 97.2815 81.7213C97.4334 81.5688 97.6613 81.4164 97.7373 81.2639C97.8892 81.0352 97.8892 80.8066 97.8133 80.5779C97.7373 80.3493 97.5094 80.1969 97.2815 80.1207C97.0527 80.0444 96.8248 80.0444 96.5209 80.1207C95.6085 80.2731 94.7719 80.6542 94.0114 81.1877C93.7835 81.4164 92.6426 82.1786 93.0989 82.7121Z" fill="#343434"/>
<path d="M104.277 82.8638C104.428 82.9401 104.657 83.0163 104.885 83.0163C105.113 83.0163 105.341 82.9401 105.418 82.7877C105.494 82.6352 105.494 82.4065 105.418 82.2541C105.341 82.1016 105.265 81.9492 105.113 81.7968C104.581 81.2633 103.821 80.8822 103.06 80.7298C102.832 80.6535 102.603 80.6535 102.376 80.806C101.539 81.2633 103.897 82.6352 104.277 82.8638Z" fill="#343434"/>
<path d="M95.7614 89.7228C98.0712 89.7228 99.944 87.846 99.944 85.5308C99.944 83.2157 98.0712 81.3389 95.7614 81.3389C93.4515 81.3389 91.5791 83.2157 91.5791 85.5308C91.5791 87.846 93.4515 89.7228 95.7614 89.7228Z" stroke="white" stroke-width="0.391714" stroke-miterlimit="10" stroke-linecap="round" stroke-linejoin="round"/>
<path d="M106.559 89.7228C108.869 89.7228 110.741 87.846 110.741 85.5308C110.741 83.2157 108.869 81.3389 106.559 81.3389C104.249 81.3389 102.376 83.2157 102.376 85.5308C102.376 87.846 104.249 89.7228 106.559 89.7228Z" stroke="white" stroke-width="0.391714" stroke-miterlimit="10" stroke-linecap="round" stroke-linejoin="round"/>
<path d="M102.453 85.8363C102.148 85.4552 101.617 85.2266 101.16 85.2266C100.704 85.2266 100.172 85.4552 99.8677 85.8363" stroke="white" stroke-width="0.391714" stroke-miterlimit="10" stroke-linecap="round" stroke-linejoin="round"/>
<path d="M91.6551 86.4457C90.4385 85.9884 89.1457 85.6835 87.853 85.7597" stroke="white" stroke-width="0.391714" stroke-miterlimit="10" stroke-linecap="round" stroke-linejoin="round"/>
<path d="M112.566 77.6053C111.578 78.8247 110.056 79.6631 108.459 79.7393C106.939 79.8155 105.342 79.282 104.354 78.215C104.43 78.3674 104.354 78.6722 104.202 78.8246C103.973 78.9771 103.593 78.9771 103.289 78.9771C101.159 78.7485 98.9546 77.8338 97.2056 76.6906C97.5094 76.8431 97.5854 77.3765 97.3575 77.6814C97.1296 77.9863 96.7488 78.1387 96.369 78.215C93.7835 79.0533 90.9701 79.2058 88.3087 78.6722C88.917 80.349 88.917 82.1783 88.3087 83.855C88.0806 84.3886 87.8524 84.9221 87.5483 85.3794C86.7119 84.2361 85.3431 83.4739 83.8223 83.4739C82.4535 83.4739 81.2369 84.0837 80.4005 84.9982C80.3244 84.8458 80.3244 84.6172 80.2484 84.4647C79.2598 81.0349 79.3359 77.0717 80.5526 73.7181C80.0203 74.023 79.488 74.3279 78.8796 74.4042C78.2713 74.4803 77.663 74.2517 77.3588 73.7944C77.0546 73.3371 77.2067 72.6511 77.4348 72.1939C77.8151 71.5078 78.4234 70.9744 79.1838 70.7457C79.9442 70.517 80.6285 70.7457 81.313 71.1268C80.9328 70.2884 80.7807 69.3738 80.9328 68.4592C81.0848 67.5446 81.6932 66.7824 82.5296 66.3252C83.366 65.944 84.4306 66.0965 85.039 66.7824C85.6473 67.4684 85.9515 68.6116 85.3431 69.2975C88.7649 65.6391 93.5556 63.4288 98.5738 63.2002C99.5632 63.2002 100.628 63.2002 101.616 63.5813C102.529 63.9624 103.365 64.8008 103.593 65.7916C103.745 66.4776 103.669 67.2397 103.289 67.7733C105.038 66.7062 107.091 66.2489 109.144 66.3252C109.829 66.4013 110.513 66.4776 111.197 66.7824C111.805 67.0873 112.338 67.6208 112.566 68.3068C112.794 69.1451 112.49 70.0597 111.881 70.7457C111.349 71.4317 110.436 72.0414 109.677 72.4987C110.436 72.6511 111.121 72.8035 111.805 73.1084C112.49 73.4133 113.098 73.9468 113.403 74.6328C113.63 75.5474 113.251 76.7668 112.566 77.6053Z" fill="#031A40"/>
<path d="M203.207 260.601C197.58 261.897 192.029 263.116 186.478 264.488C179.406 255.495 172.334 246.501 166.555 236.746C164.806 233.773 163.209 230.724 161.765 227.599C161.688 227.447 161.688 227.371 161.612 227.219C157.962 219.14 155.681 210.374 154.465 201.686C143.743 199.018 132.26 199.323 121.691 202.6C113.022 205.344 105.037 209.917 96.5209 213.118C88.0044 216.243 78.1191 217.844 69.7546 214.262C62.6828 211.289 57.5881 204.887 55.3828 197.875C53.1776 190.863 53.6339 183.241 55.5349 176.153C84.7347 167.997 115.607 166.016 146.023 167.617C155.529 168.151 165.567 169.293 173.322 174.323C174.843 175.238 175.908 176.61 176.593 178.211C187.162 204.811 196.819 232.249 203.207 260.601Z" fill="#876FEF"/>
<path d="M166.631 236.745C164.882 233.772 163.285 230.724 161.84 227.599C161.84 221.501 161.916 215.404 161.916 209.307C165.186 218.072 166.783 227.37 166.631 236.745Z" fill="#031A40"/>
<path d="M150.89 201.686C155.528 201.229 161.079 197.036 163.437 191.549C162.828 196.732 159.863 202.22 155.148 205.191C151.498 203.973 153.018 204.811 150.89 201.686Z" fill="#031A40"/>
<path d="M163.893 219.597C163.665 245.739 159.787 271.805 158.418 297.871C151.118 298.024 150.738 297.795 143.438 298.024C142.221 283.924 135.605 269.976 131.88 256.333C129.827 248.864 127.469 241.471 127.165 233.773C126.861 226.075 125.644 219.521 131.424 214.414C121.766 216.396 114.01 213.956 104.277 210.985C102.452 210.451 100.703 209.841 99.0298 209.079C107.775 203.591 117.356 199.551 127.393 197.113C131.043 196.198 134.693 195.512 138.419 195.055C145.415 194.14 153.4 194.293 158.494 199.247C163.589 204.201 163.969 212.28 163.893 219.597Z" fill="#876FEF"/>
<path d="M127.318 197.113C118.953 200.466 115.226 206.259 108.307 212.052C106.482 211.67 104.429 211.213 102.756 210.528C103.669 209.232 117.356 199.552 127.318 197.113Z" fill="#031A40"/>
<path d="M73.6333 116.399C81.0093 119.524 88.1571 123.107 95.0768 127.146C98.4229 129.127 101.768 131.262 104.202 134.311C104.582 132.786 105.418 131.49 106.483 130.347C111.274 125.317 119.638 124.479 126.33 122.725" stroke="#031A40" stroke-width="0.391714" stroke-miterlimit="10" stroke-linecap="round" stroke-linejoin="round"/>
<path d="M59.9453 132.863C69.7546 140.028 80.8566 145.515 92.5669 149.021C96.5976 150.24 100.855 151.384 105.038 151.079C111.349 150.621 142.374 132.482 147.392 125.927" stroke="#031A40" stroke-width="0.391714" stroke-miterlimit="10" stroke-linecap="round" stroke-linejoin="round"/>
<path d="M105.037 109.692C110.436 113.123 112.946 119.601 114.086 125.775" stroke="#031A40" stroke-width="0.391714" stroke-miterlimit="10" stroke-linecap="round" stroke-linejoin="round"/>
<path d="M139.409 137.74C137.888 138.808 136.823 140.485 136.367 142.314" stroke="#031A40" stroke-width="0.391714" stroke-miterlimit="10" stroke-linecap="round" stroke-linejoin="round"/>
<path d="M164.198 216.244C164.198 212.205 163.133 208.165 161.993 205.04C160.776 201.915 158.799 199.019 155.986 197.266C153.78 195.894 151.119 195.361 148.534 195.056C140.017 193.989 131.197 195.208 123.288 198.562" stroke="#031A40" stroke-width="0.391714" stroke-miterlimit="10" stroke-linecap="round" stroke-linejoin="round"/>
<path d="M159.635 202.068C154.92 201.992 150.13 203.211 145.947 205.421" stroke="#031A40" stroke-width="0.391714" stroke-miterlimit="10" stroke-linecap="round" stroke-linejoin="round"/>
<path d="M174.767 177.145C173.627 181.565 172.106 182.632 168.228 185.071" stroke="#031A40" stroke-width="0.391714" stroke-miterlimit="10" stroke-linecap="round" stroke-linejoin="round"/>
<path d="M109.22 207.021C119.866 209.384 129.751 209.689 140.549 208.393C132.945 215.253 130.74 227.447 131.652 237.661C132.565 247.873 136.519 257.553 140.093 267.232C143.667 276.836 147.013 286.82 146.708 297.109" stroke="#031A40" stroke-width="0.391714" stroke-miterlimit="10" stroke-linecap="round" stroke-linejoin="round"/>
<path d="M143.667 295.052C148.458 295.052 153.172 294.976 157.963 294.976" stroke="#031A40" stroke-width="0.391714" stroke-miterlimit="10" stroke-linecap="round" stroke-linejoin="round"/>
<path d="M185.337 261.059C190.736 259.306 196.135 257.553 201.534 255.8" stroke="#031A40" stroke-width="0.391714" stroke-miterlimit="10" stroke-linecap="round" stroke-linejoin="round"/>
<path d="M164.122 214.415C169.369 231.945 181.307 250.085 189.14 263.041" stroke="#031A40" stroke-width="0.391714" stroke-miterlimit="10" stroke-linecap="round" stroke-linejoin="round"/>
<path d="M161.004 192.92C148.457 188.119 134.466 190.863 121.386 193.759C111.197 195.969 101.083 198.104 90.894 200.314C86.7878 201.229 82.5295 202.067 78.4233 201.152C72.416 199.857 67.7775 194.826 65.2682 189.186C62.7588 183.546 62.5307 181.336 61.9224 175.162" stroke="#031A40" stroke-width="0.391714" stroke-miterlimit="10" stroke-linecap="round" stroke-linejoin="round"/>
<path d="M70.9714 173.867C72.6444 178.059 73.1006 177.983 74.3933 182.328C75.1537 184.766 75.8381 187.434 75.0776 189.873C74.5453 191.702 73.1767 193.226 71.6558 194.293C70.135 195.437 68.31 196.199 66.561 196.961" stroke="#031A40" stroke-width="0.391714" stroke-miterlimit="10" stroke-linecap="round" stroke-linejoin="round"/>
<path d="M171.954 296.272C172.182 295.738 172.334 295.205 172.334 294.671C172.334 294.137 172.106 293.528 171.726 293.223C171.269 292.918 170.661 292.841 170.129 293.07C169.596 293.299 169.14 293.604 168.76 293.985C165.49 296.958 163.361 301.074 162.753 305.417C162.753 305.646 162.525 306.18 162.753 306.332C163.057 306.408 163.513 305.951 163.665 305.646C165.49 301.759 166.327 297.415 166.098 293.147C166.098 292.613 166.022 292.08 165.794 291.623C165.566 291.165 165.11 290.784 164.578 290.708C163.741 290.708 163.209 291.47 162.829 292.156C161.08 295.738 160.7 299.93 161.536 303.817C161.916 305.341 162.601 307.246 164.426 306.028C165.946 305.036 167.315 303.207 168.456 301.759C169.825 300.311 171.117 298.406 171.954 296.272Z" stroke="#031A40" stroke-width="0.391714" stroke-miterlimit="10" stroke-linecap="round" stroke-linejoin="round"/>
<path d="M215.83 257.096C215.982 256.563 216.058 256.029 215.982 255.496C215.906 254.962 215.602 254.428 215.145 254.123C214.613 253.819 214.005 253.895 213.549 254.2C213.016 254.428 212.637 254.886 212.256 255.343C209.442 258.697 207.845 263.117 207.845 267.538C207.845 267.767 207.693 268.376 207.998 268.452C208.302 268.528 208.682 267.919 208.758 267.691C210.051 263.574 210.279 259.154 209.442 254.962C209.366 254.428 209.214 253.895 208.911 253.514C208.606 253.056 208.15 252.751 207.617 252.828C206.857 252.904 206.401 253.743 206.096 254.504C204.88 258.316 205.032 262.507 206.401 266.242C206.933 267.691 207.921 269.52 209.594 268.071C210.963 266.852 212.104 264.87 213.016 263.346C214.309 261.288 215.298 259.23 215.83 257.096Z" stroke="#031A40" stroke-width="0.391714" stroke-miterlimit="10" stroke-linecap="round" stroke-linejoin="round"/>
<path d="M104.354 133.93C103.669 136.292 103.821 138.884 104.657 141.17" stroke="#031A40" stroke-width="0.391714" stroke-miterlimit="10" stroke-linecap="round" stroke-linejoin="round"/>
<path d="M243.28 145.44H147.012L150.814 135.76H247.082L243.28 145.44Z" fill="#031A40"/>
<path d="M239.326 131.339V135.684H158.115L160.092 131.339H239.326Z" fill="#D1D1D1"/>
<path d="M258.336 94.8311H206.857L187.846 135.76H239.326L258.336 94.8311Z" fill="#343434"/>
<path d="M223.054 119.829C225.573 119.829 227.616 117.782 227.616 115.256C227.616 112.731 225.573 110.684 223.054 110.684C220.534 110.684 218.491 112.731 218.491 115.256C218.491 117.782 220.534 119.829 223.054 119.829Z" fill="#DBDBDB"/>
<path d="M247.082 135.76H150.814L147.012 145.44" stroke="#031A40" stroke-width="0.391714" stroke-miterlimit="10" stroke-linecap="round" stroke-linejoin="round"/>
<path d="M206.857 94.8311L187.846 135.76" stroke="#031A40" stroke-width="0.391714" stroke-miterlimit="10" stroke-linecap="round" stroke-linejoin="round"/>
<path d="M160.092 131.339H189.899" stroke="#031A40" stroke-width="0.391714" stroke-miterlimit="10" stroke-linecap="round" stroke-linejoin="round"/>
<path d="M102.908 229.507H57.4358C52.8734 229.507 49.0713 225.771 49.0713 221.122V219.217C49.0713 214.644 52.7973 210.833 57.4358 210.833H102.984C107.547 210.833 111.349 214.568 111.349 219.217V221.122C111.273 225.771 107.471 229.507 102.908 229.507Z" fill="#343434"/>
<path d="M30.5937 130.119L63.2153 219.217C64.4319 222.57 62.683 226.229 59.4132 227.448L57.7404 228.058C54.3945 229.278 50.7445 227.524 49.5279 224.247L16.8302 135.15C15.6136 131.796 17.3625 128.138 20.6323 126.918L22.3052 126.309C25.651 125.089 29.377 126.766 30.5937 130.119Z" fill="#343434"/>
<path d="M0.937988 325.83H533.617" stroke="#D1D1D1" stroke-width="0.391714" stroke-miterlimit="10" stroke-linecap="round" stroke-linejoin="round"/>
<path d="M511.401 313.193C509.805 312.049 507.447 312.506 505.85 313.726C504.937 314.412 504.254 315.25 503.645 316.241C504.71 314.03 505.394 311.592 505.622 309.153C505.698 308.01 505.698 306.867 505.166 305.875C503.949 303.665 500.528 303.437 498.398 304.885C497.319 305.58 494.857 304.705 495.031 303.433C495.291 301.523 495.552 299.614 495.812 297.72C496.041 296.196 496.041 294.367 494.748 293.604C493.304 292.766 491.631 293.986 490.566 295.205C487.22 298.94 484.787 303.513 483.57 308.391C485.015 299.93 484.711 291.242 482.886 282.935C482.658 281.943 482.354 280.876 481.441 280.419C480.605 280.038 479.616 280.343 478.932 280.952C478.247 281.563 477.867 282.4 477.487 283.239C474.8 289.598 473.212 296.397 472.795 303.276C472.788 303.381 472.699 303.38 472.632 303.298C472.623 303.286 472.618 303.277 472.612 303.263C471.844 301.216 469.496 299.705 467.449 300.541C466.766 300.845 466.233 301.378 465.777 301.913C463.4 304.584 462.387 308.35 462.739 311.914C462.75 312.023 462.509 312.127 462.431 312.049C461.215 310.677 458.933 310.144 457.641 311.287C456.956 311.897 456.652 312.812 456.499 313.726C455.887 317.005 457.289 321.998 459.502 324.809C459.976 325.411 460.729 325.692 461.495 325.692H507.123C508.004 325.692 508.844 325.308 509.365 324.597C510.655 322.839 512.28 320.215 512.77 318.68C513.379 316.698 512.998 314.335 511.401 313.193Z" fill="url(#paint0_linear)"/>
<path d="M70.3396 308.058C68.8474 307.061 66.609 307.751 65.4485 308.978C64.7024 309.744 64.2879 310.665 63.9563 311.661C65.863 304.915 66.8578 297.938 66.9407 290.885C66.9407 289.658 66.9407 288.432 66.3604 287.359C65.863 286.286 64.6195 285.366 63.376 285.442C62.1325 285.519 55.2518 300.08 54.5058 301C54.1145 301.487 55.7873 291.204 55.8271 290.58C56.4015 281.588 56.2927 272.567 55.5006 263.593C55.3348 262.137 55.2518 260.68 54.5058 259.377C53.7597 258.074 52.4333 257 50.8582 257C48.7857 257 47.2935 258.687 46.2159 260.297C39.7554 269.769 40.8641 294.819 38.7067 294.387C38.4078 294.327 38.2853 293.96 38.177 293.675C36.6565 289.674 35.1387 285.606 33.6981 281.609C33.2836 280.383 32.6204 279.003 31.2111 278.772C29.3873 278.466 28.1438 280.383 27.6464 281.992C24.662 290.962 24.662 300.698 27.7293 309.667C24.8279 303.841 21.9264 298.015 19.0249 292.189C18.1131 290.425 16.7866 288.278 14.6313 288.355C13.3878 288.432 12.31 289.275 11.7297 290.349C11.1495 291.422 11.0666 292.572 10.9008 293.798C10.1182 304.075 12.6604 314.011 17.1324 323.347C17.6207 324.367 18.6596 325 19.79 325H66.4885C67.8728 325 69.0781 324.053 69.3953 322.706C70.1001 319.711 70.7738 316.707 71.5001 313.654C71.8317 311.738 72.1633 309.284 70.3396 308.058Z" fill="url(#paint1_linear)"/>
</g>
<defs>
<filter id="filter0_d" x="268.942" y="25.6465" width="65.3968" height="53.0019" filterUnits="userSpaceOnUse" color-interpolation-filters="sRGB">
<feFlood flood-opacity="0" result="BackgroundImageFix"/>
<feColorMatrix in="SourceAlpha" type="matrix" values="0 0 0 0 0 0 0 0 0 0 0 0 0 0 0 0 0 0 127 0"/>
<feOffset dy="4"/>
<feGaussianBlur stdDeviation="5"/>
<feColorMatrix type="matrix" values="0 0 0 0 0.0666667 0 0 0 0 0.0823529 0 0 0 0 0.0980392 0 0 0 0.1 0"/>
<feBlend mode="normal" in2="BackgroundImageFix" result="effect1_dropShadow"/>
<feBlend mode="normal" in="SourceGraphic" in2="effect1_dropShadow" result="shape"/>
</filter>
<filter id="filter1_d" x="314.34" y="45.2344" width="28.5163" height="24.2681" filterUnits="userSpaceOnUse" color-interpolation-filters="sRGB">
<feFlood flood-opacity="0" result="BackgroundImageFix"/>
<feColorMatrix in="SourceAlpha" type="matrix" values="0 0 0 0 0 0 0 0 0 0 0 0 0 0 0 0 0 0 127 0"/>
<feOffset dy="4"/>
<feGaussianBlur stdDeviation="5"/>
<feColorMatrix type="matrix" values="0 0 0 0 0.0666667 0 0 0 0 0.0823529 0 0 0 0 0.0980392 0 0 0 0.1 0"/>
<feBlend mode="normal" in2="BackgroundImageFix" result="effect1_dropShadow"/>
<feBlend mode="normal" in="SourceGraphic" in2="effect1_dropShadow" result="shape"/>
</filter>
<filter id="filter2_d" x="127.736" y="8.72656" width="84.7102" height="58.1084" filterUnits="userSpaceOnUse" color-interpolation-filters="sRGB">
<feFlood flood-opacity="0" result="BackgroundImageFix"/>
<feColorMatrix in="SourceAlpha" type="matrix" values="0 0 0 0 0 0 0 0 0 0 0 0 0 0 0 0 0 0 127 0"/>
<feOffset dy="4"/>
<feGaussianBlur stdDeviation="5"/>
<feColorMatrix type="matrix" values="0 0 0 0 0.0666667 0 0 0 0 0.0823529 0 0 0 0 0.0980392 0 0 0 0.1 0"/>
<feBlend mode="normal" in2="BackgroundImageFix" result="effect1_dropShadow"/>
<feBlend mode="normal" in="SourceGraphic" in2="effect1_dropShadow" result="shape"/>
</filter>
<filter id="filter3_d" x="129.713" y="46.835" width="35.8922" height="27.3168" filterUnits="userSpaceOnUse" color-interpolation-filters="sRGB">
<feFlood flood-opacity="0" result="BackgroundImageFix"/>
<feColorMatrix in="SourceAlpha" type="matrix" values="0 0 0 0 0 0 0 0 0 0 0 0 0 0 0 0 0 0 127 0"/>
<feOffset dy="4"/>
<feGaussianBlur stdDeviation="5"/>
<feColorMatrix type="matrix" values="0 0 0 0 0.0666667 0 0 0 0 0.0823529 0 0 0 0 0.0980392 0 0 0 0.1 0"/>
<feBlend mode="normal" in2="BackgroundImageFix" result="effect1_dropShadow"/>
<feBlend mode="normal" in="SourceGraphic" in2="effect1_dropShadow" result="shape"/>
</filter>
<linearGradient id="paint0_linear" x1="464.995" y1="292.066" x2="513.468" y2="293.15" gradientUnits="userSpaceOnUse">
<stop stop-color="#876FEF"/>
<stop offset="1" stop-color="#4781DC"/>
</linearGradient>
<linearGradient id="paint1_linear" x1="20.2979" y1="275.68" x2="72.4684" y2="276.519" gradientUnits="userSpaceOnUse">
<stop stop-color="#876FEF"/>
<stop offset="1" stop-color="#4781DC"/>
</linearGradient>
<clipPath id="clip0">
<rect width="558" height="354" fill="white"/>
</clipPath>
</defs>
</svg>
