<svg width="54" height="54" viewBox="0 0 54 54" fill="none" xmlns="http://www.w3.org/2000/svg">
<circle cx="26.6847" cy="26.6847" r="26.6847" fill="#5E227F"/>
<g clip-path="url(#clip0)">
<path d="M33.517 37.4691C33.517 37.4691 33.517 37.4912 33.539 37.4912L33.6489 37.6015C33.583 37.5573 33.561 37.5132 33.517 37.4691ZM34.0443 37.9985L34.2421 38.197C34.264 38.197 34.286 38.2191 34.308 38.2191C34.1981 38.1529 34.1102 38.0867 34.0443 37.9985ZM38.768 25.7568C36.9444 25.7568 35.2966 26.4406 34.0443 27.5876C34.0224 27.5876 34.0224 27.6096 34.0004 27.6096L33.9784 27.6317C33.9784 27.6317 33.9565 27.6317 33.9565 27.6537C33.8246 27.7861 33.6928 27.9184 33.561 28.0508C33.3852 28.2493 33.2314 28.4478 33.0776 28.6463L33.6269 28.0949C33.7587 27.9625 33.8905 27.8302 34.0224 27.6979C35.2747 26.5509 36.9444 25.823 38.768 25.823C39.3612 25.823 39.9324 25.8892 40.5036 26.0436C40.5256 26.0436 40.5695 26.0656 40.5915 26.0656C42.3711 26.5509 43.8871 27.7199 44.8098 29.286C44.8318 29.308 44.8318 29.3301 44.8538 29.3521C45.447 30.3888 45.7765 31.5799 45.7765 32.8371C45.7765 36.0795 43.5795 38.8146 40.5915 39.6307C40.5695 39.6307 40.5256 39.6528 40.5036 39.6528C39.9544 39.7851 39.3831 39.8733 38.768 39.8733C37.4937 39.8733 36.3073 39.5425 35.2966 38.9469L35.2527 38.9911C35.3626 39.0572 35.4724 39.1013 35.5823 39.1675H35.6042C36.5709 39.6528 37.6475 39.9395 38.7899 39.9395C39.4051 39.9395 39.9983 39.8513 40.5695 39.7189C40.5915 39.7189 40.6135 39.6969 40.6574 39.6969C43.6454 38.8808 45.8644 36.1236 45.8644 32.8592C45.8424 28.933 42.6787 25.7568 38.768 25.7568Z" fill="white"/>
<path d="M27.1023 17.6618C25.1689 17.6618 23.587 19.2499 23.587 21.1909C23.587 21.2571 23.587 21.3232 23.587 21.3894C23.587 21.4335 23.587 21.4776 23.609 21.5438C23.609 21.5659 23.609 21.5879 23.609 21.61C23.609 21.6762 23.631 21.7423 23.631 21.8085C23.631 21.8305 23.631 21.8526 23.653 21.8967C23.653 21.9188 23.653 21.9408 23.6749 21.9629C23.6969 22.0291 23.7189 22.1173 23.7189 22.1835C23.7628 22.3158 23.7848 22.4261 23.8507 22.5364C23.8727 22.5805 23.8946 22.6246 23.9166 22.6687C23.9386 22.7349 23.9825 22.779 24.0045 22.8452C24.0265 22.8893 24.0484 22.9555 24.0924 22.9996C24.1143 23.0437 24.1363 23.0878 24.1583 23.1099C24.1583 23.1319 24.1802 23.154 24.2022 23.154L24.6636 23.6172L24.7075 23.6613L24.6636 23.6172C24.0265 22.9555 23.6749 22.1173 23.6749 21.1909C23.6749 19.294 25.2129 17.7279 27.1243 17.7279C28.0251 17.7279 28.8819 18.0809 29.541 18.7205L29.585 18.6764C28.9039 18.0147 28.0251 17.6618 27.1023 17.6618ZM27.1023 14.1768C23.2355 14.1768 20.0938 17.3309 20.0938 21.213C20.0938 22.779 20.5991 24.2568 21.5218 25.47C21.6976 25.7126 21.8953 25.9332 22.115 26.1537L22.137 26.1758L22.159 26.1978L22.1809 26.1758L22.2029 26.1537L22.159 26.1096C20.8627 24.8082 20.1597 23.0657 20.1597 21.213C20.1597 17.375 23.2575 14.265 27.0803 14.265C30.9032 14.265 34.001 17.375 34.001 21.213C34.001 22.6025 33.5836 23.9039 32.8805 25.0068C32.7487 25.2273 32.5949 25.4258 32.4191 25.6244C32.3313 25.7346 32.2214 25.8449 32.1116 25.9773C31.8479 26.264 31.5403 26.5508 31.2108 26.7934C31.1009 26.8816 30.9911 26.9478 30.8812 27.014L30.9252 27.0581L30.8812 27.0801C31.1229 26.9257 31.3426 26.7493 31.5623 26.5728C33.1002 25.2714 34.045 23.3304 34.045 21.213C34.1109 17.3309 30.9691 14.1768 27.1023 14.1768ZM29.6069 18.7205L29.585 18.6985L29.563 18.6764C28.9039 18.0147 28.0251 17.6618 27.1023 17.6618C25.1689 17.6618 23.587 19.2499 23.587 21.1909C23.587 21.2571 23.587 21.3232 23.587 21.3894C23.587 21.4335 23.587 21.4776 23.609 21.5438C23.609 21.5659 23.609 21.5879 23.609 21.61C23.609 21.6762 23.631 21.7423 23.631 21.8085C23.631 21.8305 23.631 21.8526 23.653 21.8967C23.653 21.9188 23.653 21.9408 23.6749 21.9629C23.6969 22.0291 23.7189 22.1173 23.7189 22.1835C23.7628 22.3158 23.7848 22.4261 23.8507 22.5364C23.8727 22.5805 23.8946 22.6246 23.9166 22.6687C23.9386 22.7349 23.9825 22.779 24.0045 22.8452C24.0265 22.8893 24.0484 22.9555 24.0924 22.9996C24.1143 23.0437 24.1363 23.0878 24.1583 23.1099C24.1583 23.1319 24.1802 23.154 24.2022 23.154C24.2242 23.1981 24.2462 23.2201 24.2681 23.2643C24.3121 23.3084 24.334 23.3525 24.378 23.3966C24.3999 23.4187 24.4219 23.4407 24.4439 23.4628C24.4659 23.4848 24.4878 23.5069 24.5098 23.551C24.5318 23.5951 24.5757 23.6172 24.5977 23.6613L24.6416 23.7054L24.6636 23.6833L24.6856 23.6613L24.6416 23.6172C24.0045 22.9555 23.653 22.1173 23.653 21.1909C23.653 19.294 25.1909 17.7279 27.1023 17.7279C28.0031 17.7279 28.8599 18.0809 29.519 18.7205L29.541 18.7426L29.563 18.7646C30.2001 19.4043 30.5517 20.2645 30.5517 21.1909C30.5517 21.8305 30.3759 22.4702 30.0463 22.9996C30.0244 23.0437 29.9804 23.0878 29.9585 23.1319C29.9365 23.176 29.8925 23.2201 29.8706 23.2643C29.8486 23.2863 29.8266 23.3084 29.8266 23.3304C29.8047 23.3745 29.7607 23.4187 29.7388 23.4407C29.7168 23.4628 29.7168 23.4628 29.6948 23.4848C29.6948 23.4848 29.6948 23.4848 29.6728 23.5069C29.6509 23.5289 29.6289 23.551 29.6069 23.5731C29.585 23.5951 29.563 23.6172 29.541 23.6392C29.4971 23.6833 29.4531 23.7054 29.4312 23.7495L29.0357 24.1465C29.1895 24.0363 29.3433 23.926 29.4751 23.7936L29.4971 23.7716L29.6948 23.5731L29.7168 23.551C29.7168 23.551 29.7168 23.551 29.7388 23.5289C29.8486 23.4187 29.9365 23.3084 30.0244 23.176C30.4418 22.5805 30.6615 21.8747 30.6615 21.1468C30.6176 20.2645 30.266 19.4043 29.6069 18.7205Z" fill="white"/>
<path d="M32.9022 24.9845C32.7704 25.2051 32.6166 25.4036 32.4408 25.6021C32.3529 25.7124 32.2431 25.8227 32.1332 25.9551C31.8696 26.2418 31.562 26.5285 31.2324 26.7712L32.8143 24.9404L32.9022 24.9845Z" fill="white"/>
<path d="M29.6066 18.7208L29.5847 18.6988L29.5627 18.6767C28.9036 18.015 28.0248 17.6621 27.102 17.6621C25.1686 17.6621 23.5868 19.2502 23.5868 21.1912C23.5868 21.2574 23.5868 21.3236 23.5868 21.3897C23.5868 21.4339 23.5868 21.478 23.6087 21.5441C23.6087 21.5662 23.6087 21.5883 23.6087 21.6103C23.6087 21.6765 23.6307 21.7427 23.6307 21.8088C23.6307 21.8309 23.6307 21.8529 23.6527 21.8971C23.6527 21.9191 23.6527 21.9412 23.6746 21.9632C23.6966 22.0294 23.7186 22.1176 23.7186 22.1838C23.7625 22.3161 23.7845 22.4264 23.8504 22.5367C23.8724 22.5808 23.8943 22.6249 23.9163 22.6691C23.9383 22.7352 23.9822 22.7793 24.0042 22.8455C24.0262 22.8896 24.0481 22.9558 24.0921 22.9999C24.1141 23.044 24.136 23.0881 24.158 23.1102C24.158 23.1323 24.18 23.1543 24.2019 23.1543C24.2239 23.1984 24.2459 23.2205 24.2678 23.2646C24.3118 23.3087 24.3338 23.3528 24.3777 23.3969C24.3997 23.419 24.4216 23.4411 24.4436 23.4631C24.4656 23.4852 24.4875 23.5072 24.5095 23.5513C24.5315 23.5955 24.5754 23.6175 24.5974 23.6616L24.6413 23.7057L24.6633 23.6837L24.6853 23.6616L24.6413 23.6175C24.0042 22.9558 23.6527 22.1176 23.6527 21.1912C23.6527 19.2943 25.1906 17.7283 27.102 17.7283C28.0028 17.7283 28.8597 18.0812 29.5188 18.7208L29.5407 18.7429L29.5627 18.765C30.1998 19.4046 30.5514 20.2648 30.5514 21.1912C30.5514 21.8309 30.3756 22.4705 30.0461 22.9999C30.0241 23.044 29.9801 23.0881 29.9582 23.1323C29.9362 23.1764 29.8923 23.2205 29.8703 23.2646C29.8483 23.2867 29.8264 23.3087 29.8264 23.3308C29.8044 23.3749 29.7604 23.419 29.7385 23.4411C29.7165 23.4631 29.7165 23.4631 29.6945 23.4852V23.5072C29.6726 23.5293 29.6506 23.5513 29.6286 23.5734C29.6066 23.5955 29.5847 23.6175 29.5627 23.6396C29.5188 23.6837 29.4748 23.7057 29.4529 23.7499L29.0574 24.1469C29.2112 24.0366 29.365 23.9263 29.4968 23.794L29.5188 23.7719L29.7165 23.5734L29.7385 23.5513C29.7385 23.5513 29.7385 23.5513 29.7604 23.5293C29.8703 23.419 29.9582 23.3087 30.0461 23.1764C30.4635 22.5808 30.6832 21.875 30.6832 21.1471C30.6173 20.2648 30.2658 19.4046 29.6066 18.7208ZM22.1807 26.1982C22.4004 26.4188 22.6201 26.6173 22.8617 26.7937L22.1807 26.11L22.1587 26.132L22.1367 26.1541L22.1587 26.1761C22.1587 26.1761 22.1807 26.1761 22.1807 26.1982Z" fill="white"/>
<path d="M22.0928 31.1168L22.0269 31.183L22.0489 31.2712L22.1148 31.2051C22.1148 31.1609 22.0928 31.1389 22.0928 31.1168ZM20.2693 28.0068C18.995 26.7495 17.2593 25.9775 15.3479 25.9775C11.4811 25.9775 8.33936 29.1317 8.33936 33.0137C8.33936 34.9327 9.10832 36.6752 10.3606 37.9545C10.3826 37.9766 10.4046 37.9986 10.4046 37.9986C11.4372 39.0353 12.7993 39.7411 14.3153 39.9617C14.6449 40.0058 14.9744 40.0279 15.3259 40.0279C15.6775 40.0279 16.007 40.0058 16.3366 39.9617H15.3479C13.4585 39.9617 11.7228 39.1897 10.4705 37.9545L10.4265 37.9104C9.1962 36.6531 8.42724 34.9327 8.42724 33.0137C8.42724 29.1758 11.5251 26.0658 15.3479 26.0658C17.2374 26.0658 18.973 26.8378 20.2253 28.073L20.2693 28.1171L20.3132 28.073C20.3132 28.0288 20.2912 28.0288 20.2693 28.0068Z" fill="white"/>
<path d="M17.8963 35.307C17.8304 35.3953 17.7426 35.4614 17.6547 35.5497C17.0395 36.1011 16.2266 36.454 15.3478 36.454C14.4031 36.454 13.5682 36.079 12.931 35.4614L12.8871 35.4173C12.2719 34.7997 11.8984 33.9395 11.8984 32.991C11.8984 31.0941 13.4364 29.5281 15.3478 29.5281C16.2925 29.5281 17.1274 29.9031 17.7645 30.5207L17.8085 30.5648L17.8524 30.5207L17.8085 30.4765C17.1713 29.8589 16.3145 29.4619 15.3478 29.4619C13.4144 29.4619 11.8325 31.05 11.8325 32.991C11.8325 33.9615 12.206 34.8218 12.8432 35.4614L12.8871 35.5055C13.5242 36.1231 14.3811 36.5202 15.3478 36.5202C16.0508 36.5202 16.7099 36.2996 17.2592 35.9467C17.435 35.8364 17.6107 35.7041 17.7645 35.5497L17.8744 35.4394C18.0282 35.285 18.16 35.1085 18.2698 34.9321L17.8963 35.307Z" fill="white"/>
<path d="M29.6063 18.7208L29.5843 18.6988L29.5624 18.6767C28.9033 18.015 28.0244 17.6621 27.1017 17.6621C25.1683 17.6621 23.5864 19.2502 23.5864 21.1912C23.5864 21.2574 23.5864 21.3236 23.5864 21.3897C23.5864 21.4339 23.5864 21.478 23.6084 21.5441C23.6084 21.5662 23.6084 21.5883 23.6084 21.6103C23.6084 21.6765 23.6304 21.7427 23.6304 21.8088C23.6304 21.8309 23.6304 21.8529 23.6523 21.8971C23.6523 21.9191 23.6523 21.9412 23.6743 21.9632C23.6963 22.0294 23.7182 22.1176 23.7182 22.1838C23.7622 22.3161 23.7842 22.4264 23.8501 22.5367C23.872 22.5808 23.894 22.6249 23.916 22.6691C23.938 22.7352 23.9819 22.7793 24.0039 22.8455C24.0258 22.8896 24.0478 22.9558 24.0917 22.9999C24.1137 23.044 24.1357 23.0881 24.1577 23.1102C24.1577 23.1323 24.1796 23.1543 24.2016 23.1543C24.2236 23.1984 24.2455 23.2205 24.2675 23.2646C24.3114 23.3087 24.3334 23.3528 24.3774 23.3969C24.3993 23.419 24.4213 23.4411 24.4433 23.4631C24.4652 23.4852 24.4872 23.5072 24.5092 23.5513C24.5312 23.5955 24.5751 23.6175 24.5971 23.6616L24.619 23.6837L24.641 23.7057C24.7948 23.8601 24.9706 23.9925 25.1463 24.1248C25.7176 24.5218 26.3986 24.7204 27.1017 24.7204C27.7828 24.7204 28.4419 24.5218 29.0131 24.1469C29.1669 24.0366 29.3207 23.9263 29.4525 23.794L29.4745 23.7719L29.6722 23.5734L29.6942 23.5513C29.6942 23.5513 29.6942 23.5513 29.7162 23.5293C29.826 23.419 29.9139 23.3087 30.0018 23.1764C30.4192 22.5808 30.6389 21.875 30.6389 21.1471C30.617 20.2648 30.2654 19.4046 29.6063 18.7208ZM29.9578 23.1543C29.9359 23.1984 29.8919 23.2425 29.87 23.2867C29.848 23.3087 29.826 23.3308 29.826 23.3528C29.804 23.3969 29.7601 23.4411 29.7381 23.4631C29.7162 23.4852 29.7162 23.4852 29.6942 23.5072V23.5293C29.6722 23.5513 29.6503 23.5734 29.6283 23.5955C29.6063 23.6175 29.5843 23.6396 29.5624 23.6616C29.5184 23.7057 29.4745 23.7278 29.4525 23.7719C28.8154 24.3454 28.0025 24.6542 27.1456 24.6542C26.2448 24.6542 25.388 24.3013 24.7289 23.6616L24.6849 23.6175C24.0478 22.9558 23.6963 22.1176 23.6963 21.1912C23.6963 19.2943 25.2342 17.7283 27.1456 17.7283C28.0464 17.7283 28.9033 18.0812 29.5624 18.7208L29.5843 18.7429L29.6063 18.765C30.2435 19.4046 30.595 20.2648 30.595 21.1912C30.595 21.8309 30.4192 22.4705 30.0897 22.9999C30.0018 23.0661 29.9798 23.1102 29.9578 23.1543Z" fill="white"/>
<path d="M36.5495 35.6389C36.3957 35.4183 36.2199 35.2419 36.0002 35.1095C35.9783 35.0875 35.9563 35.0875 35.9343 35.0654L36.6374 35.7713C36.6154 35.7271 36.5934 35.683 36.5495 35.6389ZM34.0449 37.999L34.2426 38.1975C34.2646 38.1975 34.2865 38.2196 34.3085 38.2196C34.1987 38.1534 34.1108 38.0872 34.0449 37.999ZM33.6274 37.602C33.7593 37.7343 33.8911 37.8667 34.0229 37.999L33.6274 37.602ZM33.5176 37.4696C33.5176 37.4696 33.5176 37.4917 33.5395 37.4917L33.6494 37.602C33.5835 37.5579 33.5615 37.5138 33.5176 37.4696Z" fill="white"/>
<path d="M42.1297 32.0647C42.1297 32.0427 42.1077 31.9986 42.1077 31.9765C41.7342 30.4325 40.35 29.3076 38.7023 29.3076C37.9772 29.3076 37.2962 29.5282 36.7469 29.9032C36.3734 30.1678 36.0439 30.4766 35.7802 30.8737C35.4067 31.4471 35.187 32.1089 35.187 32.8367C35.187 33.5646 35.4067 34.2484 35.7802 34.7998C35.8461 34.9101 35.912 34.9983 35.9999 35.0866C36.1537 35.2851 36.3514 35.4615 36.5492 35.6159C36.6151 35.66 36.681 35.7042 36.7249 35.7483C37.0545 35.9688 37.428 36.1453 37.8235 36.2556C37.8454 36.2556 37.8894 36.2776 37.9113 36.2776C38.153 36.3438 38.4167 36.3659 38.6803 36.3659C40.6137 36.3659 42.1956 34.7778 42.1956 32.8367C42.2175 32.5721 42.1956 32.3294 42.1297 32.0647ZM38.7023 36.2997C38.4606 36.2997 38.2189 36.2776 37.9992 36.2335C37.9773 36.2335 37.9333 36.2115 37.9113 36.2115C36.3954 35.8586 35.2529 34.469 35.2529 32.8367C35.2529 30.9398 36.7908 29.3738 38.7023 29.3738C40.3281 29.3738 41.6902 30.5208 42.0637 32.0427C42.0637 32.0647 42.0857 32.0868 42.0857 32.1309C42.1297 32.3515 42.1516 32.5941 42.1516 32.8367C42.1516 34.7557 40.6137 36.2997 38.7023 36.2997Z" fill="white"/>
<path d="M27.146 31.0949L27.102 31.1611L27.0581 31.0949L27.102 31.0508L27.146 31.0949Z" fill="white"/>
<path d="M29.5855 28.647L29.5633 28.6692L29.519 28.6248L29.5412 28.6025L29.5855 28.647Z" fill="white"/>
<path d="M30.0243 23.2644L29.6728 23.5953L29.4971 23.7938L29.4751 23.8158L29.4092 23.7497L29.6509 23.5291V23.507L29.9584 23.1982L30.0243 23.2644Z" fill="white"/>
<path d="M24.6848 28.6238L22.1142 31.2045L22.0483 31.2706L17.8959 35.4394L17.7861 35.5497C17.6323 35.7041 17.4565 35.8364 17.2808 35.9467L17.6762 35.5497C17.7641 35.4835 17.83 35.3953 17.9179 35.3071L18.3134 34.91L22.0483 31.1603L22.1142 31.0942L24.5969 28.6017L24.6408 28.5576L24.6848 28.6238Z" fill="white"/>
<path d="M25.4322 36.3219L21.8291 39.9392H21.8071L25.4322 36.2998V36.3219Z" fill="white"/>
<path d="M28.9033 32.8371L28.8374 32.9033L28.7935 32.8371L28.8374 32.793L28.9033 32.8371Z" fill="white"/>
<path d="M34.0886 27.6316L34.0446 27.6978L33.6272 28.0948L33.0779 28.6462L31.3642 30.3667L31.2983 30.4328L31.2544 30.3667L31.2983 30.3226L33.5833 28.0507L34.0007 27.6095H34.0227L34.0446 27.5654L34.0886 27.6316Z" fill="white"/>
<path d="M36.7475 29.9248L35.7808 30.8953C36.0444 30.4983 36.374 30.1674 36.7475 29.9248Z" fill="white"/>
<path d="M40.5918 26.0431C40.5478 26.0431 40.5259 26.0431 40.4819 26.0431L40.5259 25.999L40.5918 26.0431Z" fill="white"/>
<path d="M35.2968 38.9461L35.2529 38.9902C35.2309 38.9681 34.8574 38.7035 34.7476 38.6152L35.2089 38.924L35.2309 38.902C35.2529 38.924 35.2748 38.924 35.2968 38.9461Z" fill="white"/>
<path d="M37.999 36.234L37.9331 36.3001C37.9111 36.3001 37.8672 36.2781 37.8452 36.2781L37.9111 36.2119C37.9331 36.2119 37.9551 36.234 37.999 36.234Z" fill="white"/>
<path d="M42.1294 32.0648L42.0635 32.131C42.0635 32.1089 42.0415 32.0648 42.0415 32.0427L42.1074 31.9766C42.1294 32.0207 42.1294 32.0427 42.1294 32.0648Z" fill="white"/>
<path d="M44.8755 29.3078L44.8315 29.3519C44.8096 29.3298 44.8096 29.3078 44.7876 29.2857L44.8096 29.2637L44.8755 29.3078Z" fill="white"/>
<path d="M24.6846 23.6613L24.6626 23.7054L24.6187 23.6392L24.6406 23.6172L24.6846 23.6613Z" fill="white"/>
<path d="M29.6055 18.7209L29.5615 18.765L29.5395 18.7429L29.5176 18.7209L29.5615 18.6768L29.5835 18.6988C29.6055 18.7209 29.6055 18.7209 29.6055 18.7209Z" fill="white"/>
<path d="M10.4922 37.9318L10.4482 37.9759C10.4263 37.9539 10.4043 37.9318 10.4043 37.9318L10.4482 37.8877L10.4922 37.9318Z" fill="white"/>
<path d="M12.9531 35.4611L12.8872 35.5052L12.8433 35.4611L12.8872 35.417L12.9531 35.4611Z" fill="white"/>
<path d="M20.3352 28.051L20.2912 28.0951L17.8745 30.5213L17.8306 30.5655L17.7866 30.5213L17.8306 30.4772L20.2473 28.051L20.2912 28.0068C20.2912 28.0289 20.3132 28.0289 20.3352 28.051Z" fill="white"/>
<path d="M22.2026 26.1755L22.1807 26.1976L22.1147 26.1535L22.1367 26.1314L22.1587 26.1094L22.2026 26.1755Z" fill="white"/>
<path d="M44.8542 29.3521C44.8322 29.33 44.8322 29.308 44.8102 29.2859C43.8875 27.7198 42.3715 26.5288 40.5919 26.0656C40.5699 26.0656 40.526 26.0435 40.504 26.0435C39.9548 25.9112 39.3835 25.8229 38.7684 25.8229C36.9448 25.8229 35.2751 26.5288 34.0228 27.6978L33.6273 28.0948L33.078 28.6462L31.3424 30.3887L31.2984 30.4329L31.2545 30.3887L29.5628 28.6904L29.5408 28.6683L29.4529 28.5801L29.4969 28.536L30.9469 27.1022L30.9908 27.0802L30.9469 27.0361C31.0568 26.9699 31.1666 26.8817 31.2765 26.8155L32.8583 24.9848L32.9242 25.0289C33.6273 23.926 34.0447 22.6247 34.0447 21.2351C34.0447 17.3972 30.9469 14.2871 27.1241 14.2871C23.3012 14.2871 20.2034 17.3972 20.2034 21.2351C20.2034 23.0879 20.9064 24.8083 22.2027 26.1317L22.8838 26.8155L24.6634 28.6021L24.7073 28.6462L22.1368 31.2269L22.0709 31.2931L17.9185 35.4619C17.8745 35.506 17.8525 35.5501 17.8086 35.5722C17.6548 35.7266 17.4791 35.8589 17.3033 35.9692C16.754 36.3441 16.0949 36.5427 15.3919 36.5427C14.4252 36.5427 13.5683 36.1677 12.9312 35.528L12.8872 35.4839C12.2721 34.8443 11.8766 33.984 11.8766 33.0135C11.8766 31.0725 13.4585 29.4844 15.3919 29.4844C16.3586 29.4844 17.2154 29.8594 17.8525 30.499L20.2693 28.0728C19.017 26.8376 17.3033 26.0656 15.3919 26.0656C11.569 26.0656 8.47119 29.1756 8.47119 33.0135C8.47119 34.9104 9.24015 36.6529 10.4705 37.9102L10.5144 37.9543C11.7667 39.1895 13.4804 39.9615 15.3919 39.9615H16.4025C17.6109 39.785 18.7314 39.2998 19.6761 38.5719L22.3345 35.903L27.1021 31.1166L27.146 31.0725L27.19 31.1166L28.8817 32.815L28.9256 32.8591L28.8817 32.9032L25.5422 36.278L25.4982 36.3221L21.8731 39.9615H26.7066L27.915 38.7484L27.9589 38.7043L31.2984 35.3295L31.3424 35.2854L31.3863 35.3295L33.122 37.072L33.5614 37.5132C33.5614 37.5132 33.5614 37.4911 33.5394 37.4911C33.5833 37.5352 33.6273 37.5793 33.6712 37.6235L34.0667 38.0205C34.1546 38.0867 34.2205 38.1749 34.3084 38.2411C34.2864 38.2411 34.2644 38.219 34.2425 38.219L34.7478 38.616L35.2092 38.9248L35.2311 38.9028C35.2531 38.9248 35.2751 38.9248 35.297 38.9469C36.3296 39.5424 37.516 39.8733 38.7684 39.8733C39.3616 39.8733 39.9328 39.8071 40.504 39.6527C40.526 39.6527 40.5699 39.6306 40.5919 39.6306C43.5799 38.8366 45.7769 36.1015 45.7769 32.8371C45.7769 31.5798 45.4474 30.3887 44.8542 29.3521ZM27.1021 24.7201C26.399 24.7201 25.7179 24.5216 25.1467 24.1245C24.971 24.0143 24.7952 23.8599 24.6414 23.7055L24.5975 23.6614C24.5535 23.6172 24.5315 23.5952 24.5096 23.5511C24.4876 23.529 24.4656 23.507 24.4437 23.4628C24.4217 23.4408 24.3997 23.4187 24.3778 23.3967C24.3338 23.3526 24.3118 23.3084 24.2679 23.2643C24.2459 23.2202 24.224 23.1982 24.202 23.154C24.18 23.132 24.18 23.1099 24.1581 23.1099C24.1361 23.0658 24.1141 23.0438 24.0921 22.9996C24.0702 22.9555 24.0262 22.9114 24.0043 22.8452C23.9823 22.7791 23.9383 22.735 23.9164 22.6688C23.8944 22.6247 23.8724 22.5806 23.8505 22.5364C23.8065 22.4262 23.7626 22.2938 23.7186 22.1835C23.6967 22.1174 23.6747 22.0291 23.6747 21.963C23.6747 21.9409 23.6747 21.9188 23.6527 21.8968C23.6527 21.8747 23.6527 21.8527 23.6308 21.8086C23.6088 21.7424 23.6088 21.6762 23.6088 21.61C23.6088 21.588 23.6088 21.5659 23.6088 21.5439C23.6088 21.4998 23.6088 21.4556 23.5868 21.3895C23.5868 21.3233 23.5868 21.2571 23.5868 21.191C23.5868 19.2499 25.1687 17.6618 27.1021 17.6618C28.0248 17.6618 28.9037 18.0147 29.5628 18.6765L29.5847 18.6985L29.6067 18.7206C30.2658 19.3823 30.6173 20.2646 30.6173 21.191C30.6173 21.9188 30.3976 22.6247 29.9802 23.2202L30.0241 23.2643L29.6726 23.6172C29.6067 23.6834 29.5408 23.7496 29.4749 23.8158L29.4529 23.8378C29.3211 23.9701 29.1673 24.0804 29.0135 24.1907C28.4423 24.5216 27.7832 24.7201 27.1021 24.7201ZM38.7024 36.3883C38.4388 36.3883 38.1752 36.3662 37.9335 36.3C37.9115 36.3 37.8676 36.278 37.8456 36.278C37.4501 36.1677 37.0766 36.0133 36.7471 35.7707C36.6812 35.7266 36.6153 35.6824 36.5713 35.6383C36.5933 35.6824 36.6372 35.7266 36.6592 35.7707L35.9562 35.0648C35.9781 35.0869 36.0001 35.0869 36.0221 35.109C35.9342 35.0207 35.8683 34.9104 35.8024 34.8222C35.4289 34.2487 35.2092 33.587 35.2092 32.8591C35.2092 32.1313 35.4289 31.4475 35.8024 30.8961C36.066 30.5211 36.3736 30.1902 36.7691 29.9256C37.3403 29.5506 37.9994 29.33 38.7244 29.33C40.3722 29.33 41.7563 30.477 42.1298 31.9989C42.1298 32.021 42.1518 32.0651 42.1518 32.0871C42.2177 32.3298 42.2397 32.5944 42.2397 32.8591C42.2177 34.8002 40.6358 36.3883 38.7024 36.3883Z" fill="white"/>
<path d="M24.6847 28.6239L24.6408 28.668L24.5969 28.6239L22.1362 26.1535C21.9165 25.9329 21.7187 25.7124 21.543 25.4697L22.1801 26.1094L22.8612 26.7931L24.6408 28.5798L24.6847 28.6239Z" fill="white"/>
<path d="M28.9036 32.8364L28.8377 32.9026L28.7938 32.8364L27.0581 31.0939L27.102 31.0498L27.146 31.0939L28.8377 32.7923L28.9036 32.8364Z" fill="white"/>
<path d="M34.0439 37.9986C33.9121 37.8662 33.7803 37.7339 33.6484 37.6016L34.0439 37.9986Z" fill="white"/>
<path d="M31.3646 30.3665L31.2986 30.4326L31.2547 30.3665L29.563 28.6681L29.4531 28.5578L29.4971 28.5137H29.519L29.6069 28.6019L31.2986 30.3223L31.3646 30.3665Z" fill="white"/>
<path d="M34.748 38.6162L35.2094 38.925L34.748 38.6162Z" fill="white"/>
<path d="M36.5492 35.6384C36.5712 35.6825 36.6151 35.7266 36.6371 35.7707L35.9341 35.0649C35.956 35.0869 35.978 35.087 36 35.109C35.9121 35.0208 35.8462 34.9105 35.7803 34.8223L36.725 35.7707C36.6811 35.7266 36.6151 35.6825 36.5492 35.6384Z" fill="white"/>
<path d="M40.6357 39.697C40.6138 39.697 40.5698 39.7191 40.5478 39.7191L40.4819 39.6529C40.5039 39.6529 40.5478 39.6309 40.5698 39.6309L40.6357 39.697Z" fill="white"/>
<path d="M25.1469 24.1463C24.9711 24.036 24.7953 23.8816 24.6416 23.7272L24.5976 23.6831C24.5537 23.639 24.5317 23.6169 24.5097 23.5728C24.4878 23.5508 24.4658 23.5287 24.4438 23.4846C24.4219 23.4625 24.3999 23.4405 24.3779 23.4184C24.334 23.3743 24.312 23.3302 24.2681 23.2861C24.2461 23.242 24.2241 23.2199 24.2021 23.1758L24.6635 23.639L24.7075 23.6831L25.1469 24.1463Z" fill="white"/>
<path d="M27.124 31.0719L27.0801 31.116L22.2905 35.8803L27.0581 31.0939L27.102 31.0498L27.124 31.0719Z" fill="white"/>
<path d="M32.9679 25.0287L32.4406 25.6242L32.155 25.9551L31.6277 26.5506L31.3641 26.8594L29.6064 28.6019L29.5845 28.646L29.5625 28.6681L29.4526 28.5578L29.4966 28.5137L30.9466 27.08L30.9686 27.0358L31.2542 26.7712L32.8581 24.9404L32.902 24.9845L32.9679 25.0287Z" fill="white"/>
<path d="M30.9691 27.0361L30.9471 27.0582L29.519 28.514L29.4531 28.5581L29.4971 28.514L30.9471 27.0802L30.9691 27.0361Z" fill="white"/>
</g>
<defs>
<clipPath id="clip0">
<rect width="37.5254" height="25.8508" fill="white" transform="translate(8.33887 14.1768)"/>
</clipPath>
</defs>
</svg>
