<svg width="52" height="47" viewBox="0 0 52 47" fill="none" xmlns="http://www.w3.org/2000/svg">
<rect width="52" height="47" rx="8" fill="#FFA35D"/>
<path d="M35.0378 15.2266H34.8698H30.8365H30.6685V18.1656H34.9818V15.2266H35.0378ZM33.8054 15.5864L32.8532 16.4262L31.9008 15.5864H33.8054ZM34.6457 17.7457H31.0606V15.5864H31.2846L32.8532 16.906L34.4216 15.5864H34.6457V17.7457Z" fill="white"/>
<path d="M24.7866 31.6598C24.8426 32.3795 25.1787 33.0992 25.6828 33.639C25.7388 33.699 25.8509 33.759 25.9069 33.759C25.9629 33.759 25.9629 33.759 26.0189 33.759C26.131 33.699 26.187 33.639 26.243 33.5191C26.299 33.0393 26.7472 32.6794 27.1953 32.6794H28.7638C29.1559 32.6794 29.492 32.9193 29.6601 33.3392C29.7161 33.4591 29.7721 33.5191 29.8841 33.5791C29.9962 33.5791 30.1082 33.5791 30.1642 33.4591C30.6684 32.7994 30.8925 31.9597 30.7804 31.12C30.6124 29.6206 29.492 28.3612 28.0916 28.2412C27.9796 28.2412 27.8675 28.2412 27.7555 28.2412C26.9152 28.2412 26.075 28.6011 25.5148 29.3208C24.9546 29.8605 24.6745 30.7602 24.7866 31.6598ZM27.7555 32.1396C27.1393 32.1396 26.6351 31.5999 26.6351 30.9401C26.6351 30.2804 27.1393 29.7406 27.7555 29.7406C28.3717 29.7406 28.8758 30.2804 28.8758 30.9401C28.9319 31.5999 28.3717 32.1396 27.7555 32.1396ZM26.0189 29.6206C26.4671 29.0809 27.1393 28.781 27.8115 28.781C27.8675 28.781 27.9796 28.781 28.0356 28.781C29.1559 28.9009 30.0522 29.8606 30.1642 31.0601C30.2203 31.5399 30.1082 32.0797 29.9402 32.4995C29.7161 32.1996 29.324 32.0197 28.9319 31.9597C29.1559 31.6598 29.324 31.3 29.324 30.8801C29.324 29.9805 28.6518 29.2608 27.8115 29.2608C26.9712 29.2608 26.299 29.9805 26.299 30.8801C26.299 31.3 26.4671 31.7198 26.6911 31.9597C26.299 32.0797 25.9629 32.3196 25.7949 32.6794C25.5708 32.3196 25.4588 31.9597 25.4027 31.5399C25.3467 30.8801 25.5148 30.1604 26.0189 29.6206Z" fill="white"/>
<path d="M16.8885 25.2426C17.0006 25.3626 17.1126 25.3626 17.2246 25.3026C17.3367 25.2426 17.3927 25.1227 17.3927 25.0027V24.7028C17.3927 23.6832 18.1209 22.7836 19.0732 22.6636C19.1292 22.6636 19.2413 22.6636 19.2973 22.6636H22.0421C23.1065 22.6636 23.9468 23.5633 23.9468 24.7028V25.0027C23.9468 25.1227 24.0028 25.2426 24.1148 25.3026C24.1708 25.3026 24.1708 25.3026 24.2268 25.3026C24.2829 25.3026 24.3949 25.2426 24.4509 25.1826C25.5152 24.1031 26.0754 22.6037 26.0754 21.0443C26.0754 17.8056 23.6106 15.2266 20.6417 15.2266C17.6168 15.2266 15.208 17.8655 15.208 21.0443C15.264 22.6636 15.8242 24.163 16.8885 25.2426ZM21.0338 22.0039H20.4737C19.4653 21.824 18.6811 20.9243 18.6811 19.7848C18.6811 18.5253 19.6334 17.5657 20.7537 17.5657C21.9301 17.5657 22.8264 18.5852 22.8264 19.7848C22.8264 20.9243 22.0422 21.824 21.0338 22.0039ZM20.6977 15.9463C23.3306 15.9463 25.5152 18.2854 25.5152 21.1043C25.5152 22.2438 25.1791 23.2634 24.5629 24.163C24.3389 23.0235 23.4426 22.1239 22.3222 22.0039C22.9384 21.4641 23.3306 20.6844 23.3306 19.7848C23.3306 18.2254 22.1542 16.9659 20.6977 16.9659C19.2413 16.9659 18.0649 18.2254 18.0649 19.7848C18.0649 20.6844 18.457 21.5241 19.0732 22.0039C19.0732 22.0039 19.0732 22.0039 19.0172 22.0039C17.8968 22.1239 17.0566 23.0235 16.8325 24.163C16.2163 23.2634 15.8802 22.2438 15.8802 21.1043C15.8802 18.2854 18.0649 15.9463 20.6977 15.9463Z" fill="white"/>
<path d="M32.8535 20.9243C35.0942 20.9243 36.9427 18.9451 36.9427 16.5461C36.9427 14.1471 35.0942 12.168 32.8535 12.168C30.6128 12.168 28.7642 14.1471 28.7642 16.5461C28.7642 18.9451 30.6128 20.9243 32.8535 20.9243ZM32.8535 12.8877C34.7581 12.8877 36.3265 14.567 36.3265 16.6061C36.3265 18.6452 34.7581 20.3245 32.8535 20.3245C30.9489 20.3245 29.3804 18.6452 29.3804 16.6061C29.4364 14.507 30.9489 12.8877 32.8535 12.8877Z" fill="white"/>
<path d="M14.3672 21.1045C14.3672 24.883 17.2241 27.9418 20.7532 27.9418C21.7055 27.9418 22.6578 27.7019 23.498 27.2821L24.7304 28.7815C24.1142 29.6211 23.8341 30.7007 23.8902 31.7803C24.0582 33.7595 25.5147 35.3189 27.3632 35.4988C27.4753 35.4988 27.6433 35.4988 27.7554 35.4988C28.8757 35.4988 29.884 35.019 30.6683 34.1194C31.3965 33.2197 31.7886 32.0802 31.6766 30.8806C31.5085 28.9014 30.0521 27.342 28.2035 27.1621C27.4193 27.1021 26.635 27.2821 25.9068 27.7019L24.7864 26.3824C26.2429 25.0629 27.1392 23.1437 27.1392 21.1045C27.1392 20.5647 27.0832 20.0249 26.9711 19.4851L28.4836 18.8854C29.3239 20.6847 31.0604 21.8242 32.909 21.8242C35.6538 21.8242 37.8945 19.4252 37.8945 16.4863C37.8945 13.5475 35.6538 11.1484 32.909 11.1484C30.1641 11.1484 27.9234 13.5475 27.9234 16.4863C27.9234 16.7862 27.9234 17.0261 27.9794 17.326L26.411 17.9258C25.2906 15.6467 23.1059 14.2072 20.7532 14.2072C17.2241 14.2672 14.3672 17.326 14.3672 21.1045ZM20.6972 14.9869C22.9379 14.9869 24.9545 16.3664 25.9068 18.5855C25.9628 18.7654 26.1309 18.8254 26.2989 18.7654L28.4276 17.9857C28.5956 17.9258 28.6517 17.7458 28.6517 17.5659C28.5956 17.2061 28.5396 16.9062 28.5396 16.6063C28.5396 14.0273 30.5002 11.9881 32.853 11.9881C35.2617 11.9881 37.1663 14.0873 37.1663 16.6063C37.1663 19.1853 35.2057 21.2244 32.853 21.2244C31.1164 21.2244 29.5479 20.1449 28.8757 18.4056C28.8197 18.2256 28.6516 18.1657 28.4836 18.2256L26.411 19.0053C26.2429 19.0653 26.1869 19.2452 26.1869 19.4252C26.3549 19.9649 26.411 20.5647 26.411 21.1645C26.411 23.0837 25.5147 24.943 24.0582 26.1425C24.0022 26.2025 23.9462 26.2625 23.9462 26.3824C23.9462 26.5024 23.9462 26.5623 24.0022 26.6223L25.5147 28.4216C25.6267 28.5416 25.7948 28.5416 25.9068 28.4816C26.523 28.0618 27.3072 27.8218 28.0355 27.9418C29.5479 28.1217 30.7803 29.4412 30.9484 31.0606C31.0604 32.0802 30.7243 33.0398 30.1081 33.7595C29.4919 34.4792 28.5956 34.8991 27.6993 34.8991C27.5873 34.8991 27.4753 34.8991 27.3632 34.8991C25.8508 34.7191 24.6184 33.3996 24.4503 31.7803C24.3383 30.7607 24.6744 29.8011 25.2906 29.0813C25.2906 29.0813 25.3466 29.0813 25.3466 29.0214C25.4587 28.9014 25.4587 28.7215 25.3466 28.6015L23.7781 26.6823C23.7221 26.6223 23.6101 26.5624 23.5541 26.5624C23.498 26.5624 23.442 26.5623 23.386 26.6223C22.5457 27.1021 21.6495 27.342 20.6972 27.342C17.5042 27.342 14.9274 24.5831 14.9274 21.1645C14.9834 17.7458 17.5602 14.9869 20.6972 14.9869Z" fill="white"/>
</svg>
