<svg width="52" height="47" viewBox="0 0 52 47" fill="none" xmlns="http://www.w3.org/2000/svg">
<rect width="52" height="47" rx="8" fill="#4781DC"/>
<path d="M38.2572 21.8698L35.5124 21.2101V16.412C35.5124 16.1721 35.3443 15.9922 35.1202 15.9922H16.2984C16.0743 15.9922 15.9062 16.1721 15.9062 16.412V27.2077C15.9062 27.4476 16.0743 27.6275 16.2984 27.6275H17.9229V27.6875C17.9229 27.8074 17.9229 27.9274 17.9789 27.9874C18.0349 28.1073 18.1469 28.1673 18.203 28.1673L18.427 28.2273L35.9605 32.5455H36.0165C36.1846 32.5455 36.3526 32.4256 36.4086 32.2456L38.1452 24.0889L38.5373 22.3496C38.5373 22.2297 38.5373 22.1097 38.4813 22.0498C38.4813 21.9298 38.3693 21.8698 38.2572 21.8698ZM28.3421 28.1673C28.9023 28.1673 29.4065 27.9874 29.9106 27.6875C29.9666 27.6875 29.9666 27.6275 29.9666 27.6275H34.9522L34.7842 28.5271C34.7281 28.5271 34.6721 28.5271 34.6161 28.5271C33.8319 28.5271 33.1036 28.947 32.7675 29.6667C32.7115 29.7866 32.6555 29.9066 32.6555 29.9666L23.1325 27.6275H26.7737C26.8297 27.6875 26.9417 27.7475 26.9977 27.7475C27.0537 27.8074 27.1097 27.8074 27.1658 27.8674C27.3338 27.9874 27.5579 28.0473 27.7259 28.1073C27.95 28.1073 28.1741 28.1673 28.3421 28.1673ZM27.894 27.6275H28.7903C28.5102 27.6875 28.2301 27.6875 27.894 27.6275ZM16.7465 26.7878V16.8318H34.7842V26.7878H16.7465ZM35.7925 31.5859L19.5474 27.5675H22.0122C22.0122 27.6275 22.0682 27.6875 22.1242 27.7475L32.7115 30.3264C32.7115 30.3264 32.7115 30.3264 32.7675 30.3264C32.8235 30.3264 32.9356 30.2664 32.9356 30.2065C33.1597 29.3668 33.8319 28.827 34.6161 28.827C34.7281 28.827 34.8402 28.827 34.9522 28.827C35.0642 28.827 35.1203 28.767 35.1763 28.7071L35.4564 27.5075L35.5124 27.4476C35.5684 27.3876 35.6244 27.2676 35.6244 27.1477V26.6079L36.0165 24.7487C36.0165 24.6287 35.9605 24.5687 35.9045 24.5088C35.7925 24.5088 35.7365 24.4488 35.6244 24.3888V21.9298L37.8091 22.4696L35.7925 31.5859Z" fill="white"/>
<path d="M33.2715 19.4107C32.3193 19.3508 31.591 18.5111 31.535 17.4915C31.535 17.3715 31.423 17.3115 31.3669 17.3115H20.1634C20.0514 17.3115 19.9954 17.3715 19.9954 17.4915C19.9394 18.5111 19.2112 19.3508 18.2589 19.4107C18.1468 19.4107 18.0908 19.5307 18.0908 19.5907V23.909C18.0908 24.029 18.1468 24.089 18.2589 24.089C19.2112 24.1489 19.9394 24.9886 19.9954 26.0082C19.9954 26.1282 20.1074 26.1882 20.1634 26.1882H31.3669C31.479 26.1882 31.535 26.1282 31.535 26.0082C31.591 24.9886 32.3193 24.1489 33.2715 24.089C33.3836 24.089 33.4396 23.969 33.4396 23.909V19.5907C33.4396 19.5307 33.3836 19.4107 33.2715 19.4107ZM33.1035 23.7891C32.0952 23.909 31.3669 24.8087 31.1989 25.8883H20.3315C20.2195 24.8087 19.4352 23.969 18.4269 23.7891V19.8306C19.4352 19.7106 20.1635 18.811 20.3315 17.7314H31.1989C31.3109 18.811 32.0952 19.6506 33.1035 19.8306V23.7891Z" fill="white"/>
<path d="M25.8775 18.4512C24.1969 18.4512 22.8525 19.9505 22.8525 21.8098C22.8525 23.669 24.1969 25.1683 25.8775 25.1683C27.558 25.1683 28.9024 23.669 28.9024 21.8098C28.9024 19.9505 27.502 18.4512 25.8775 18.4512ZM25.8775 24.6286C24.477 24.6286 23.3567 23.3691 23.3567 21.8098C23.3567 20.2504 24.477 18.9909 25.8775 18.9909C27.2779 18.9909 28.3983 20.2504 28.3983 21.8098C28.3983 23.3691 27.2779 24.6286 25.8775 24.6286Z" fill="white"/>
</svg>
