<svg width="52" height="47" viewBox="0 0 52 47" fill="none" xmlns="http://www.w3.org/2000/svg">
<rect width="52" height="47" rx="8" fill="#4C9F70"/>
<path d="M19.0252 19.4771H28.4922C28.6602 19.4771 28.7723 19.357 28.7723 19.177C28.7723 18.997 28.6602 18.877 28.4922 18.877H19.0252C18.8572 18.877 18.7451 18.997 18.7451 19.177C18.7451 19.357 18.9132 19.4771 19.0252 19.4771Z" fill="white"/>
<path d="M28.4922 27.1543H19.0252C18.8572 27.1543 18.7451 27.2742 18.7451 27.4541C18.7451 27.6339 18.8572 27.7539 19.0252 27.7539H28.4922C28.6602 27.7539 28.7723 27.6339 28.7723 27.4541C28.7723 27.2742 28.6602 27.1543 28.4922 27.1543Z" fill="white"/>
<path d="M38.351 13.7197C37.9588 13.2999 37.5667 13.12 37.1186 13.12C36.4464 13.12 35.9982 13.5997 35.9422 13.6597L32.3011 17.5581C32.2451 17.6181 32.2451 17.6781 32.2451 17.798V17.858L32.021 18.0979L31.909 17.978L31.5168 18.3978V13H16V31.8323H31.5168V23.4957L34.3177 20.4969L34.2057 20.377L34.4297 20.1371H34.4858C34.5418 20.1371 34.6538 20.1371 34.7098 20.0771L38.295 16.2387C38.295 16.2387 38.8551 15.6989 38.8551 14.9192C38.8551 14.4994 38.6871 14.0796 38.351 13.7197ZM30.9566 24.0955V31.2326H16.5602V13.5998H30.9566V18.9376L27.8197 22.2962L28.0438 22.5361L27.9877 23.0159H19.0249C18.8569 23.0159 18.7448 23.1359 18.7448 23.3158C18.7448 23.4957 18.8569 23.6157 19.0249 23.6157H27.8757L27.6516 25.1151L30.0044 24.6952L30.2284 24.9351L30.9566 24.0955L31.2367 23.7956L30.9566 24.0955ZM28.3799 24.8152L27.8757 24.9351H27.8197L27.9317 24.3354L28.0438 24.4553L28.3239 22.836L29.7803 24.3954L28.2678 24.6952L28.3799 24.8152ZM30.2284 24.0355L28.6039 22.2962L31.909 18.7576L33.5335 20.4969L30.2284 24.0355ZM33.9256 20.317L32.133 18.3978L32.3011 18.2179L34.0936 20.1371L33.9256 20.317ZM37.9028 15.8189L34.4858 19.4773L32.8613 17.7381L36.3343 14.0196C36.3343 14.0196 36.6704 13.6597 37.1186 13.6597C37.3987 13.6597 37.6788 13.7797 37.9028 14.0796C38.1269 14.3195 38.2389 14.6193 38.2389 14.9192C38.2949 15.459 37.9028 15.8189 37.9028 15.8189Z" fill="white"/>
<path d="M32.3013 16.7783C32.4133 16.8983 32.5814 16.8983 32.6374 16.7783L35.2142 14.0192C35.3263 13.8993 35.3263 13.7193 35.2142 13.6593C35.1022 13.5393 34.9341 13.5393 34.8781 13.6593L32.3013 16.4185C32.1893 16.4784 32.1893 16.6584 32.3013 16.7783Z" fill="white"/>
</svg>
