<svg width="52" height="47" viewBox="0 0 52 47" fill="none" xmlns="http://www.w3.org/2000/svg">
<rect width="52" height="47" rx="8" fill="#876FEF"/>
<path d="M19.3503 30.6623C19.3503 30.9622 19.1262 31.2021 18.8461 31.2021H18.286C18.0059 31.2021 17.7818 30.9622 17.7818 30.6623V29.4629H17.1656C17.1096 29.4629 17.0536 29.4629 16.9976 29.4629V30.7223C16.9976 31.442 17.5577 32.0417 18.2299 32.0417H18.7901C19.4623 32.0417 20.0225 31.442 20.0225 30.7223V29.5229H19.2943V30.6623H19.3503Z" fill="white"/>
<path d="M33.6913 29.4031V30.9624C33.6913 31.2623 33.4672 31.5022 33.1871 31.5022H32.6269C32.3468 31.5022 32.1228 31.2623 32.1228 30.9624V29.4031H31.3945V30.9624C31.3945 31.6821 31.9547 32.2818 32.6269 32.2818H33.1871C33.8593 32.2818 34.4195 31.6821 34.4195 30.9624V29.2832C34.3075 29.3432 34.1394 29.4031 33.9714 29.4031H33.6913Z" fill="white"/>
<path d="M17.7819 26.8838V22.6257C17.7819 22.3258 18.006 22.0859 18.2861 22.0859H33.2427C33.5228 22.0859 33.7469 22.3258 33.7469 22.6257V26.8838H34.083C34.251 26.8838 34.3631 26.9438 34.5311 27.0037V22.6257C34.5311 21.906 33.9709 21.3063 33.2987 21.3063H33.0186V19.3272C33.1867 19.3871 33.3548 19.4471 33.5788 19.4471C34.195 19.4471 34.6432 19.0273 34.6432 18.4875V16.8683C34.6432 16.3285 34.195 15.9087 33.5788 15.9087C33.3548 15.9087 33.1867 15.9687 33.0186 16.0286V15.0691C33.0186 14.2294 32.4585 13.5098 31.7863 13.5098H19.9106C19.2384 13.5098 18.6782 14.2294 18.6782 15.0691V16.0286C18.5102 15.9687 18.3421 15.9087 18.1741 15.9087C17.5579 15.9087 17.0537 16.3285 17.0537 16.8683V18.4875C17.0537 19.0273 17.5579 19.4471 18.1741 19.4471C18.3421 19.4471 18.5102 19.3871 18.6782 19.3272V21.2463H18.3981C17.7259 21.2463 17.1658 21.8461 17.1658 22.5657V26.8238C17.2218 26.8238 17.2778 26.8238 17.3338 26.8238H17.7819V26.8838ZM33.1307 16.8683C33.1307 16.8083 33.2427 16.6883 33.4668 16.6883C33.6909 16.6883 33.8029 16.8083 33.8029 16.8683V18.4875C33.8029 18.5475 33.6909 18.6675 33.4668 18.6675C33.2427 18.6675 33.1307 18.5475 33.1307 18.4875V16.8683ZM19.2944 15.0691C19.2944 14.6493 19.5185 14.2894 19.7986 14.2894H31.6742C31.9543 14.2894 32.1784 14.6493 32.1784 15.0691V21.3063H19.2944V15.0691ZM18.4541 18.4875C18.4541 18.5475 18.2861 18.6675 18.062 18.6675C17.7819 18.6675 17.6699 18.5475 17.6699 18.4875V16.8683C17.6699 16.8083 17.838 16.6883 18.062 16.6883C18.3421 16.6883 18.4541 16.8083 18.4541 16.8683V18.4875Z" fill="white"/>
<path d="M34.0271 26.8838H33.691H17.782H17.2218C17.1658 26.8838 17.1098 26.8838 17.0538 26.8838C16.6056 26.9438 16.2695 27.3636 16.2695 27.9033V28.3831C16.2695 28.8629 16.6056 29.2827 17.0538 29.4027C17.1098 29.4027 17.1658 29.4027 17.2218 29.4027H17.838H19.4065H20.1347H31.3943H32.1225H33.691H34.0271C34.1951 29.4027 34.3072 29.3427 34.4752 29.2827C34.8113 29.1028 34.9794 28.8029 34.9794 28.3831V27.9033C34.9794 27.4835 34.7553 27.1837 34.4752 27.0037C34.3072 26.9438 34.1951 26.8838 34.0271 26.8838ZM34.4192 28.3831C34.4192 28.623 34.2512 28.8029 34.0271 28.8029H17.2218C16.9978 28.8029 16.8297 28.623 16.8297 28.3831V27.9033C16.8297 27.6634 16.9978 27.4835 17.2218 27.4835H34.0271C34.2512 27.4835 34.4192 27.6634 34.4192 27.9033V28.3831Z" fill="white"/>
<path d="M30.8344 15.4287H21.0873C20.6392 15.4287 20.2471 15.8485 20.2471 16.3283V19.3869C20.2471 19.8667 20.6392 20.2865 21.0873 20.2865H30.8344C31.2825 20.2865 31.6747 19.8667 31.6747 19.3869V16.3283C31.6747 15.8485 31.2825 15.4287 30.8344 15.4287ZM31.2825 19.3869C31.2825 19.6868 31.0585 19.8667 30.8344 19.8667H21.0873C20.8072 19.8667 20.6392 19.6268 20.6392 19.3869V16.3283C20.6392 16.0284 20.8633 15.8485 21.0873 15.8485H30.8344C31.1145 15.8485 31.2825 16.0884 31.2825 16.3283V19.3869Z" fill="white"/>
<path d="M21.0313 23.3457C20.4711 23.3457 20.0229 23.8255 20.0229 24.4253C20.0229 25.0251 20.4711 25.5049 21.0313 25.5049C21.5914 25.5049 22.0396 25.0251 22.0396 24.4253C22.0956 23.8255 21.6475 23.3457 21.0313 23.3457ZM21.0313 25.145C20.6391 25.145 20.3591 24.8451 20.3591 24.4253C20.3591 24.0055 20.6391 23.7056 21.0313 23.7056C21.4234 23.7056 21.7035 24.0055 21.7035 24.4253C21.7035 24.8451 21.4234 25.145 21.0313 25.145Z" fill="white"/>
<path d="M30.7778 23.3457C30.2177 23.3457 29.7695 23.8255 29.7695 24.4253C29.7695 25.0251 30.2177 25.5049 30.7778 25.5049C31.338 25.5049 31.7862 25.0251 31.7862 24.4253C31.8422 23.8255 31.394 23.3457 30.7778 23.3457ZM30.7778 25.145C30.3857 25.145 30.1056 24.8451 30.1056 24.4253C30.1056 24.0055 30.3857 23.7056 30.7778 23.7056C31.17 23.7056 31.4501 24.0055 31.4501 24.4253C31.4501 24.8451 31.17 25.145 30.7778 25.145Z" fill="white"/>
</svg>
