<svg width="62" height="62" viewBox="0 0 62 62" fill="none" xmlns="http://www.w3.org/2000/svg">
<g clip-path="url(#clip0)">
<path d="M61.1173 16.2808C61.1172 16.2808 61.1172 16.2808 61.1171 16.2808L61.115 16.2787L57.1131 15.7078C56.5506 15.6277 56.1596 15.1067 56.2397 14.5442C56.2781 14.2739 56.4225 14.0301 56.6409 13.8663L59.8753 11.4404C60.3299 11.0995 60.422 10.4548 60.0811 10.0002L56.3775 5.06208C56.0366 4.6075 55.3918 4.51542 54.9373 4.85633L51.7038 7.28217C51.2512 7.62565 50.6059 7.53717 50.2624 7.08451C50.0956 6.86474 50.0241 6.5871 50.064 6.3141L50.636 2.31219C50.7166 1.74971 50.3261 1.22851 49.7637 1.14775C49.7633 1.14775 49.7629 1.14762 49.7625 1.14762L43.6558 0.275226C43.0934 0.194468 42.572 0.584885 42.4912 1.14736C42.4912 1.14749 42.4912 1.14749 42.4912 1.14762L41.9192 5.14953C41.8391 5.71201 41.3182 6.10307 40.7557 6.02295C40.4854 5.9845 40.2416 5.84009 40.0777 5.62173L37.6529 2.38729C37.312 1.9327 36.6672 1.84063 36.2126 2.18153L33.1212 4.50141C31.7226 4.35275 30.3121 4.35275 28.9135 4.50141C19.7542 5.54831 12.5714 12.8528 11.6786 22.0285C11.6508 22.3197 11.6405 22.6088 11.6261 22.8978H11.3175C10.8293 22.8987 10.4089 23.2426 10.3113 23.7209L9.60047 27.1014L6.75284 25.1375C6.34416 24.8555 5.79222 24.9057 5.44116 25.2568L2.35485 28.3431C2.0043 28.694 1.95415 29.2452 2.23552 29.6538L4.19018 32.4962L0.808614 33.2071C0.335638 33.3108 -0.00102642 33.7301 2.35129e-06 34.2143V38.3294C-0.000254841 38.816 0.340653 39.2362 0.816844 39.3365L4.19841 40.0474L2.24375 42.8899C1.96238 43.2984 2.01253 43.8496 2.36308 44.2005L5.44939 47.2868C5.80045 47.6379 6.35239 47.6882 6.76107 47.4062L9.60355 45.4464L10.3144 48.8279C10.412 49.3062 10.8324 49.6501 11.3206 49.651H15.4356C15.9222 49.6512 16.3425 49.3103 16.4428 48.8341L17.1537 45.4526L19.9962 47.4072C20.4047 47.6886 20.9559 47.6384 21.3068 47.2879L22.9045 45.6851V48.617C22.9091 50.0806 23.6932 51.4307 24.962 52.1601V57.876C24.962 60.1486 26.8044 61.991 29.0771 61.991H33.1922C35.4649 61.991 37.3073 60.1486 37.3073 57.876V52.1601C38.5761 51.4307 39.3602 50.0806 39.3648 48.617V44.5452C39.3927 42.8319 40.289 41.2502 41.7443 40.3457C42.5981 39.7919 43.4077 39.1727 44.166 38.494L42.7937 36.9611C42.1153 37.5691 41.3906 38.1232 40.6261 38.6184C38.5833 39.9006 37.3328 42.1335 37.3073 44.5452V48.617C37.3073 49.7534 36.3861 50.6746 35.2497 50.6746H27.0196C25.8832 50.6746 24.962 49.7534 24.962 48.617V44.4598C24.9382 42.0938 23.7074 39.9039 21.6988 38.6534C13.5449 33.5299 11.0882 22.7665 16.2117 14.6127C19.3906 9.55356 24.9385 6.47433 30.9135 6.45298C30.8982 6.48963 30.8847 6.52705 30.8733 6.56511C30.8351 6.83517 30.9059 7.10946 31.0698 7.32743L33.4946 10.5609C33.7503 10.8917 33.7748 11.3462 33.5564 11.7028C33.346 12.0616 32.9392 12.2573 32.5276 12.1976L28.5257 11.6256C27.9632 11.545 27.442 11.9355 27.3612 12.4979C27.3612 12.4983 27.3611 12.4987 27.3611 12.499L26.4877 18.6089C26.4071 19.1713 26.7976 19.6926 27.36 19.7733C27.3603 19.7733 27.3607 19.7735 27.3611 19.7735L31.363 20.3455C31.9255 20.4256 32.3166 20.9465 32.2365 21.509C32.198 21.7793 32.0536 22.0231 31.8352 22.187L28.6018 24.6118C28.1472 24.9527 28.0552 25.5975 28.3961 26.052L32.0996 30.9901C32.4405 31.4447 33.0853 31.5368 33.5399 31.1959L36.7743 28.7711C37.2293 28.4308 37.8741 28.5238 38.2144 28.9789C38.3772 29.1966 38.4473 29.47 38.4091 29.7391L37.8381 33.7411C37.7573 34.3034 38.1478 34.8249 38.7102 34.9056C38.7104 34.9056 38.7104 34.9056 38.7105 34.9056L44.8214 35.779C44.8695 35.7852 44.9179 35.7883 44.9664 35.7883C45.4786 35.7889 45.9132 35.4127 45.9859 34.9056L46.5569 30.9037C46.637 30.3412 47.158 29.9502 47.7204 30.0303C47.9908 30.0687 48.2346 30.2132 48.3984 30.4315L50.8242 33.6649C51.1651 34.1195 51.8099 34.2116 52.2645 33.8707L57.2026 30.1671C57.6572 29.8262 57.7493 29.1814 57.4084 28.7268L54.9835 25.4934C54.7291 25.162 54.7045 24.7083 54.9218 24.3515C55.1277 23.9879 55.5382 23.7909 55.9506 23.8577L59.9525 24.4286C60.5149 24.5094 61.0363 24.1189 61.1171 23.5565C61.1171 23.5564 61.1171 23.5564 61.1171 23.5562L61.9895 17.4454C62.0702 16.8829 61.6798 16.3616 61.1173 16.2808ZM27.0196 52.7321H35.2497V54.7897H27.0196V52.7321ZM27.0196 56.8472H35.2497V57.876C35.2497 59.0124 34.3286 59.9335 33.1922 59.9335H29.0771C27.9407 59.9335 27.0196 59.0124 27.0196 57.876V56.8472ZM18.8295 39.1061C19.3913 39.5654 19.9782 39.9931 20.5877 40.3869C21.5598 41.0012 22.2915 41.9306 22.6607 43.0195L20.454 45.2221L18.3172 43.7489C17.3816 43.1041 16.1004 43.34 15.4554 44.2756C15.3009 44.5 15.1923 44.7529 15.1363 45.0194L14.5972 47.5883H12.1518L11.6127 45.0236C11.3787 43.9116 10.2876 43.1998 9.17558 43.4339C8.90901 43.4899 8.65619 43.5985 8.43179 43.753L6.29401 45.2221L4.41959 43.3518L5.89176 41.2161C6.53718 40.2808 6.30211 38.9995 5.36683 38.3541C5.1423 38.1991 4.88922 38.0903 4.62226 38.0341L2.05754 37.494V35.0496L4.62226 34.5095C5.73384 34.2738 6.44395 33.1817 6.20823 32.07C6.15229 31.8062 6.04517 31.5561 5.89279 31.3337L4.41959 29.1918L6.29401 27.3215L8.43281 28.7947C9.36887 29.4389 10.6501 29.2023 11.2942 28.2662C11.4485 28.0421 11.5568 27.7895 11.6127 27.5232L11.7928 26.6672C11.9576 27.8526 12.2306 29.0203 12.6086 30.1558C9.22355 30.5593 6.80659 33.6307 7.21012 37.0158C7.61366 40.4008 10.685 42.8177 14.0701 42.4142C16.1078 42.1712 17.8916 40.9314 18.8295 39.1061ZM17.2319 37.6565C16.4636 39.7919 14.1099 40.9001 11.9746 40.132C9.83927 39.3638 8.73103 37.0101 9.49913 34.8748C10.0868 33.2412 11.6378 32.1532 13.3739 32.1568C13.3872 32.1568 13.3996 32.1568 13.413 32.1568C14.359 34.1967 15.651 36.0573 17.2319 37.6565ZM59.22 22.2435L56.2366 21.8176C54.5492 21.5766 52.9859 22.7493 52.7449 24.4366C52.6292 25.2469 52.8401 26.07 53.3313 26.7249L55.1389 29.1353L51.8468 31.6043L50.0383 29.1949C49.0157 27.8312 47.0812 27.5546 45.7176 28.5772C45.0628 29.0681 44.6298 29.7992 44.5138 30.6095L44.0971 33.597L40.0242 33.0147L40.4501 30.0313C40.6918 28.344 39.5197 26.7803 37.8324 26.5388C37.0216 26.4227 36.1981 26.6336 35.5429 27.125L33.1325 28.9326L30.6635 25.6405L33.0728 23.832C34.4366 22.8094 34.7132 20.8749 33.6906 19.5113C33.1996 18.8565 32.4686 18.4235 31.6583 18.3075L28.6749 17.8816L29.2571 13.8087L32.2406 14.2346C33.9279 14.4762 35.4916 13.3042 35.7331 11.6169C35.8492 10.8061 35.6383 9.98255 35.1468 9.32736L33.3331 6.9149L36.6252 4.44585L38.4338 6.85626C39.4564 8.22002 41.3908 8.49663 42.7545 7.47403C43.4093 6.98305 43.8422 6.25198 43.9582 5.4417L44.3842 2.45827L48.457 3.03953L48.0311 6.02295C47.7901 7.71039 48.9627 9.2736 50.6501 9.51459C51.4604 9.63033 52.2835 9.41943 52.9384 8.92819L55.3488 7.12065L57.8178 10.4127L55.4074 12.2213C54.0436 13.2439 53.767 15.1783 54.7896 16.542C55.2806 17.1968 56.0117 17.6298 56.822 17.7458L59.8054 18.1717L59.22 22.2435Z" fill="#4781DC"/>
<path d="M44.237 9.79492C39.6916 9.79492 36.0068 13.4797 36.0068 18.0251C36.0068 22.5704 39.6916 26.2552 44.237 26.2552C48.7823 26.2552 52.4671 22.5704 52.4671 18.0251C52.462 13.4818 48.7803 9.79994 44.237 9.79492ZM44.237 24.1977C40.8279 24.1977 38.0644 21.4341 38.0644 18.0251C38.0644 14.616 40.8279 11.8525 44.237 11.8525C47.6461 11.8525 50.4096 14.616 50.4096 18.0251C50.4056 21.4325 47.6444 24.1937 44.237 24.1977Z" fill="#4781DC"/>
<path d="M32.1635 45.5312H30.106V48.6176H32.1635V45.5312Z" fill="#4781DC"/>
<path d="M26.6348 35.4266C20.284 32.9458 17.1469 25.7863 19.628 19.4356C20.5893 16.9748 22.3147 14.8873 24.5505 13.4799L23.4507 11.7393C16.7205 15.9792 14.7017 24.8722 18.9416 31.6024C20.5837 34.209 23.0183 36.2203 25.8879 37.3412C28.4279 38.3144 30.1052 40.7526 30.1058 43.4726H32.1634C32.1666 39.9038 29.9673 36.7032 26.6348 35.4266Z" fill="#4781DC"/>
<path d="M57.883 38.3291H50.6816V40.3866H57.883V38.3291Z" fill="#4781DC"/>
<path d="M50.3112 43.7112L48.9941 45.292L55.1672 50.435L56.4842 48.8542L50.3112 43.7112Z" fill="#4781DC"/>
<path d="M46.5663 46.5596H44.5088V53.7609H46.5663V46.5596Z" fill="#4781DC"/>
<path d="M9.28035 15.727L1.05078 17.7842L1.54948 19.7792L9.77906 17.722L9.28035 15.727Z" fill="#4781DC"/>
<path d="M3.95452 5.60201L2.75928 7.27539L9.96008 12.4187L11.1553 10.7453L3.95452 5.60201Z" fill="#4781DC"/>
<path d="M13.5676 0.00890311L11.5742 0.518555L13.6783 8.74806L15.6717 8.23841L13.5676 0.00890311Z" fill="#4781DC"/>
</g>
<defs>
<clipPath id="clip0">
<rect width="62" height="62" fill="white"/>
</clipPath>
</defs>
</svg>
