<svg width="21" height="21" viewBox="0 0 21 21" fill="none" xmlns="http://www.w3.org/2000/svg">
<path d="M16.1346 3.77788C15.4477 3.77788 14.9325 4.29304 14.9325 4.97993C14.9325 5.66682 15.4477 6.18198 16.1346 6.18198C16.8215 6.18198 17.3367 5.66682 17.3367 4.97993C17.3367 4.35028 16.7642 3.77788 16.1346 3.77788ZM10.754 5.32337C7.9492 5.32337 5.71683 7.613 5.71683 10.3605C5.71683 13.1081 8.00644 15.3977 10.754 15.3977C13.5588 15.3977 15.7912 13.1081 15.7912 10.3605C15.7912 7.613 13.5588 5.32337 10.754 5.32337ZM10.754 13.6805C8.97953 13.6805 7.49127 12.2495 7.49127 10.4178C7.49127 8.64333 8.92229 7.15507 10.754 7.15507C12.5284 7.15507 14.0167 8.58609 14.0167 10.4178C14.0167 12.1922 12.5284 13.6805 10.754 13.6805ZM21 6.18198C21 2.74755 18.2525 0 14.8181 0H6.68991C3.25547 0 0.507935 2.74755 0.507935 6.18198V14.3101C0.507935 17.7446 3.25547 20.4921 6.68991 20.4921H14.8181C18.2525 20.4921 21 17.7446 21 14.3101V6.18198ZM19.0539 14.3674C19.0539 16.7142 17.1649 18.6032 14.8181 18.6032H6.68991C4.34304 18.6032 2.45411 16.7142 2.45411 14.3674V6.18198C2.45411 3.83512 4.34304 1.94618 6.68991 1.94618H14.8181C17.1649 1.94618 19.0539 3.83512 19.0539 6.18198V14.3674Z" fill="#828282"/>
</svg>
