<svg width="25" height="25" viewBox="0 0 25 25" fill="none" xmlns="http://www.w3.org/2000/svg">
<path d="M18.9117 4.57207C18.0804 4.57207 17.457 5.19553 17.457 6.02682C17.457 6.8581 18.0804 7.48156 18.9117 7.48156C19.743 7.48156 20.3665 6.8581 20.3665 6.02682C20.3665 5.2648 19.6737 4.57207 18.9117 4.57207ZM12.4 6.44246C9.00558 6.44246 6.30391 9.21341 6.30391 12.5385C6.30391 15.8637 9.07486 18.6346 12.4 18.6346C15.7944 18.6346 18.4961 15.8637 18.4961 12.5385C18.4961 9.21341 15.7944 6.44246 12.4 6.44246ZM12.4 16.5564C10.2525 16.5564 8.45138 14.8246 8.45138 12.6078C8.45138 10.4603 10.1832 8.65922 12.4 8.65922C14.5475 8.65922 16.3486 10.3911 16.3486 12.6078C16.3486 14.7553 14.5475 16.5564 12.4 16.5564ZM24.8 7.48156C24.8 3.32514 21.4749 0 17.3184 0H7.48156C3.32513 0 0 3.32514 0 7.48156V17.3184C0 21.4749 3.32513 24.8 7.48156 24.8H17.3184C21.4749 24.8 24.8 21.4749 24.8 17.3184V7.48156ZM22.4447 17.3877C22.4447 20.2279 20.1587 22.514 17.3184 22.514H7.48156C4.64133 22.514 2.3553 20.2279 2.3553 17.3877V7.48156C2.3553 4.64134 4.64133 2.35531 7.48156 2.35531H17.3184C20.1587 2.35531 22.4447 4.64134 22.4447 7.48156V17.3877Z" fill="#FF6E78"/>
</svg>
