<svg width="26" height="75" viewBox="0 0 26 75" fill="none" xmlns="http://www.w3.org/2000/svg">
<g opacity="0.2">
<circle cx="24.5" cy="1.5" r="1.5" transform="rotate(90 24.5 1.5)" fill="#343434"/>
<circle cx="8.5" cy="1.5" r="1.5" transform="rotate(90 8.5 1.5)" fill="#343434"/>
<circle cx="16.5" cy="1.5" r="1.5" transform="rotate(90 16.5 1.5)" fill="#343434"/>
<circle cx="0.5" cy="1.5" r="1.5" transform="rotate(90 0.5 1.5)" fill="#343434"/>
<circle cx="24.5" cy="33.5" r="1.5" transform="rotate(90 24.5 33.5)" fill="#343434"/>
<circle cx="8.5" cy="33.5" r="1.5" transform="rotate(90 8.5 33.5)" fill="#343434"/>
<circle cx="16.5" cy="33.5" r="1.5" transform="rotate(90 16.5 33.5)" fill="#343434"/>
<circle cx="0.5" cy="33.5" r="1.5" transform="rotate(90 0.5 33.5)" fill="#343434"/>
<circle cx="24.5" cy="17.5" r="1.5" transform="rotate(90 24.5 17.5)" fill="#343434"/>
<circle cx="8.5" cy="17.5" r="1.5" transform="rotate(90 8.5 17.5)" fill="#343434"/>
<circle cx="16.5" cy="17.5" r="1.5" transform="rotate(90 16.5 17.5)" fill="#343434"/>
<circle cx="0.5" cy="17.5" r="1.5" transform="rotate(90 0.5 17.5)" fill="#343434"/>
<circle cx="24.5" cy="49.5" r="1.5" transform="rotate(90 24.5 49.5)" fill="#343434"/>
<circle cx="8.5" cy="49.5" r="1.5" transform="rotate(90 8.5 49.5)" fill="#343434"/>
<circle cx="16.5" cy="49.5" r="1.5" transform="rotate(90 16.5 49.5)" fill="#343434"/>
<circle cx="0.5" cy="49.5" r="1.5" transform="rotate(90 0.5 49.5)" fill="#343434"/>
<circle cx="24.5" cy="65.5" r="1.5" transform="rotate(90 24.5 65.5)" fill="#343434"/>
<circle cx="8.5" cy="65.5" r="1.5" transform="rotate(90 8.5 65.5)" fill="#343434"/>
<circle cx="16.5" cy="65.5" r="1.5" transform="rotate(90 16.5 65.5)" fill="#343434"/>
<circle cx="0.5" cy="65.5" r="1.5" transform="rotate(90 0.5 65.5)" fill="#343434"/>
<circle cx="24.5" cy="9.5" r="1.5" transform="rotate(90 24.5 9.5)" fill="#343434"/>
<circle cx="8.5" cy="9.5" r="1.5" transform="rotate(90 8.5 9.5)" fill="#343434"/>
<circle cx="0.5" cy="9.5" r="1.5" transform="rotate(90 0.5 9.5)" fill="#343434"/>
<circle cx="24.5" cy="41.5" r="1.5" transform="rotate(90 24.5 41.5)" fill="#343434"/>
<circle cx="8.5" cy="41.5" r="1.5" transform="rotate(90 8.5 41.5)" fill="#343434"/>
<circle cx="16.5" cy="41.5" r="1.5" transform="rotate(90 16.5 41.5)" fill="#343434"/>
<circle cx="0.5" cy="41.5" r="1.5" transform="rotate(90 0.5 41.5)" fill="#343434"/>
<circle cx="24.5" cy="25.5" r="1.5" transform="rotate(90 24.5 25.5)" fill="#343434"/>
<circle cx="8.5" cy="25.5" r="1.5" transform="rotate(90 8.5 25.5)" fill="#343434"/>
<circle cx="16.5" cy="25.5" r="1.5" transform="rotate(90 16.5 25.5)" fill="#343434"/>
<circle cx="0.5" cy="25.5" r="1.5" transform="rotate(90 0.5 25.5)" fill="#343434"/>
<circle cx="24.5" cy="57.5" r="1.5" transform="rotate(90 24.5 57.5)" fill="#343434"/>
<circle cx="16.5" cy="57.5" r="1.5" transform="rotate(90 16.5 57.5)" fill="#343434"/>
<circle cx="0.5" cy="57.5" r="1.5" transform="rotate(90 0.5 57.5)" fill="#343434"/>
<circle cx="24.5" cy="73.5" r="1.5" transform="rotate(90 24.5 73.5)" fill="#343434"/>
<circle cx="8.5" cy="73.5" r="1.5" transform="rotate(90 8.5 73.5)" fill="#343434"/>
<circle cx="16.5" cy="73.5" r="1.5" transform="rotate(90 16.5 73.5)" fill="#343434"/>
<circle cx="0.5" cy="73.5" r="1.5" transform="rotate(90 0.5 73.5)" fill="#343434"/>
</g>
</svg>
