<svg width="51" height="51" viewBox="0 0 51 51" fill="none" xmlns="http://www.w3.org/2000/svg">
<rect width="51" height="51" fill="#E5E5E5"/>
<g clip-path="url(#clip0)">
<rect x="-700" y="-1633" width="1440" height="5777" fill="white"/>
<rect x="-700" y="-732" width="1440" height="1138" fill="#F3F3F3"/>
<rect x="-145" y="-51" width="339" height="395" rx="7.52399" fill="white"/>
<circle cx="25.097" cy="25.097" r="25.097" fill="#8DAFE9"/>
<g clip-path="url(#clip1)">
<path d="M18.8401 24.3019C18.6986 25.0917 18.7045 25.8874 18.8401 26.6595V35.6714C18.7988 35.6478 18.7575 35.6183 18.7222 35.5889C14.1403 32.524 12.1826 26.683 14.0224 21.4551L18.9403 23.8245C18.8991 23.9836 18.8637 24.1427 18.8401 24.3019Z" fill="white"/>
<path d="M36.4423 30.7734C33.7297 36.3903 27.2314 38.9837 21.4761 36.9679C21.4348 36.9561 21.3935 36.9385 21.3582 36.9267V30.8323C21.3994 30.8618 21.4348 30.8912 21.4761 30.9207C21.8063 31.1683 22.166 31.3804 22.5493 31.569C25.9046 33.1899 29.9499 31.7753 31.5715 28.4217C32.3204 26.8774 32.397 25.1917 31.9607 23.6593L36.8256 21.1426C37.9873 24.1662 37.9578 27.6319 36.4423 30.7734Z" fill="white"/>
<path d="M28.4281 19.4039C29.3598 19.8518 30.1205 20.5002 30.7279 21.2546L35.5869 18.7379C34.4193 16.9874 32.8035 15.5139 30.775 14.5355C25.1494 11.8242 18.4388 13.8518 15.1956 19.0208L20.1135 21.3961C22.0182 18.897 25.4856 17.9893 28.4281 19.4039Z" fill="white"/>
<path d="M29.1415 27.2477C30.1153 25.2307 29.2688 22.8067 27.2509 21.8334C25.233 20.86 22.8078 21.7061 21.834 23.723C20.8602 25.7399 21.7066 28.164 23.7246 29.1373C25.7425 30.1106 28.1677 29.2646 29.1415 27.2477Z" fill="white"/>
<path d="M18.8396 23.8245V35.6655C18.7983 35.6419 18.7571 35.6124 18.7217 35.583V23.8245H18.8396Z" fill="white"/>
</g>
</g>
<defs>
<clipPath id="clip0">
<rect x="-700" y="-1633" width="1440" height="5777" fill="white"/>
</clipPath>
<clipPath id="clip1">
<rect width="24.3127" height="24.3127" fill="white" transform="translate(13.332 13.3333)"/>
</clipPath>
</defs>
</svg>
