<svg width="28" height="23" viewBox="0 0 28 23" fill="none" xmlns="http://www.w3.org/2000/svg">
<g clip-path="url(#clip0)">
<path fill-rule="evenodd" clip-rule="evenodd" d="M14.1096 5.79095L9.81895 17.3371H5.13097L7.90311 9.88194C5.48035 9.38585 0.913391 7.97373 0 5.53714C3.70152 7.11308 8.31186 5.91785 12.8765 4.48266C13.0563 4.41263 13.2525 4.39823 13.4404 4.44129C13.6282 4.48435 13.7992 4.58292 13.9314 4.72445C14.0636 4.86598 14.1512 5.04407 14.1829 5.23605C14.2146 5.42803 14.1891 5.62521 14.1096 5.80248V5.79095Z" fill="#343434"/>
<path fill-rule="evenodd" clip-rule="evenodd" d="M21.0079 3.58485L15.8929 17.3369H11.2163L16.4226 3.34027L19.7748 2.26733C19.9543 2.19769 20.1501 2.18348 20.3376 2.2265C20.5251 2.26952 20.6957 2.36784 20.8278 2.50898C20.9599 2.65012 21.0475 2.82773 21.0796 3.01927C21.1116 3.21082 21.0867 3.40766 21.0079 3.58485Z" fill="#343434"/>
<path fill-rule="evenodd" clip-rule="evenodd" d="M27.92 1.38391C26.4449 5.33877 24.2665 11.1788 23.0996 14.2914C22.3438 16.3288 20.1813 21.1605 22.9443 23.0064C16.7927 22.4272 16.6283 19.1692 17.206 17.5356L23.328 1.1301L26.6801 0.0594718C26.8602 -0.0100861 27.0564 -0.0253094 27.2449 0.0156506C27.4334 0.0566105 27.6061 0.151992 27.7419 0.29021C27.8751 0.434386 27.9631 0.615182 27.9948 0.809814C28.0265 1.00444 28.0005 1.2042 27.92 1.38391Z" fill="#343434"/>
</g>
<defs>
<clipPath id="clip0">
<rect width="28" height="23" fill="white"/>
</clipPath>
</defs>
</svg>
