<svg width="130" height="75" viewBox="0 0 130 75" fill="none" xmlns="http://www.w3.org/2000/svg">
<circle cx="128.5" cy="1.5" r="1.5" transform="rotate(90 128.5 1.5)" fill="#343434"/>
<circle cx="57.5" cy="1.5" r="1.5" transform="rotate(90 57.5 1.5)" fill="#343434"/>
<circle cx="96.5" cy="1.5" r="1.5" transform="rotate(90 96.5 1.5)" fill="#343434"/>
<circle cx="25.5" cy="1.5" r="1.5" transform="rotate(90 25.5 1.5)" fill="#343434"/>
<circle cx="112.5" cy="1.5" r="1.5" transform="rotate(90 112.5 1.5)" fill="#343434"/>
<circle cx="41.5" cy="1.5" r="1.5" transform="rotate(90 41.5 1.5)" fill="#343434"/>
<circle cx="80.5" cy="1.5" r="1.5" transform="rotate(90 80.5 1.5)" fill="#343434"/>
<circle cx="9.5" cy="1.5" r="1.5" transform="rotate(90 9.5 1.5)" fill="#343434"/>
<circle cx="120.5" cy="1.5" r="1.5" transform="rotate(90 120.5 1.5)" fill="#343434"/>
<circle cx="49.5" cy="1.5" r="1.5" transform="rotate(90 49.5 1.5)" fill="#343434"/>
<circle cx="88.5" cy="1.5" r="1.5" transform="rotate(90 88.5 1.5)" fill="#343434"/>
<circle cx="17.5" cy="1.5" r="1.5" transform="rotate(90 17.5 1.5)" fill="#343434"/>
<circle cx="104.5" cy="1.5" r="1.5" transform="rotate(90 104.5 1.5)" fill="#343434"/>
<circle cx="33.5" cy="1.5" r="1.5" transform="rotate(90 33.5 1.5)" fill="#343434"/>
<circle cx="72.5" cy="1.5" r="1.5" transform="rotate(90 72.5 1.5)" fill="#343434"/>
<circle cx="1.5" cy="1.5" r="1.5" transform="rotate(90 1.5 1.5)" fill="#343434"/>
<circle cx="128.5" cy="33.5" r="1.5" transform="rotate(90 128.5 33.5)" fill="#343434"/>
<circle cx="57.5" cy="33.5" r="1.5" transform="rotate(90 57.5 33.5)" fill="#343434"/>
<circle cx="96.5" cy="33.5" r="1.5" transform="rotate(90 96.5 33.5)" fill="#343434"/>
<circle cx="25.5" cy="33.5" r="1.5" transform="rotate(90 25.5 33.5)" fill="#343434"/>
<circle cx="112.5" cy="33.5" r="1.5" transform="rotate(90 112.5 33.5)" fill="#343434"/>
<circle cx="80.5" cy="33.5" r="1.5" transform="rotate(90 80.5 33.5)" fill="#343434"/>
<circle cx="9.5" cy="33.5" r="1.5" transform="rotate(90 9.5 33.5)" fill="#343434"/>
<circle cx="120.5" cy="33.5" r="1.5" transform="rotate(90 120.5 33.5)" fill="#343434"/>
<circle cx="49.5" cy="33.5" r="1.5" transform="rotate(90 49.5 33.5)" fill="#343434"/>
<circle cx="88.5" cy="33.5" r="1.5" transform="rotate(90 88.5 33.5)" fill="#343434"/>
<circle cx="17.5" cy="33.5" r="1.5" transform="rotate(90 17.5 33.5)" fill="#343434"/>
<circle cx="104.5" cy="33.5" r="1.5" transform="rotate(90 104.5 33.5)" fill="#343434"/>
<circle cx="33.5" cy="33.5" r="1.5" transform="rotate(90 33.5 33.5)" fill="#343434"/>
<circle cx="72.5" cy="33.5" r="1.5" transform="rotate(90 72.5 33.5)" fill="#343434"/>
<circle cx="1.5" cy="33.5" r="1.5" transform="rotate(90 1.5 33.5)" fill="#343434"/>
<circle cx="128.5" cy="17.5" r="1.5" transform="rotate(90 128.5 17.5)" fill="#343434"/>
<circle cx="57.5" cy="17.5" r="1.5" transform="rotate(90 57.5 17.5)" fill="#343434"/>
<circle cx="96.5" cy="17.5" r="1.5" transform="rotate(90 96.5 17.5)" fill="#343434"/>
<circle cx="25.5" cy="17.5" r="1.5" transform="rotate(90 25.5 17.5)" fill="#343434"/>
<circle cx="112.5" cy="17.5" r="1.5" transform="rotate(90 112.5 17.5)" fill="#343434"/>
<circle cx="41.5" cy="17.5" r="1.5" transform="rotate(90 41.5 17.5)" fill="#343434"/>
<circle cx="80.5" cy="17.5" r="1.5" transform="rotate(90 80.5 17.5)" fill="#343434"/>
<circle cx="120.5" cy="17.5" r="1.5" transform="rotate(90 120.5 17.5)" fill="#343434"/>
<circle cx="49.5" cy="17.5" r="1.5" transform="rotate(90 49.5 17.5)" fill="#343434"/>
<circle cx="88.5" cy="17.5" r="1.5" transform="rotate(90 88.5 17.5)" fill="#343434"/>
<circle cx="17.5" cy="17.5" r="1.5" transform="rotate(90 17.5 17.5)" fill="#343434"/>
<circle cx="104.5" cy="17.5" r="1.5" transform="rotate(90 104.5 17.5)" fill="#343434"/>
<circle cx="33.5" cy="17.5" r="1.5" transform="rotate(90 33.5 17.5)" fill="#343434"/>
<circle cx="72.5" cy="17.5" r="1.5" transform="rotate(90 72.5 17.5)" fill="#343434"/>
<circle cx="1.5" cy="17.5" r="1.5" transform="rotate(90 1.5 17.5)" fill="#343434"/>
<circle cx="128.5" cy="49.5" r="1.5" transform="rotate(90 128.5 49.5)" fill="#343434"/>
<circle cx="57.5" cy="49.5" r="1.5" transform="rotate(90 57.5 49.5)" fill="#343434"/>
<circle cx="96.5" cy="49.5" r="1.5" transform="rotate(90 96.5 49.5)" fill="#343434"/>
<circle cx="25.5" cy="49.5" r="1.5" transform="rotate(90 25.5 49.5)" fill="#343434"/>
<circle cx="112.5" cy="49.5" r="1.5" transform="rotate(90 112.5 49.5)" fill="#343434"/>
<circle cx="41.5" cy="49.5" r="1.5" transform="rotate(90 41.5 49.5)" fill="#343434"/>
<circle cx="80.5" cy="49.5" r="1.5" transform="rotate(90 80.5 49.5)" fill="#343434"/>
<circle cx="9.5" cy="49.5" r="1.5" transform="rotate(90 9.5 49.5)" fill="#343434"/>
<circle cx="120.5" cy="49.5" r="1.5" transform="rotate(90 120.5 49.5)" fill="#343434"/>
<circle cx="49.5" cy="49.5" r="1.5" transform="rotate(90 49.5 49.5)" fill="#343434"/>
<circle cx="88.5" cy="49.5" r="1.5" transform="rotate(90 88.5 49.5)" fill="#343434"/>
<circle cx="17.5" cy="49.5" r="1.5" transform="rotate(90 17.5 49.5)" fill="#343434"/>
<circle cx="104.5" cy="49.5" r="1.5" transform="rotate(90 104.5 49.5)" fill="#343434"/>
<circle cx="33.5" cy="49.5" r="1.5" transform="rotate(90 33.5 49.5)" fill="#343434"/>
<circle cx="72.5" cy="49.5" r="1.5" transform="rotate(90 72.5 49.5)" fill="#343434"/>
<circle cx="1.5" cy="49.5" r="1.5" transform="rotate(90 1.5 49.5)" fill="#343434"/>
<circle cx="128.5" cy="65.5" r="1.5" transform="rotate(90 128.5 65.5)" fill="#343434"/>
<circle cx="57.5" cy="65.5" r="1.5" transform="rotate(90 57.5 65.5)" fill="#343434"/>
<circle cx="96.5" cy="65.5" r="1.5" transform="rotate(90 96.5 65.5)" fill="#343434"/>
<circle cx="25.5" cy="65.5" r="1.5" transform="rotate(90 25.5 65.5)" fill="#343434"/>
<circle cx="112.5" cy="65.5" r="1.5" transform="rotate(90 112.5 65.5)" fill="#343434"/>
<circle cx="41.5" cy="65.5" r="1.5" transform="rotate(90 41.5 65.5)" fill="#343434"/>
<circle cx="120.5" cy="65.5" r="1.5" transform="rotate(90 120.5 65.5)" fill="#343434"/>
<circle cx="49.5" cy="65.5" r="1.5" transform="rotate(90 49.5 65.5)" fill="#343434"/>
<circle cx="88.5" cy="65.5" r="1.5" transform="rotate(90 88.5 65.5)" fill="#343434"/>
<circle cx="17.5" cy="65.5" r="1.5" transform="rotate(90 17.5 65.5)" fill="#343434"/>
<circle cx="104.5" cy="65.5" r="1.5" transform="rotate(90 104.5 65.5)" fill="#343434"/>
<circle cx="33.5" cy="65.5" r="1.5" transform="rotate(90 33.5 65.5)" fill="#343434"/>
<circle cx="72.5" cy="65.5" r="1.5" transform="rotate(90 72.5 65.5)" fill="#343434"/>
<circle cx="1.5" cy="65.5" r="1.5" transform="rotate(90 1.5 65.5)" fill="#343434"/>
<circle cx="128.5" cy="9.5" r="1.5" transform="rotate(90 128.5 9.5)" fill="#343434"/>
<circle cx="57.5" cy="9.5" r="1.5" transform="rotate(90 57.5 9.5)" fill="#343434"/>
<circle cx="96.5" cy="9.5" r="1.5" transform="rotate(90 96.5 9.5)" fill="#343434"/>
<circle cx="25.5" cy="9.5" r="1.5" transform="rotate(90 25.5 9.5)" fill="#343434"/>
<circle cx="112.5" cy="9.5" r="1.5" transform="rotate(90 112.5 9.5)" fill="#343434"/>
<circle cx="41.5" cy="9.5" r="1.5" transform="rotate(90 41.5 9.5)" fill="#343434"/>
<circle cx="80.5" cy="9.5" r="1.5" transform="rotate(90 80.5 9.5)" fill="#343434"/>
<circle cx="9.5" cy="9.5" r="1.5" transform="rotate(90 9.5 9.5)" fill="#343434"/>
<circle cx="49.5" cy="9.5" r="1.5" transform="rotate(90 49.5 9.5)" fill="#343434"/>
<circle cx="88.5" cy="9.5" r="1.5" transform="rotate(90 88.5 9.5)" fill="#343434"/>
<circle cx="17.5" cy="9.5" r="1.5" transform="rotate(90 17.5 9.5)" fill="#343434"/>
<circle cx="104.5" cy="9.5" r="1.5" transform="rotate(90 104.5 9.5)" fill="#343434"/>
<circle cx="33.5" cy="9.5" r="1.5" transform="rotate(90 33.5 9.5)" fill="#343434"/>
<circle cx="72.5" cy="9.5" r="1.5" transform="rotate(90 72.5 9.5)" fill="#343434"/>
<circle cx="1.5" cy="9.5" r="1.5" transform="rotate(90 1.5 9.5)" fill="#343434"/>
<circle cx="128.5" cy="41.5" r="1.5" transform="rotate(90 128.5 41.5)" fill="#343434"/>
<circle cx="57.5" cy="41.5" r="1.5" transform="rotate(90 57.5 41.5)" fill="#343434"/>
<circle cx="96.5" cy="41.5" r="1.5" transform="rotate(90 96.5 41.5)" fill="#343434"/>
<circle cx="25.5" cy="41.5" r="1.5" transform="rotate(90 25.5 41.5)" fill="#343434"/>
<circle cx="112.5" cy="41.5" r="1.5" transform="rotate(90 112.5 41.5)" fill="#343434"/>
<circle cx="41.5" cy="41.5" r="1.5" transform="rotate(90 41.5 41.5)" fill="#343434"/>
<circle cx="80.5" cy="41.5" r="1.5" transform="rotate(90 80.5 41.5)" fill="#343434"/>
<circle cx="9.5" cy="41.5" r="1.5" transform="rotate(90 9.5 41.5)" fill="#343434"/>
<circle cx="120.5" cy="41.5" r="1.5" transform="rotate(90 120.5 41.5)" fill="#343434"/>
<circle cx="49.5" cy="41.5" r="1.5" transform="rotate(90 49.5 41.5)" fill="#343434"/>
<circle cx="88.5" cy="41.5" r="1.5" transform="rotate(90 88.5 41.5)" fill="#343434"/>
<circle cx="17.5" cy="41.5" r="1.5" transform="rotate(90 17.5 41.5)" fill="#343434"/>
<circle cx="104.5" cy="41.5" r="1.5" transform="rotate(90 104.5 41.5)" fill="#343434"/>
<circle cx="33.5" cy="41.5" r="1.5" transform="rotate(90 33.5 41.5)" fill="#343434"/>
<circle cx="72.5" cy="41.5" r="1.5" transform="rotate(90 72.5 41.5)" fill="#343434"/>
<circle cx="1.5" cy="41.5" r="1.5" transform="rotate(90 1.5 41.5)" fill="#343434"/>
<circle cx="128.5" cy="25.5" r="1.5" transform="rotate(90 128.5 25.5)" fill="#343434"/>
<circle cx="57.5" cy="25.5" r="1.5" transform="rotate(90 57.5 25.5)" fill="#343434"/>
<circle cx="96.5" cy="25.5" r="1.5" transform="rotate(90 96.5 25.5)" fill="#343434"/>
<circle cx="25.5" cy="25.5" r="1.5" transform="rotate(90 25.5 25.5)" fill="#343434"/>
<circle cx="112.5" cy="25.5" r="1.5" transform="rotate(90 112.5 25.5)" fill="#343434"/>
<circle cx="41.5" cy="25.5" r="1.5" transform="rotate(90 41.5 25.5)" fill="#343434"/>
<circle cx="80.5" cy="25.5" r="1.5" transform="rotate(90 80.5 25.5)" fill="#343434"/>
<circle cx="9.5" cy="25.5" r="1.5" transform="rotate(90 9.5 25.5)" fill="#343434"/>
<circle cx="120.5" cy="25.5" r="1.5" transform="rotate(90 120.5 25.5)" fill="#343434"/>
<circle cx="49.5" cy="25.5" r="1.5" transform="rotate(90 49.5 25.5)" fill="#343434"/>
<circle cx="17.5" cy="25.5" r="1.5" transform="rotate(90 17.5 25.5)" fill="#343434"/>
<circle cx="104.5" cy="25.5" r="1.5" transform="rotate(90 104.5 25.5)" fill="#343434"/>
<circle cx="33.5" cy="25.5" r="1.5" transform="rotate(90 33.5 25.5)" fill="#343434"/>
<circle cx="72.5" cy="25.5" r="1.5" transform="rotate(90 72.5 25.5)" fill="#343434"/>
<circle cx="1.5" cy="25.5" r="1.5" transform="rotate(90 1.5 25.5)" fill="#343434"/>
<circle cx="128.5" cy="57.5" r="1.5" transform="rotate(90 128.5 57.5)" fill="#343434"/>
<circle cx="57.5" cy="57.5" r="1.5" transform="rotate(90 57.5 57.5)" fill="#343434"/>
<circle cx="96.5" cy="57.5" r="1.5" transform="rotate(90 96.5 57.5)" fill="#343434"/>
<circle cx="25.5" cy="57.5" r="1.5" transform="rotate(90 25.5 57.5)" fill="#343434"/>
<circle cx="41.5" cy="57.5" r="1.5" transform="rotate(90 41.5 57.5)" fill="#343434"/>
<circle cx="80.5" cy="57.5" r="1.5" transform="rotate(90 80.5 57.5)" fill="#343434"/>
<circle cx="9.5" cy="57.5" r="1.5" transform="rotate(90 9.5 57.5)" fill="#343434"/>
<circle cx="120.5" cy="57.5" r="1.5" transform="rotate(90 120.5 57.5)" fill="#343434"/>
<circle cx="49.5" cy="57.5" r="1.5" transform="rotate(90 49.5 57.5)" fill="#343434"/>
<circle cx="88.5" cy="57.5" r="1.5" transform="rotate(90 88.5 57.5)" fill="#343434"/>
<circle cx="17.5" cy="57.5" r="1.5" transform="rotate(90 17.5 57.5)" fill="#343434"/>
<circle cx="104.5" cy="57.5" r="1.5" transform="rotate(90 104.5 57.5)" fill="#343434"/>
<circle cx="72.5" cy="57.5" r="1.5" transform="rotate(90 72.5 57.5)" fill="#343434"/>
<circle cx="1.5" cy="57.5" r="1.5" transform="rotate(90 1.5 57.5)" fill="#343434"/>
<circle cx="128.5" cy="73.5" r="1.5" transform="rotate(90 128.5 73.5)" fill="#343434"/>
<circle cx="57.5" cy="73.5" r="1.5" transform="rotate(90 57.5 73.5)" fill="#343434"/>
<circle cx="96.5" cy="73.5" r="1.5" transform="rotate(90 96.5 73.5)" fill="#343434"/>
<circle cx="25.5" cy="73.5" r="1.5" transform="rotate(90 25.5 73.5)" fill="#343434"/>
<circle cx="112.5" cy="73.5" r="1.5" transform="rotate(90 112.5 73.5)" fill="#343434"/>
<circle cx="41.5" cy="73.5" r="1.5" transform="rotate(90 41.5 73.5)" fill="#343434"/>
<circle cx="80.5" cy="73.5" r="1.5" transform="rotate(90 80.5 73.5)" fill="#343434"/>
<circle cx="9.5" cy="73.5" r="1.5" transform="rotate(90 9.5 73.5)" fill="#343434"/>
<circle cx="120.5" cy="73.5" r="1.5" transform="rotate(90 120.5 73.5)" fill="#343434"/>
<circle cx="49.5" cy="73.5" r="1.5" transform="rotate(90 49.5 73.5)" fill="#343434"/>
<circle cx="88.5" cy="73.5" r="1.5" transform="rotate(90 88.5 73.5)" fill="#343434"/>
<circle cx="17.5" cy="73.5" r="1.5" transform="rotate(90 17.5 73.5)" fill="#343434"/>
<circle cx="104.5" cy="73.5" r="1.5" transform="rotate(90 104.5 73.5)" fill="#343434"/>
<circle cx="33.5" cy="73.5" r="1.5" transform="rotate(90 33.5 73.5)" fill="#343434"/>
<circle cx="72.5" cy="73.5" r="1.5" transform="rotate(90 72.5 73.5)" fill="#343434"/>
<circle cx="1.5" cy="73.5" r="1.5" transform="rotate(90 1.5 73.5)" fill="#343434"/>
</svg>
