<svg width="22" height="24" viewBox="0 0 22 24" fill="none" xmlns="http://www.w3.org/2000/svg">
<g clip-path="url(#clip0)">
<path fill-rule="evenodd" clip-rule="evenodd" d="M13.8677 7.19066H12.0843C11.8826 7.18872 11.6826 7.22753 11.4963 7.30475C11.31 7.38198 11.1412 7.49603 11 7.64008V8.78145H13.8534C22.5921 8.78145 22.5921 22.0285 13.8534 22.0285H11V23.6265H13.8534C24.6965 23.6265 24.6965 7.2192 13.8534 7.2192L13.8677 7.19066ZM11.0143 21.7075V20.1167H13.8677C20.0811 20.1167 20.0811 10.6933 13.8677 10.6933H11.0143V9.10246H13.8677C22.1855 9.10246 22.1855 21.7075 13.8677 21.7075H11.0143ZM11.0143 16.0006V14.8379H11.4708C11.4749 15.2657 11.311 15.6781 11.0143 15.9864V16.0006ZM11.0143 14.5383V12.9261H13.0545C13.0602 13.1327 13.0246 13.3383 12.9499 13.531C12.8752 13.7237 12.7629 13.8996 12.6194 14.0484C12.4759 14.1972 12.3042 14.3159 12.1144 14.3975C11.9245 14.4792 11.7203 14.5222 11.5136 14.524L11.0143 14.5383ZM11.0143 3.52399V1.9118H13.7964C15.4671 1.91744 17.0678 2.58365 18.2492 3.76505C19.4306 4.94645 20.0968 6.54715 20.1025 8.2179H18.6757L18.4831 8.09663C18.4479 6.87026 17.9368 5.70574 17.0581 4.8496C16.1793 3.99347 15.0018 3.51293 13.775 3.50973L11.0143 3.52399ZM11.0143 1.60506V0H13.7964C15.6832 0.00889133 17.5099 0.664575 18.9717 1.85764C20.4335 3.0507 21.442 4.70898 21.8288 6.55577C21.8733 6.75688 21.8713 6.96547 21.8231 7.16572C21.7749 7.36596 21.6817 7.55259 21.5506 7.71141C21.4133 7.87938 21.2385 8.01273 21.0403 8.10071C20.842 8.18868 20.6258 8.22883 20.4092 8.2179C20.4036 6.46202 19.7035 4.77966 18.4619 3.53806C17.2203 2.29646 15.538 1.59643 13.7821 1.59079L11.0143 1.60506ZM11.0143 7.65435C10.7193 7.96085 10.5555 8.37033 10.5577 8.79572H11.0143V7.65435ZM11.0143 22.0428H8.23217C6.472 22.0428 4.78382 21.3441 3.53853 20.1001C2.29323 18.8562 1.59268 17.1687 1.59079 15.4086C1.37416 15.3976 1.15799 15.4378 0.959732 15.5258C0.76147 15.6137 0.586664 15.7471 0.449417 15.915C0.31841 16.0725 0.225218 16.2579 0.176992 16.457C0.128766 16.6561 0.126787 16.8636 0.171206 17.0636C0.55833 18.9134 1.5686 20.5744 3.03319 21.7689C4.49778 22.9635 6.32796 23.6192 8.2179 23.6265H11V22.0285L11.0143 22.0428ZM11 0V1.59079H8.14656C-0.606356 1.59079 -0.606356 14.8379 8.1323 14.8379H10.9857V15.9864C10.8456 16.1299 10.678 16.2437 10.493 16.3209C10.3079 16.3981 10.1091 16.4372 9.90856 16.4358H8.1323C-2.71077 16.4073 -2.71077 0 8.1323 0H11ZM11 1.9118V3.50973H8.14656C1.9332 3.50973 1.9332 12.9261 8.14656 12.9261H11V14.524H8.14656C-0.171206 14.524 -0.171206 1.9118 8.14656 1.9118H11ZM11 9.10246H10.4864C10.2794 9.10331 10.0747 9.14565 9.88443 9.22697C9.69412 9.30829 9.52205 9.42695 9.3784 9.57593C9.23474 9.7249 9.12242 9.90117 9.04807 10.0943C8.97372 10.2875 8.93885 10.4935 8.94553 10.7004H11V9.10246ZM11 20.1167V21.7075H8.2179C6.54781 21.7038 4.94709 21.0391 3.76549 19.8589C2.58389 18.6786 1.91745 17.0786 1.9118 15.4086H3.33852L3.53113 15.5298C3.56634 16.7562 4.07743 17.9207 4.9562 18.7769C5.83497 19.633 7.01243 20.1135 8.2393 20.1167H11Z" fill="#343434"/>
<path fill-rule="evenodd" clip-rule="evenodd" d="M18.1623 7.90366C18.0797 6.79713 17.5829 5.76243 16.771 5.00608C15.9591 4.24972 14.8919 3.82735 13.7822 3.82324H8.13244C2.33997 3.82324 2.33997 12.6118 8.13244 12.6118H13.8393C17.5274 12.6118 17.5274 18.2046 13.8393 18.2046H8.21805C7.65373 18.2009 7.10358 18.0275 6.63918 17.7069C6.17479 17.3863 5.81766 16.9333 5.61429 16.4069C4.99629 16.2396 4.4001 16.0001 3.83802 15.6935C3.9207 16.7994 4.41776 17.8333 5.22983 18.5885C6.04189 19.3437 7.1091 19.7645 8.21805 19.7668H13.8679C19.6603 19.7668 19.6603 10.9854 13.8679 10.9854H8.16098C4.47291 10.9854 4.47291 5.39263 8.16098 5.39263H13.8108C14.3739 5.39767 14.9225 5.57174 15.3855 5.89227C15.8484 6.2128 16.2045 6.66502 16.4074 7.1903C17.018 7.35934 17.6069 7.59873 18.1623 7.90366Z" fill="#343434"/>
</g>
<defs>
<clipPath id="clip0">
<rect width="22" height="23.6265" fill="white"/>
</clipPath>
</defs>
</svg>
