<svg width="94" height="163" viewBox="0 0 94 163" fill="none" xmlns="http://www.w3.org/2000/svg">
<g opacity="0.2">
<ellipse cx="1.88" cy="1.88077" rx="1.88" ry="1.88077" fill="#343434"/>
<ellipse cx="1.88" cy="90.9042" rx="1.88" ry="1.88077" fill="#343434"/>
<ellipse cx="1.88" cy="42.0038" rx="1.88" ry="1.88077" fill="#343434"/>
<ellipse cx="1.88" cy="131.027" rx="1.88" ry="1.88078" fill="#343434"/>
<ellipse cx="1.88" cy="21.9423" rx="1.88" ry="1.88077" fill="#343434"/>
<ellipse cx="1.88" cy="110.966" rx="1.88" ry="1.88077" fill="#343434"/>
<ellipse cx="1.88" cy="62.0653" rx="1.88" ry="1.88077" fill="#343434"/>
<ellipse cx="1.88" cy="151.089" rx="1.88" ry="1.88078" fill="#343434"/>
<ellipse cx="1.88" cy="11.912" rx="1.88" ry="1.88077" fill="#343434"/>
<ellipse cx="1.88" cy="100.934" rx="1.88" ry="1.88077" fill="#343434"/>
<ellipse cx="1.88" cy="52.0351" rx="1.88" ry="1.88077" fill="#343434"/>
<ellipse cx="1.88" cy="141.058" rx="1.88" ry="1.88077" fill="#343434"/>
<ellipse cx="1.88" cy="31.9735" rx="1.88" ry="1.88077" fill="#343434"/>
<ellipse cx="1.88" cy="120.996" rx="1.88" ry="1.88077" fill="#343434"/>
<ellipse cx="1.88" cy="72.0966" rx="1.88" ry="1.88077" fill="#343434"/>
<ellipse cx="1.88" cy="161.119" rx="1.88" ry="1.88077" fill="#343434"/>
<ellipse cx="41.9864" cy="1.88077" rx="1.88" ry="1.88077" fill="#343434"/>
<ellipse cx="41.9864" cy="90.9042" rx="1.88" ry="1.88077" fill="#343434"/>
<ellipse cx="41.9864" cy="42.0038" rx="1.88" ry="1.88077" fill="#343434"/>
<ellipse cx="41.9864" cy="131.027" rx="1.88" ry="1.88078" fill="#343434"/>
<ellipse cx="41.9864" cy="21.9423" rx="1.88" ry="1.88077" fill="#343434"/>
<ellipse cx="41.9864" cy="62.0653" rx="1.88" ry="1.88077" fill="#343434"/>
<ellipse cx="41.9864" cy="151.089" rx="1.88" ry="1.88078" fill="#343434"/>
<ellipse cx="41.9864" cy="11.912" rx="1.88" ry="1.88077" fill="#343434"/>
<ellipse cx="41.9864" cy="100.934" rx="1.88" ry="1.88077" fill="#343434"/>
<ellipse cx="41.9864" cy="52.0351" rx="1.88" ry="1.88077" fill="#343434"/>
<ellipse cx="41.9864" cy="141.058" rx="1.88" ry="1.88077" fill="#343434"/>
<ellipse cx="41.9864" cy="31.9735" rx="1.88" ry="1.88077" fill="#343434"/>
<ellipse cx="41.9864" cy="120.996" rx="1.88" ry="1.88077" fill="#343434"/>
<ellipse cx="41.9864" cy="72.0966" rx="1.88" ry="1.88077" fill="#343434"/>
<ellipse cx="41.9864" cy="161.119" rx="1.88" ry="1.88077" fill="#343434"/>
<ellipse cx="21.9332" cy="1.88077" rx="1.88" ry="1.88077" fill="#343434"/>
<ellipse cx="21.9332" cy="90.9042" rx="1.88" ry="1.88077" fill="#343434"/>
<ellipse cx="21.9332" cy="42.0038" rx="1.88" ry="1.88077" fill="#343434"/>
<ellipse cx="21.9332" cy="131.027" rx="1.88" ry="1.88078" fill="#343434"/>
<ellipse cx="21.9332" cy="21.9423" rx="1.88" ry="1.88077" fill="#343434"/>
<ellipse cx="21.9332" cy="110.966" rx="1.88" ry="1.88077" fill="#343434"/>
<ellipse cx="21.9332" cy="62.0653" rx="1.88" ry="1.88077" fill="#343434"/>
<ellipse cx="21.9332" cy="11.912" rx="1.88" ry="1.88077" fill="#343434"/>
<ellipse cx="21.9332" cy="100.934" rx="1.88" ry="1.88077" fill="#343434"/>
<ellipse cx="21.9332" cy="52.0351" rx="1.88" ry="1.88077" fill="#343434"/>
<ellipse cx="21.9332" cy="141.058" rx="1.88" ry="1.88077" fill="#343434"/>
<ellipse cx="21.9332" cy="31.9735" rx="1.88" ry="1.88077" fill="#343434"/>
<ellipse cx="21.9332" cy="120.996" rx="1.88" ry="1.88077" fill="#343434"/>
<ellipse cx="21.9332" cy="72.0966" rx="1.88" ry="1.88077" fill="#343434"/>
<ellipse cx="21.9332" cy="161.119" rx="1.88" ry="1.88077" fill="#343434"/>
<ellipse cx="62.0402" cy="1.88077" rx="1.88" ry="1.88077" fill="#343434"/>
<ellipse cx="62.0402" cy="90.9042" rx="1.88" ry="1.88077" fill="#343434"/>
<ellipse cx="62.0402" cy="42.0038" rx="1.88" ry="1.88077" fill="#343434"/>
<ellipse cx="62.0402" cy="131.027" rx="1.88" ry="1.88078" fill="#343434"/>
<ellipse cx="62.0402" cy="21.9423" rx="1.88" ry="1.88077" fill="#343434"/>
<ellipse cx="62.0402" cy="110.966" rx="1.88" ry="1.88077" fill="#343434"/>
<ellipse cx="62.0402" cy="62.0653" rx="1.88" ry="1.88077" fill="#343434"/>
<ellipse cx="62.0402" cy="151.089" rx="1.88" ry="1.88078" fill="#343434"/>
<ellipse cx="62.0402" cy="11.912" rx="1.88" ry="1.88077" fill="#343434"/>
<ellipse cx="62.0402" cy="100.934" rx="1.88" ry="1.88077" fill="#343434"/>
<ellipse cx="62.0402" cy="52.0351" rx="1.88" ry="1.88077" fill="#343434"/>
<ellipse cx="62.0402" cy="141.058" rx="1.88" ry="1.88077" fill="#343434"/>
<ellipse cx="62.0402" cy="31.9735" rx="1.88" ry="1.88077" fill="#343434"/>
<ellipse cx="62.0402" cy="120.996" rx="1.88" ry="1.88077" fill="#343434"/>
<ellipse cx="62.0402" cy="72.0966" rx="1.88" ry="1.88077" fill="#343434"/>
<ellipse cx="62.0402" cy="161.119" rx="1.88" ry="1.88077" fill="#343434"/>
<ellipse cx="82.0934" cy="1.88077" rx="1.88" ry="1.88077" fill="#343434"/>
<ellipse cx="82.0934" cy="90.9042" rx="1.88" ry="1.88077" fill="#343434"/>
<ellipse cx="82.0934" cy="42.0038" rx="1.88" ry="1.88077" fill="#343434"/>
<ellipse cx="82.0934" cy="131.027" rx="1.88" ry="1.88078" fill="#343434"/>
<ellipse cx="82.0934" cy="21.9423" rx="1.88" ry="1.88077" fill="#343434"/>
<ellipse cx="82.0934" cy="110.966" rx="1.88" ry="1.88077" fill="#343434"/>
<ellipse cx="82.0934" cy="11.912" rx="1.88" ry="1.88077" fill="#343434"/>
<ellipse cx="82.0934" cy="100.934" rx="1.88" ry="1.88077" fill="#343434"/>
<ellipse cx="82.0934" cy="52.0351" rx="1.88" ry="1.88077" fill="#343434"/>
<ellipse cx="82.0934" cy="141.058" rx="1.88" ry="1.88077" fill="#343434"/>
<ellipse cx="82.0934" cy="31.9735" rx="1.88" ry="1.88077" fill="#343434"/>
<ellipse cx="82.0934" cy="120.996" rx="1.88" ry="1.88077" fill="#343434"/>
<ellipse cx="82.0934" cy="72.0966" rx="1.88" ry="1.88077" fill="#343434"/>
<ellipse cx="82.0934" cy="161.119" rx="1.88" ry="1.88077" fill="#343434"/>
<ellipse cx="11.9069" cy="1.88077" rx="1.88" ry="1.88077" fill="#343434"/>
<ellipse cx="11.9069" cy="90.9042" rx="1.88" ry="1.88077" fill="#343434"/>
<ellipse cx="11.9069" cy="42.0038" rx="1.88" ry="1.88077" fill="#343434"/>
<ellipse cx="11.9069" cy="131.027" rx="1.88" ry="1.88078" fill="#343434"/>
<ellipse cx="11.9069" cy="21.9423" rx="1.88" ry="1.88077" fill="#343434"/>
<ellipse cx="11.9069" cy="110.966" rx="1.88" ry="1.88077" fill="#343434"/>
<ellipse cx="11.9069" cy="62.0653" rx="1.88" ry="1.88077" fill="#343434"/>
<ellipse cx="11.9069" cy="151.089" rx="1.88" ry="1.88078" fill="#343434"/>
<ellipse cx="11.9069" cy="100.934" rx="1.88" ry="1.88077" fill="#343434"/>
<ellipse cx="11.9069" cy="52.0351" rx="1.88" ry="1.88077" fill="#343434"/>
<ellipse cx="11.9069" cy="141.058" rx="1.88" ry="1.88077" fill="#343434"/>
<ellipse cx="11.9069" cy="31.9735" rx="1.88" ry="1.88077" fill="#343434"/>
<ellipse cx="11.9069" cy="120.996" rx="1.88" ry="1.88077" fill="#343434"/>
<ellipse cx="11.9069" cy="72.0966" rx="1.88" ry="1.88077" fill="#343434"/>
<ellipse cx="11.9069" cy="161.119" rx="1.88" ry="1.88077" fill="#343434"/>
<ellipse cx="52.0133" cy="1.88077" rx="1.88" ry="1.88077" fill="#343434"/>
<ellipse cx="52.0133" cy="90.9042" rx="1.88" ry="1.88077" fill="#343434"/>
<ellipse cx="52.0133" cy="42.0038" rx="1.88" ry="1.88077" fill="#343434"/>
<ellipse cx="52.0133" cy="131.027" rx="1.88" ry="1.88078" fill="#343434"/>
<ellipse cx="52.0133" cy="21.9423" rx="1.88" ry="1.88077" fill="#343434"/>
<ellipse cx="52.0133" cy="110.966" rx="1.88" ry="1.88077" fill="#343434"/>
<ellipse cx="52.0133" cy="62.0653" rx="1.88" ry="1.88077" fill="#343434"/>
<ellipse cx="52.0133" cy="151.089" rx="1.88" ry="1.88078" fill="#343434"/>
<ellipse cx="52.0133" cy="11.912" rx="1.88" ry="1.88077" fill="#343434"/>
<ellipse cx="52.0133" cy="100.934" rx="1.88" ry="1.88077" fill="#343434"/>
<ellipse cx="52.0133" cy="52.0351" rx="1.88" ry="1.88077" fill="#343434"/>
<ellipse cx="52.0133" cy="141.058" rx="1.88" ry="1.88077" fill="#343434"/>
<ellipse cx="52.0133" cy="31.9735" rx="1.88" ry="1.88077" fill="#343434"/>
<ellipse cx="52.0133" cy="120.996" rx="1.88" ry="1.88077" fill="#343434"/>
<ellipse cx="52.0133" cy="72.0966" rx="1.88" ry="1.88077" fill="#343434"/>
<ellipse cx="52.0133" cy="161.119" rx="1.88" ry="1.88077" fill="#343434"/>
<ellipse cx="31.9601" cy="1.88077" rx="1.88" ry="1.88077" fill="#343434"/>
<ellipse cx="31.9601" cy="90.9042" rx="1.88" ry="1.88077" fill="#343434"/>
<ellipse cx="31.9601" cy="42.0038" rx="1.88" ry="1.88077" fill="#343434"/>
<ellipse cx="31.9601" cy="131.027" rx="1.88" ry="1.88078" fill="#343434"/>
<ellipse cx="31.9601" cy="21.9423" rx="1.88" ry="1.88077" fill="#343434"/>
<ellipse cx="31.9601" cy="110.966" rx="1.88" ry="1.88077" fill="#343434"/>
<ellipse cx="31.9601" cy="62.0653" rx="1.88" ry="1.88077" fill="#343434"/>
<ellipse cx="31.9601" cy="151.089" rx="1.88" ry="1.88078" fill="#343434"/>
<ellipse cx="31.9601" cy="11.912" rx="1.88" ry="1.88077" fill="#343434"/>
<ellipse cx="31.9601" cy="100.934" rx="1.88" ry="1.88077" fill="#343434"/>
<ellipse cx="31.9601" cy="141.058" rx="1.88" ry="1.88077" fill="#343434"/>
<ellipse cx="31.9601" cy="31.9735" rx="1.88" ry="1.88077" fill="#343434"/>
<ellipse cx="31.9601" cy="120.996" rx="1.88" ry="1.88077" fill="#343434"/>
<ellipse cx="31.9601" cy="72.0966" rx="1.88" ry="1.88077" fill="#343434"/>
<ellipse cx="31.9601" cy="161.119" rx="1.88" ry="1.88077" fill="#343434"/>
<ellipse cx="72.0665" cy="1.88077" rx="1.88" ry="1.88077" fill="#343434"/>
<ellipse cx="72.0665" cy="90.9042" rx="1.88" ry="1.88077" fill="#343434"/>
<ellipse cx="72.0665" cy="42.0038" rx="1.88" ry="1.88077" fill="#343434"/>
<ellipse cx="72.0665" cy="131.027" rx="1.88" ry="1.88078" fill="#343434"/>
<ellipse cx="72.0665" cy="110.966" rx="1.88" ry="1.88077" fill="#343434"/>
<ellipse cx="72.0665" cy="62.0653" rx="1.88" ry="1.88077" fill="#343434"/>
<ellipse cx="72.0665" cy="151.089" rx="1.88" ry="1.88078" fill="#343434"/>
<ellipse cx="72.0665" cy="11.912" rx="1.88" ry="1.88077" fill="#343434"/>
<ellipse cx="72.0665" cy="100.934" rx="1.88" ry="1.88077" fill="#343434"/>
<ellipse cx="72.0665" cy="52.0351" rx="1.88" ry="1.88077" fill="#343434"/>
<ellipse cx="72.0665" cy="141.058" rx="1.88" ry="1.88077" fill="#343434"/>
<ellipse cx="72.0665" cy="31.9735" rx="1.88" ry="1.88077" fill="#343434"/>
<ellipse cx="72.0665" cy="72.0966" rx="1.88" ry="1.88077" fill="#343434"/>
<ellipse cx="72.0665" cy="161.119" rx="1.88" ry="1.88077" fill="#343434"/>
<ellipse cx="92.1202" cy="1.88077" rx="1.88" ry="1.88077" fill="#343434"/>
<ellipse cx="92.1202" cy="90.9042" rx="1.88" ry="1.88077" fill="#343434"/>
<ellipse cx="92.1202" cy="42.0038" rx="1.88" ry="1.88077" fill="#343434"/>
<ellipse cx="92.1202" cy="131.027" rx="1.88" ry="1.88078" fill="#343434"/>
<ellipse cx="92.1202" cy="21.9423" rx="1.88" ry="1.88077" fill="#343434"/>
<ellipse cx="92.1202" cy="110.966" rx="1.88" ry="1.88077" fill="#343434"/>
<ellipse cx="92.1202" cy="62.0653" rx="1.88" ry="1.88077" fill="#343434"/>
<ellipse cx="92.1202" cy="151.089" rx="1.88" ry="1.88078" fill="#343434"/>
<ellipse cx="92.1202" cy="11.912" rx="1.88" ry="1.88077" fill="#343434"/>
<ellipse cx="92.1202" cy="100.934" rx="1.88" ry="1.88077" fill="#343434"/>
<ellipse cx="92.1202" cy="52.0351" rx="1.88" ry="1.88077" fill="#343434"/>
<ellipse cx="92.1202" cy="141.058" rx="1.88" ry="1.88077" fill="#343434"/>
<ellipse cx="92.1202" cy="31.9735" rx="1.88" ry="1.88077" fill="#343434"/>
<ellipse cx="92.1202" cy="120.996" rx="1.88" ry="1.88077" fill="#343434"/>
<ellipse cx="92.1202" cy="72.0966" rx="1.88" ry="1.88077" fill="#343434"/>
<ellipse cx="92.1202" cy="161.119" rx="1.88" ry="1.88077" fill="#343434"/>
</g>
</svg>
