<svg width="24" height="19" viewBox="0 0 24 19" fill="none" xmlns="http://www.w3.org/2000/svg">
<path d="M23.2354 2.35531C22.4734 2.70168 21.7114 2.9095 20.8801 3.04805C21.2265 2.97877 21.7807 2.28603 22.0577 2.00894C22.4041 1.5933 22.6812 1.10838 22.8198 0.623465C22.8198 0.554191 22.889 0.554191 22.8198 0.484917C22.7505 0.484917 22.7505 0.484917 22.6812 0.484917C21.7806 0.969833 20.8801 1.3162 19.9103 1.52402C19.841 1.52402 19.7717 1.52402 19.7024 1.45475C19.6332 1.38548 19.5639 1.24693 19.4253 1.17765C19.0097 0.831285 18.5941 0.55419 18.1091 0.346369C17.4857 0.0692737 16.7237 0 16.0309 0C15.3382 0.0692737 14.6455 0.207823 14.0913 0.554192C13.4678 0.900561 12.9136 1.3162 12.498 1.87039C12.0823 2.42458 11.736 3.04805 11.5281 3.74078C11.3896 4.43352 11.3896 5.05699 11.4589 5.74972C11.4589 5.88827 11.4589 5.88827 11.3896 5.88827C7.57953 5.33408 4.39294 3.9486 1.82981 1.03911C1.69127 0.900559 1.69126 0.900559 1.55271 1.03911C0.444334 2.70168 0.998521 5.40335 2.384 6.71955C2.59182 6.92738 2.73037 7.06592 2.93819 7.20447C2.86891 7.20447 1.89908 7.1352 1.0678 6.71955C0.929252 6.65028 0.92925 6.71956 0.859976 6.78883C0.859976 6.99665 0.859976 7.13519 0.859976 7.34302C1.0678 9.07486 2.24546 10.5989 3.90803 11.2224C4.11585 11.2916 4.32367 11.3609 4.53149 11.4302C4.18512 11.4994 3.76947 11.5687 2.73037 11.4994C2.59182 11.4994 2.52255 11.5687 2.59182 11.638C3.35383 13.7855 5.08567 14.4782 6.40188 14.8246C6.54042 14.8246 6.74824 14.8246 6.88679 14.8939C6.47115 15.5173 5.0164 16.0022 4.32366 16.2793C3.07674 16.695 1.69126 16.9028 0.375062 16.7642C0.167241 16.7642 0.097967 16.7642 0.0286933 16.7642C-0.0405805 16.8335 0.0286975 16.8335 0.0979712 16.9028C0.375066 17.1106 0.652159 17.2492 0.929254 17.3877C1.76054 17.8034 2.6611 18.219 3.56166 18.4268C8.27227 19.743 13.6063 18.7732 17.1393 15.2402C19.9103 12.4693 20.8801 8.65922 20.8801 4.84916C20.8801 4.71061 21.0879 4.64134 21.1572 4.57207C21.8499 4.01788 22.4734 3.39442 23.0276 2.6324C23.1661 2.49386 23.1661 2.35531 23.1661 2.28604C23.3047 2.28604 23.3047 2.28603 23.2354 2.35531Z" fill="#876FEF"/>
</svg>
