<svg width="20" height="16" viewBox="0 0 20 16" fill="none" xmlns="http://www.w3.org/2000/svg">
<path d="M19.5231 2.12172C18.8935 2.40792 18.2639 2.57964 17.577 2.69412C17.8632 2.63688 18.3211 2.06448 18.5501 1.83551C18.8363 1.49207 19.0652 1.09139 19.1797 0.690703C19.1797 0.633462 19.2369 0.633462 19.1797 0.576221C19.1225 0.576221 19.1225 0.576221 19.0652 0.576221C18.3211 0.976905 17.577 1.26311 16.7756 1.43483C16.7184 1.43483 16.6611 1.43483 16.6039 1.37759C16.5466 1.32035 16.4894 1.20587 16.3749 1.14863C16.0315 0.862424 15.688 0.633462 15.2874 0.46174C14.7722 0.232778 14.1425 0.175537 13.5701 0.175537C12.9977 0.232778 12.4253 0.347261 11.9674 0.633463C11.4522 0.919666 10.9943 1.26311 10.6509 1.72103C10.3074 2.17896 10.0212 2.69412 9.8495 3.26653C9.73502 3.83893 9.73501 4.3541 9.79225 4.92651C9.79225 5.04099 9.79225 5.04099 9.73501 5.04099C6.58678 4.58306 3.95372 3.43825 1.83582 1.03415C1.72134 0.919664 1.72133 0.919664 1.60685 1.03415C0.691003 2.40792 1.14893 4.6403 2.29374 5.72787C2.46546 5.89959 2.57994 6.01408 2.75166 6.12856C2.69442 6.12856 1.89306 6.07132 1.20617 5.72787C1.09169 5.67063 1.09169 5.72787 1.03445 5.78511C1.03445 5.95684 1.03445 6.07131 1.03445 6.24304C1.20617 7.67405 2.17926 8.93335 3.55304 9.44851C3.72476 9.50575 3.89648 9.56299 4.0682 9.62023C3.782 9.67747 3.43855 9.73471 2.57994 9.67747C2.46546 9.67747 2.40822 9.73471 2.46546 9.79195C3.09511 11.5664 4.52612 12.1388 5.61369 12.425C5.72817 12.425 5.89989 12.425 6.01437 12.4823C5.67093 12.9974 4.46888 13.3981 3.89647 13.6271C2.86614 13.9705 1.72134 14.1422 0.633764 14.0278C0.462043 14.0278 0.404802 14.0278 0.347562 14.0278C0.290321 14.085 0.347565 14.085 0.404806 14.1422C0.633768 14.314 0.862728 14.4284 1.09169 14.5429C1.77858 14.8864 2.52271 15.2298 3.26683 15.4015C7.15919 16.4891 11.5667 15.6877 14.486 12.7685C16.7756 10.4788 17.577 7.33061 17.577 4.18238C17.577 4.0679 17.7487 4.01066 17.8059 3.95342C18.3783 3.49549 18.8935 2.98033 19.3514 2.35068C19.4659 2.2362 19.4659 2.12172 19.4659 2.06448C19.5804 2.06448 19.5804 2.06448 19.5231 2.12172Z" fill="#828282"/>
</svg>
