<svg width="20" height="20" viewBox="0 0 20 20" fill="none" xmlns="http://www.w3.org/2000/svg">
<path fill-rule="evenodd" clip-rule="evenodd" d="M9.90261 0C4.46476 0 0 4.46476 0 9.90262C0 11.8488 0.572403 13.6805 1.60273 15.2832L0.114479 18.6032C-1.74855e-06 18.8894 -3.4971e-06 19.2901 0.228959 19.519C0.40068 19.6908 0.629646 19.8052 0.858608 19.8052C0.915849 19.8052 1.03033 19.8052 1.08757 19.748L5.20889 18.6032C6.6399 19.3473 8.24264 19.748 9.84537 19.748C15.2832 19.748 19.748 15.2832 19.748 9.84538C19.8052 4.46476 15.3405 0 9.90261 0ZM9.90261 18.088C8.4716 18.088 7.04059 17.6873 5.7813 17.0004C5.66681 16.9432 5.49509 16.886 5.32337 16.886C5.26613 16.886 5.15165 16.886 5.09441 16.9432L2.4041 17.6873L3.31995 15.6267C3.43443 15.3405 3.43443 14.997 3.20547 14.7681C2.17514 13.3943 1.65997 11.7343 1.65997 10.0171C1.65997 5.4951 5.32337 1.8317 9.84537 1.8317C14.3674 1.8317 18.0308 5.4951 18.0308 10.0171C18.088 14.4246 14.3674 18.088 9.90261 18.088Z" fill="#828282"/>
<path fill-rule="evenodd" clip-rule="evenodd" d="M13.6805 11.391C13.2798 11.162 12.7074 10.8758 12.2495 11.0475C11.8488 11.2193 11.6199 11.7917 11.3909 12.0779C11.2764 12.2496 11.1047 12.2496 10.933 12.1923C9.50197 11.6199 8.47164 10.7041 7.67027 9.38756C7.55579 9.1586 7.55579 9.04412 7.72751 8.81516C7.95647 8.52895 8.24268 8.24275 8.29992 7.84207C8.35716 7.49862 8.18544 7.0407 8.01371 6.69726C7.84199 6.29657 7.61303 5.66693 7.15511 5.43796C6.75442 5.209 6.23925 5.32348 5.89581 5.60969C5.32341 6.12485 4.97996 6.86898 5.0372 7.6131C5.0372 7.84207 5.09444 8.07103 5.09444 8.24275C5.20892 8.75792 5.43789 9.21584 5.72409 9.67376C5.89581 10.0172 6.12478 10.3607 6.35374 10.6469C7.09786 11.6772 8.07095 12.5358 9.10128 13.2227C9.61645 13.5661 10.2461 13.8523 10.8185 14.0241C11.5054 14.253 12.0778 14.482 12.8219 14.3675C13.566 14.1958 14.3674 13.7378 14.6536 12.9937C14.7681 12.7648 14.7681 12.5358 14.7109 12.3068C14.7109 11.9061 14.0812 11.6199 13.6805 11.391Z" fill="#828282"/>
</svg>
