<svg width="24" height="24" viewBox="0 0 24 24" fill="none" xmlns="http://www.w3.org/2000/svg">
<path fill-rule="evenodd" clip-rule="evenodd" d="M11.9844 0C5.40335 0 0 5.40335 0 11.9844C0 14.3397 0.692734 16.5564 1.93966 18.4961L0.138545 22.514C-2.11613e-06 22.8603 -4.23226e-06 23.3453 0.277091 23.6223C0.484912 23.8302 0.762011 23.9687 1.03911 23.9687C1.10838 23.9687 1.24692 23.9687 1.3162 23.8994L6.30391 22.514C8.03575 23.4145 9.97542 23.8994 11.9151 23.8994C18.4961 23.8994 23.8994 18.4961 23.8994 11.9151C23.9687 5.40335 18.5654 0 11.9844 0ZM11.9844 21.8905C10.2525 21.8905 8.52067 21.4056 6.99665 20.5743C6.8581 20.505 6.65028 20.4358 6.44245 20.4358C6.37318 20.4358 6.23463 20.4358 6.16536 20.505L2.90949 21.4056L4.01787 18.9117C4.15642 18.5654 4.15642 18.1497 3.87933 17.8726C2.6324 16.2101 2.00893 14.2011 2.00893 12.1229C2.00893 6.65028 6.44246 2.21676 11.9151 2.21676C17.3877 2.21676 21.8212 6.65028 21.8212 12.1229C21.8905 17.457 17.3877 21.8905 11.9844 21.8905Z" fill="#4C9F70"/>
<path fill-rule="evenodd" clip-rule="evenodd" d="M16.5562 13.7855C16.0713 13.5084 15.3786 13.162 14.8244 13.3698C14.3395 13.5776 14.0624 14.2704 13.7853 14.6168C13.6467 14.8246 13.4389 14.8246 13.2311 14.7553C11.4992 14.0626 10.2523 12.9542 9.28247 11.3609C9.14392 11.0838 9.14393 10.9452 9.35175 10.6681C9.62884 10.3218 9.97521 9.97541 10.0445 9.4905C10.1138 9.07486 9.90594 8.52067 9.69812 8.10502C9.49029 7.62011 9.2132 6.8581 8.65901 6.581C8.17409 6.30391 7.55063 6.44245 7.13498 6.78882C6.44225 7.41229 6.0266 8.31284 6.09588 9.2134C6.09588 9.4905 6.16515 9.76759 6.16515 9.97541C6.3037 10.5989 6.5808 11.1531 6.92717 11.7073C7.13499 12.1229 7.41208 12.5385 7.68918 12.8849C8.58974 14.1318 9.76739 15.1709 11.0143 16.0022C11.6378 16.4179 12.3998 16.7642 13.0925 16.9721C13.9238 17.2492 14.6165 17.5263 15.5171 17.3877C16.4177 17.1799 17.3875 16.6257 17.7339 15.7251C17.8724 15.448 17.8724 15.1709 17.8031 14.8939C17.8031 14.4089 17.0411 14.0626 16.5562 13.7855Z" fill="#4C9F70"/>
</svg>
