<svg width="79" height="79" viewBox="0 0 79 79" fill="none" xmlns="http://www.w3.org/2000/svg">
<rect width="79" height="79" fill="#E5E5E5"/>
<g clip-path="url(#clip0)">
<rect width="1440" height="2200" transform="translate(-1137 -1045)" fill="white"/>
<rect x="-91.5" y="-99.5" width="273" height="293" rx="5.5" stroke="#CFCFCF"/>
<g clip-path="url(#clip1)">
<path d="M4.9375 67.2735V28.6236C4.9375 25.4285 7.52768 22.8384 10.7227 22.8384H17.3589H62.4907H68.2771C71.4723 22.8384 74.0625 25.4286 74.0625 28.6236V67.2735" fill="#C9F3FF"/>
<path d="M53.3867 22.8384H31.5202C29.2805 22.8384 27.4648 24.654 27.4648 26.8938V54.6673C27.4648 52.4275 29.2805 50.6119 31.5202 50.6119H53.3867V22.8384Z" fill="white"/>
<path d="M1.54297 22.8384H23.4095C25.6492 22.8384 27.4648 24.654 27.4648 26.8938V54.6673C27.4648 52.4275 25.6492 50.6119 23.4095 50.6119H1.54297V22.8384Z" fill="white"/>
<path d="M53.3867 50.6109H1.54297V56.63H53.3867V50.6109Z" fill="#FFB954"/>
<path d="M50.0141 67.2734H77.457V70.0508C77.457 74.1412 74.1412 77.457 70.0508 77.457H8.94922C4.85881 77.457 1.54297 74.1412 1.54297 70.0508V67.2734H28.9842H50.0141Z" fill="#D8D8E4"/>
<path d="M67.5641 28.8683V36.9095C67.5641 44.2283 61.6311 50.1613 54.3123 50.1613C46.9936 50.1613 41.0605 44.2283 41.0605 36.9095V28.8683H67.5641Z" fill="#FFCDAC"/>
<path d="M39.1047 36.9543H41.0605V29.7568H39.1047C37.1172 29.7568 35.5059 31.3679 35.5059 33.3556C35.5059 35.3431 37.1172 36.9543 39.1047 36.9543Z" fill="#FFCDAC"/>
<path d="M69.5203 29.7568H67.5645V36.9543H69.5203C71.5078 36.9543 73.1191 35.3431 73.1191 33.3554C73.119 31.3681 71.5078 29.7568 69.5203 29.7568Z" fill="#FFCDAC"/>
<path d="M67.5641 17.8117V27.9995L54.3123 33.8297L41.0605 27.9995V17.8117H67.5641Z" fill="#5A54E0"/>
<path d="M77.457 12.7131L54.3125 23.8833L31.168 12.7131L54.3125 1.54297L77.457 12.7131Z" fill="#7D9BFF"/>
<path d="M42.9455 70.8223H36.1309C35.2788 70.8223 34.5879 71.5132 34.5879 72.3652C34.5879 73.2173 35.2788 73.9082 36.1309 73.9082H42.9455C43.7976 73.9082 44.4885 73.2173 44.4885 72.3652C44.4885 71.5132 43.7977 70.8223 42.9455 70.8223Z" fill="black"/>
<path d="M55.4032 13.8034C55.6902 13.5164 55.8555 13.1183 55.8555 12.7125C55.8555 12.3067 55.6904 11.9102 55.4032 11.6216C55.1164 11.3348 54.7183 11.1696 54.3125 11.1696C53.9067 11.1696 53.5086 11.3347 53.2216 11.6216C52.9346 11.9086 52.7695 12.3067 52.7695 12.7125C52.7695 13.12 52.9345 13.5164 53.2216 13.8034C53.5086 14.0919 53.9067 14.2555 54.3125 14.2555C54.7183 14.2555 55.1162 14.0921 55.4032 13.8034Z" fill="black"/>
<path d="M78.1504 11.3358C78.1429 11.3316 78.1361 11.3273 78.1278 11.3231L54.9832 0.15296C54.5595 -0.0516377 54.0656 -0.0516377 53.6419 0.15296L30.4974 11.3231C29.9641 11.5805 29.6252 12.1205 29.6252 12.7127C29.6252 13.3049 29.9641 13.845 30.4974 14.1023L39.5179 18.4558V27.9991C39.5179 28.0714 39.5238 28.1429 39.5336 28.2132H39.1048C36.2698 28.2132 33.9632 30.5198 33.9632 33.355C33.9632 36.1901 36.2698 38.4967 39.1048 38.4967H39.6032C40.0721 42.8704 42.4545 46.6792 45.8944 49.0682H31.5204C30.6174 49.0682 29.7639 49.2831 29.008 49.6642V26.8931C29.008 25.5076 30.1351 24.3807 31.5204 24.3807H35.5062C36.3582 24.3807 37.0491 23.6897 37.0491 22.8377C37.0491 21.9857 36.3582 21.2947 35.5062 21.2947H31.5204C29.9256 21.2947 28.4857 21.9661 27.465 23.0397C26.4443 21.9661 25.0044 21.2947 23.4096 21.2947H1.54297C0.690941 21.2947 0 21.9857 0 22.8377V50.6111V56.6309C0 57.4829 0.690941 58.1738 1.54297 58.1738H3.39407V65.7301H1.54297C0.690941 65.7301 0 66.421 0 67.273V70.0504C0 74.9849 4.01465 78.9996 8.94922 78.9996H70.0508C74.9854 78.9996 79 74.9849 79 70.0504V67.273C79 66.421 78.3091 65.7301 77.457 65.7301H75.605V43.0484C75.605 42.1964 74.9141 41.5054 74.062 41.5054C73.21 41.5054 72.5191 42.1964 72.5191 43.0484V65.7301H6.48001V58.1737H53.3867C54.2387 58.1737 54.9297 57.4827 54.9297 56.6307V51.69C62.2713 51.3871 68.2487 45.7094 69.0219 38.4967H69.5203C72.3554 38.4967 74.6619 36.1901 74.6619 33.355C74.6619 30.5198 72.3554 28.2132 69.5203 28.2132H69.0915C69.1014 28.1429 69.1073 28.0716 69.1073 27.9991V18.4558L75.9141 15.1707V22.2165C75.9141 23.0685 76.605 23.7595 77.457 23.7595C78.3091 23.7595 79 23.0685 79 22.2165V12.7127C79 12.1104 78.6539 11.5898 78.1504 11.3358ZM75.9141 70.0504C75.9141 73.2833 73.2838 75.9137 70.0508 75.9137H8.94922C5.71624 75.9137 3.08594 73.2833 3.08594 70.0504V68.816H75.9141V70.0504ZM54.3125 3.25587L70.7101 11.1698H58.6521C57.8001 11.1698 57.1091 11.8607 57.1091 12.7127C57.1091 13.5648 57.8001 14.2557 58.6521 14.2557H70.7101L54.3125 22.1697L34.7179 12.7129L54.3125 3.25587ZM37.049 33.3552C37.049 32.2216 37.9712 31.2993 39.1047 31.2993H39.5177V35.4109H39.1047C37.9712 35.4109 37.049 34.4888 37.049 33.3552ZM3.08594 24.3808H23.4095C24.7949 24.3808 25.9219 25.5079 25.9219 26.8932V49.6644C25.166 49.2831 24.3123 49.0683 23.4095 49.0683H3.08594V24.3808ZM3.08594 52.1541H23.4095C24.7949 52.1541 25.9219 53.2812 25.9219 54.6665C25.9219 54.8128 25.9436 54.9538 25.9816 55.0877H3.08594V52.1541ZM28.9481 55.088C28.9862 54.954 29.0078 54.8129 29.0078 54.6668C29.0078 53.2814 30.135 52.1544 31.5202 52.1544H51.8438V55.0882H28.9481V55.088ZM54.3125 48.6179C47.8563 48.6179 42.6037 43.3653 42.6037 36.9089V30.3637L53.691 35.2416C53.889 35.3286 54.1007 35.3723 54.3123 35.3723C54.524 35.3723 54.7357 35.3288 54.9337 35.2416L66.021 30.3637V36.9089C66.0213 43.3653 60.7687 48.6179 54.3125 48.6179ZM71.576 33.3552C71.576 34.4888 70.6538 35.4109 69.5203 35.4109H69.1073V31.2993H69.5203C70.6538 31.2993 71.576 32.2216 71.576 33.3552ZM66.0213 26.9924L54.3125 32.1438L42.6037 26.9924V19.9454L53.6418 25.2726C53.8536 25.3749 54.0831 25.426 54.3125 25.426C54.5419 25.426 54.7714 25.3749 54.9832 25.2726L66.0213 19.9454V26.9924Z" fill="black"/>
<path d="M77.457 27.5559C77.0512 27.5559 76.6531 27.721 76.3662 28.008C76.0792 28.295 75.9141 28.6931 75.9141 29.0989C75.9141 29.5047 76.079 29.9028 76.3662 30.1898C76.6531 30.4766 77.0512 30.6418 77.457 30.6418C77.8628 30.6418 78.2609 30.4767 78.5478 30.1898C78.8347 29.9028 79 29.5047 79 29.0989C79 28.6931 78.8349 28.295 78.5478 28.008C78.2609 27.7212 77.8628 27.5559 77.457 27.5559Z" fill="black"/>
<path d="M19.5664 38.883C19.1606 38.883 18.7625 39.0479 18.4757 39.3351C18.1871 39.6236 18.0234 40.0202 18.0234 40.426C18.0234 40.8318 18.1871 41.2298 18.4757 41.5167C18.7625 41.8052 19.1592 41.9689 19.5664 41.9689C19.9722 41.9689 20.3703 41.8052 20.6573 41.5167C20.9443 41.2298 21.1094 40.8332 21.1094 40.426C21.1094 40.0202 20.9444 39.6221 20.6573 39.3351C20.3688 39.0481 19.9722 38.883 19.5664 38.883Z" fill="black"/>
<path d="M13.7324 38.8856H8.79492C7.94289 38.8856 7.25195 39.5766 7.25195 40.4286C7.25195 41.2806 7.94289 41.9716 8.79492 41.9716H13.7324C14.5844 41.9716 15.2754 41.2806 15.2754 40.4286C15.2754 39.5766 14.5846 38.8856 13.7324 38.8856Z" fill="black"/>
<path d="M8.79492 34.5643H19.5659C20.418 34.5643 21.1089 33.8734 21.1089 33.0214C21.1089 32.1693 20.418 31.4784 19.5659 31.4784H8.79492C7.94289 31.4784 7.25195 32.1693 7.25195 33.0214C7.25195 33.8734 7.94289 34.5643 8.79492 34.5643Z" fill="black"/>
</g>
</g>
<defs>
<clipPath id="clip0">
<rect width="1440" height="2200" fill="white" transform="translate(-1137 -1045)"/>
</clipPath>
<clipPath id="clip1">
<rect width="79" height="79" fill="white"/>
</clipPath>
</defs>
</svg>
