<svg width="79" height="74" viewBox="0 0 79 74" fill="none" xmlns="http://www.w3.org/2000/svg">
<rect width="79" height="74" fill="#E5E5E5"/>
<g clip-path="url(#clip0)">
<rect width="1440" height="2200" transform="translate(-1139 -732)" fill="white"/>
<rect x="-93.5" y="-109.5" width="273" height="293" rx="5.5" stroke="#CFCFCF"/>
<g clip-path="url(#clip1)">
<path d="M1.54297 5.08081V68.2187C1.54297 70.0775 3.04676 71.5843 4.90194 71.5843H74.0981C75.9532 71.5843 77.457 70.0775 77.457 68.2187V5.08081C77.457 3.22201 75.9532 1.71527 74.0981 1.71527H4.90194C3.04676 1.71527 1.54297 3.22201 1.54297 5.08081Z" fill="white"/>
<path d="M4.90194 1.71527H74.0981C75.9532 1.71527 77.457 3.22201 77.457 5.08081V16.5241H1.54297V5.08081C1.54297 3.22201 3.04676 1.71527 4.90194 1.71527Z" fill="#72D8FF"/>
<path d="M10.3653 7.57373H10.3496C9.49736 7.57373 8.80664 8.2658 8.80664 9.11972C8.80664 9.97363 9.49736 10.6657 10.3496 10.6657H10.3653C11.2175 10.6657 11.9082 9.97363 11.9082 9.11972C11.9082 8.2658 11.2175 7.57373 10.3653 7.57373Z" fill="black"/>
<path d="M18.0079 7.57373H17.9922C17.1399 7.57373 16.4492 8.2658 16.4492 9.11972C16.4492 9.97363 17.1399 10.6657 17.9922 10.6657H18.0079C18.8601 10.6657 19.5508 9.97363 19.5508 9.11972C19.5508 8.2658 18.8601 7.57373 18.0079 7.57373Z" fill="black"/>
<path d="M25.6514 7.57373H25.6357C24.7835 7.57373 24.0928 8.2658 24.0928 9.11972C24.0928 9.97363 24.7835 10.6657 25.6357 10.6657H25.6514C26.5037 10.6657 27.1944 9.97363 27.1944 9.11972C27.1944 8.2658 26.5037 7.57373 25.6514 7.57373Z" fill="black"/>
<path d="M68.5556 7.57373H38.7871C37.9349 7.57373 37.2441 8.2658 37.2441 9.11972C37.2441 9.97303 37.9349 10.6657 38.7871 10.6657H68.5556C69.4078 10.6657 70.0985 9.97303 70.0985 9.11972C70.0985 8.2658 69.4078 7.57373 68.5556 7.57373Z" fill="black"/>
<path d="M40.5635 70.0383C40.1578 70.0383 39.7613 70.2037 39.4725 70.4912C39.1857 70.7787 39.0205 71.1778 39.0205 71.5843C39.0205 71.9907 39.1857 72.3899 39.4725 72.6773C39.7613 72.9648 40.1578 73.1302 40.5635 73.1302C40.9691 73.1302 41.3675 72.9648 41.6544 72.6773C41.9425 72.3899 42.1064 71.9907 42.1064 71.5843C42.1064 71.1778 41.9425 70.7787 41.6544 70.4912C41.3675 70.2037 40.9691 70.0383 40.5635 70.0383Z" fill="black"/>
<path d="M74.0981 0.169281H4.90194C2.19933 0.169281 0 2.37292 0 5.08081V68.2187C0 70.9272 2.19933 73.1303 4.90194 73.1303H34.0996C34.9519 73.1303 35.6426 72.4382 35.6426 71.5843C35.6426 70.7303 34.9519 70.0383 34.0996 70.0383H4.90194C3.90082 70.0383 3.08594 69.2224 3.08594 68.2187V18.0701H75.9141V68.2187C75.9141 69.2218 75.0992 70.0383 74.0981 70.0383H46.855C46.0028 70.0383 45.312 70.7303 45.312 71.5843C45.312 72.4382 46.0028 73.1303 46.855 73.1303H74.0981C76.8007 73.1303 79 70.9272 79 68.2187V5.08081C79 2.37292 76.8007 0.169281 74.0981 0.169281ZM3.08594 14.9776V5.08081C3.08594 4.07773 3.90082 3.26126 4.90194 3.26126H74.0981C75.0992 3.26126 75.9141 4.07773 75.9141 5.08081V14.9782H3.08594V14.9776Z" fill="black"/>
<path d="M27.4703 35.727C27.4703 32.658 24.9786 30.1615 21.9156 30.1615H16.7207C15.8685 30.1615 15.1777 30.8535 15.1777 31.7075V47.7857C15.1777 48.6397 15.8685 49.3317 16.7207 49.3317H21.9156C24.9786 49.3317 27.4703 46.8352 27.4703 43.7662C27.4703 42.187 26.8097 40.7605 25.7513 39.7466C26.8097 38.7326 27.4703 37.3062 27.4703 35.727ZM24.3843 43.7662C24.3843 45.1298 23.2765 46.2397 21.9156 46.2397H18.2637V41.2926H21.9156C23.2765 41.2926 24.3843 42.402 24.3843 43.7662ZM18.2637 38.2006V33.2534H21.9156C23.2771 33.2534 24.3843 34.3634 24.3843 35.727C24.3843 37.0906 23.2771 38.2006 21.9156 38.2006H18.2637Z" fill="black"/>
<path d="M31.8848 30.1615C31.0325 30.1615 30.3418 30.8535 30.3418 31.7075V44.21C30.3418 47.0345 32.6352 49.3317 35.4535 49.3317C36.3057 49.3317 36.9965 48.6397 36.9965 47.7857C36.9965 46.9318 36.3057 46.2397 35.4535 46.2397C34.3366 46.2397 33.4277 45.3291 33.4277 44.21V31.7075C33.4277 30.8535 32.737 30.1615 31.8848 30.1615Z" fill="black"/>
<path d="M50.1256 43.7335C50.1256 40.6464 47.6195 38.1348 44.5384 38.1348C41.4573 38.1348 38.9512 40.6464 38.9512 43.7335C38.9512 46.8207 41.4579 49.3317 44.5384 49.3317C47.6195 49.3317 50.1256 46.8207 50.1256 43.7335ZM42.0371 43.7335C42.0371 42.3512 43.1594 41.2267 44.5384 41.2267C45.9174 41.2267 47.0397 42.3512 47.0397 43.7335C47.0397 45.1153 45.918 46.2397 44.5384 46.2397C43.1588 46.2397 42.0371 45.1153 42.0371 43.7335Z" fill="black"/>
<path d="M58.2337 53.6605C56.8547 53.6605 55.7324 52.536 55.7324 51.1543C55.7324 50.3004 55.0417 49.6083 54.1895 49.6083C53.3372 49.6083 52.6465 50.3004 52.6465 51.1543C52.6465 54.2414 55.1532 56.7525 58.2337 56.7525C61.3148 56.7525 63.8216 54.2414 63.8216 51.1543V43.7335C63.8216 40.6464 61.3148 38.1348 58.2337 38.1348C55.1532 38.1348 52.6465 40.6464 52.6465 43.7335C52.6465 46.8207 55.1532 49.3317 58.2337 49.3317C59.133 49.3317 59.9822 49.1167 60.7356 48.7369V51.1543C60.7356 52.536 59.6133 53.6605 58.2337 53.6605ZM58.2337 46.2397C56.8547 46.2397 55.7324 45.1153 55.7324 43.7335C55.7324 42.3512 56.8547 41.2267 58.2337 41.2267C59.6133 41.2267 60.7356 42.3512 60.7356 43.7335C60.7356 45.1153 59.6133 46.2397 58.2337 46.2397Z" fill="black"/>
<path d="M16.7207 64.4824H62.2781C63.1303 64.4824 63.821 63.7903 63.821 62.9364C63.821 62.0825 63.1303 61.3904 62.2781 61.3904H16.7207C15.8691 61.3904 15.1777 62.0825 15.1777 62.9364C15.1777 63.7903 15.8691 64.4824 16.7207 64.4824Z" fill="black"/>
</g>
</g>
<defs>
<clipPath id="clip0">
<rect width="1440" height="2200" fill="white" transform="translate(-1139 -732)"/>
</clipPath>
<clipPath id="clip1">
<rect width="79" height="79" fill="white" transform="translate(0 -3)"/>
</clipPath>
</defs>
</svg>
