<svg width="79" height="79" viewBox="0 0 79 79" fill="none" xmlns="http://www.w3.org/2000/svg">
<rect width="79" height="79" fill="#E5E5E5"/>
<g clip-path="url(#clip0)">
<rect width="1440" height="2200" transform="translate(-528 -1045)" fill="white"/>
<rect x="-98.5" y="-99.5" width="273" height="293" rx="5.5" stroke="#CFCFCF"/>
<g clip-path="url(#clip1)">
<path fill-rule="evenodd" clip-rule="evenodd" d="M45.3886 36.5274C45.3886 33.2885 42.7387 30.6386 39.4999 30.6386C36.2612 30.6386 33.6113 33.2885 33.6113 36.5274V39.4717C33.6113 40.977 34.1838 42.3551 35.1217 43.3991C36.2019 44.6014 37.7666 45.3603 39.5001 45.3603C41.2336 45.3603 42.7983 44.6012 43.8783 43.3991C44.8163 42.3553 45.3887 40.977 45.3887 39.4717V36.5274H45.3886Z" fill="#BB6B57"/>
<path fill-rule="evenodd" clip-rule="evenodd" d="M43.8778 43.3991C42.7977 44.6013 41.2329 45.3603 39.4996 45.3603C37.7661 45.3603 36.2013 44.6012 35.1215 43.3988C31.627 45.0524 29.1943 48.6163 29.1943 52.7211V71.0047H49.8048V52.7211C49.8048 48.6166 47.3722 45.0526 43.8778 43.3991Z" fill="#FF5A58"/>
<path fill-rule="evenodd" clip-rule="evenodd" d="M27.164 36.5274C27.164 33.2885 24.5141 30.6386 21.2753 30.6386C18.0366 30.6386 15.3867 33.2885 15.3867 36.5274V39.4717C15.3867 40.977 15.9591 42.3551 16.8971 43.3991C17.9773 44.6014 19.542 45.3603 21.2755 45.3603C23.009 45.3603 24.5737 44.6012 25.6537 43.3991C26.5917 42.3553 27.1641 40.977 27.1641 39.4717V36.5274H27.164Z" fill="#CC9081"/>
<path fill-rule="evenodd" clip-rule="evenodd" d="M25.6542 43.3991C24.574 44.6013 23.0093 45.3603 21.2759 45.3603C19.5426 45.3603 17.9777 44.6012 16.8979 43.3988C13.4033 45.0524 10.9707 48.6163 10.9707 52.7211V71.0047H31.5812V52.7211C31.5812 48.6166 29.1486 45.0526 25.6542 43.3991Z" fill="#66E0F7"/>
<path fill-rule="evenodd" clip-rule="evenodd" d="M63.6132 36.5274C63.6132 33.2885 60.9633 30.6386 57.7246 30.6386C54.4857 30.6386 51.8359 33.2885 51.8359 36.5274V39.4717C51.8359 40.977 52.4084 42.3551 53.3463 43.3991C54.4265 44.6014 55.9912 45.3603 57.7246 45.3603C59.4581 45.3603 61.0228 44.6012 62.1029 43.3991C63.0409 42.3553 63.6133 40.977 63.6133 39.4717V36.5274H63.6132Z" fill="#CC9081"/>
<path fill-rule="evenodd" clip-rule="evenodd" d="M62.1025 43.3991C61.0224 44.6013 59.4577 45.3603 57.7242 45.3603C55.9907 45.3603 54.4259 44.6012 53.3461 43.3988C49.8516 45.0524 47.4189 48.6163 47.4189 52.7211V71.0047H68.0294V52.7211C68.0296 48.6166 65.5969 45.0526 62.1025 43.3991Z" fill="#FF9346"/>
<path fill-rule="evenodd" clip-rule="evenodd" d="M37.71 3.52133C35.0522 0.871878 30.7027 0.871878 28.0449 3.52133C20.8236 10.7194 34.7256 23.2994 39.5 24.5746C44.2744 23.2994 58.1764 10.7194 50.9551 3.52133C48.2973 0.871878 43.9478 0.871878 41.29 3.52133C40.2245 4.58325 38.6647 4.47293 37.71 3.52133Z" fill="#FF5A58"/>
<path fill-rule="evenodd" clip-rule="evenodd" d="M18.0526 57.5718C18.0526 54.333 15.4027 51.6832 12.164 51.6832C8.9253 51.6832 6.27539 54.3331 6.27539 57.5718V60.5162C6.27539 62.0215 6.84782 63.3996 7.7858 64.4436C8.86593 65.6458 10.4307 66.4048 12.164 66.4048C13.8975 66.4048 15.4622 65.6457 16.5424 64.4436C17.4804 63.3997 18.0528 62.0215 18.0528 60.5162V57.5718H18.0526Z" fill="#BB6B57"/>
<path fill-rule="evenodd" clip-rule="evenodd" d="M16.542 64.4437C15.4619 65.646 13.8971 66.4049 12.1636 66.4049C10.4301 66.4049 8.8654 65.6458 7.78558 64.4434C4.29103 66.0971 1.8584 69.6609 1.8584 73.7657V77.4699H22.4689V73.7657C22.469 69.6611 20.0364 66.0972 16.542 64.4437Z" fill="#FFC144"/>
<path fill-rule="evenodd" clip-rule="evenodd" d="M36.2772 57.5718C36.2772 54.333 33.6273 51.6832 30.3886 51.6832C27.1498 51.6832 24.5 54.3331 24.5 57.5718V60.5162C24.5 62.0215 25.0724 63.3996 26.0104 64.4436C27.0905 65.6458 28.6553 66.4048 30.3886 66.4048C32.1221 66.4048 33.6869 65.6457 34.7668 64.4436C35.7048 63.3997 36.2772 62.0215 36.2772 60.5162V57.5718Z" fill="#E5AE8C"/>
<path fill-rule="evenodd" clip-rule="evenodd" d="M34.7665 64.4437C33.6863 65.646 32.1216 66.4049 30.3882 66.4049C28.6547 66.4049 27.09 65.6458 26.0102 64.4434C22.5156 66.0971 20.083 69.6609 20.083 73.7657V77.4699H40.6935V73.7657C40.6935 69.6611 38.2607 66.0972 34.7665 64.4437Z" fill="#8481E2"/>
<path fill-rule="evenodd" clip-rule="evenodd" d="M54.5009 57.5718C54.5009 54.333 51.851 51.6832 48.6123 51.6832C45.3734 51.6832 42.7236 54.3331 42.7236 57.5718V60.5162C42.7236 62.0215 43.2961 63.3996 44.234 64.4436C45.3142 65.6458 46.8789 66.4048 48.6124 66.4048C50.3459 66.4048 51.9106 65.6457 52.9906 64.4436C53.9286 63.3997 54.501 62.0215 54.501 60.5162V57.5718H54.5009Z" fill="#CC9081"/>
<path fill-rule="evenodd" clip-rule="evenodd" d="M52.9911 64.4437C51.9109 65.646 50.3462 66.4049 48.6129 66.4049C46.8793 66.4049 45.3146 65.6458 44.2348 64.4434C40.7402 66.0971 38.3076 69.6609 38.3076 73.7657V77.4699H58.9181V73.7657C58.9181 69.6611 56.4855 66.0972 52.9911 64.4437Z" fill="white"/>
<path fill-rule="evenodd" clip-rule="evenodd" d="M72.7255 57.5718C72.7255 54.333 70.0756 51.6832 66.8369 51.6832C63.598 51.6832 60.9482 54.3331 60.9482 57.5718V60.5162C60.9482 62.0215 61.5207 63.3996 62.4587 64.4436C63.5388 65.6458 65.1035 66.4048 66.8369 66.4048C68.5704 66.4048 70.1351 65.6457 71.2151 64.4436C72.1531 63.3997 72.7255 62.0215 72.7255 60.5162V57.5718Z" fill="#E5AE8C"/>
<path fill-rule="evenodd" clip-rule="evenodd" d="M71.2147 64.4437C70.1346 65.646 68.5698 66.4049 66.8365 66.4049C65.103 66.4049 63.5383 65.6458 62.4584 64.4434C58.9639 66.0971 56.5312 69.6609 56.5312 73.7657V77.4699H77.1417V73.7657C77.1417 69.6611 74.7091 66.0972 71.2147 64.4437Z" fill="#CBE558"/>
<path d="M73.4155 63.9386C73.9507 62.9138 74.2552 61.7503 74.2552 60.5162V57.5718C74.2552 54.3692 72.2152 51.6345 69.3666 50.5977C68.7927 47.439 66.9713 44.6762 64.3038 42.8929C64.8385 41.8685 65.1429 40.7053 65.1429 39.4718V36.5274C65.1429 32.4367 61.8148 29.1086 57.7241 29.1086C53.6334 29.1086 50.3053 32.4367 50.3053 36.5274V39.4718C50.3053 40.7054 50.6097 41.8686 51.1446 42.8932C50.1825 43.5367 49.3308 44.3085 48.6072 45.1799C47.8791 44.3007 47.0285 43.5331 46.0782 42.8957C46.6139 41.8705 46.9187 40.7065 46.9187 39.4718V36.5274C46.9187 32.4367 43.5906 29.1086 39.4999 29.1086C35.4092 29.1086 32.0811 32.4367 32.0811 36.5274V39.4718C32.0811 40.7065 32.3859 41.8706 32.9218 42.8957C31.9661 43.5367 31.1115 44.3098 30.3805 45.1955C29.6557 44.3178 28.8062 43.5399 27.8535 42.8966C28.3895 41.8712 28.6946 40.7068 28.6946 39.4718V36.5274C28.6946 32.4367 25.3665 29.1086 21.2757 29.1086C17.185 29.1086 13.8569 32.4367 13.8569 36.5274V39.4718C13.8569 40.7054 14.1613 41.8686 14.6962 42.8932C12.0308 44.6757 10.2075 47.4391 9.63326 50.5978C6.78458 51.6345 4.74474 54.3692 4.74474 57.5718V60.5162C4.74474 61.7502 5.04924 62.9138 5.58449 63.9386C2.30936 66.1264 0.328125 69.769 0.328125 73.7658V77.47C0.328125 78.3151 1.01317 79.0001 1.85827 79.0001H20.0826H38.307H58.9175H77.1418C77.9868 79.0001 78.672 78.3151 78.672 77.47V73.7658C78.6718 69.769 76.6908 66.1262 73.4155 63.9386ZM71.1951 57.5718V60.5162C71.1951 62.9195 69.2399 64.8747 66.8366 64.8747C64.4334 64.8747 62.4781 62.9195 62.4781 60.5162V57.5718C62.4781 55.1684 64.4334 53.2133 66.8366 53.2133C69.2399 53.2133 71.1951 55.1685 71.1951 57.5718ZM66.1203 50.1882C62.3644 50.5498 59.4177 53.7227 59.4177 57.5718V60.5162C59.4177 61.7509 59.7226 62.9152 60.2585 63.9404C59.31 64.577 58.4606 65.3448 57.7325 66.2231C57.0098 65.3535 56.1562 64.5834 55.1911 63.9386C55.7264 62.9138 56.0309 61.7502 56.0309 60.5162V57.5718C56.0309 53.7228 53.0843 50.5499 49.3285 50.1882C49.9487 48.1722 51.2983 46.4037 53.106 45.2717C54.3743 46.2836 55.9791 46.8906 57.7241 46.8906C59.4689 46.8906 61.0738 46.2836 62.3421 45.2717C64.1512 46.4041 65.5002 48.1719 66.1203 50.1882ZM44.2535 60.5162V57.5718C44.2535 55.1685 46.2087 53.2133 48.6119 53.2133C51.0152 53.2133 52.9704 55.1685 52.9704 57.5718V60.5162C52.9704 62.9195 51.0152 64.8747 48.6119 64.8747C46.2087 64.8747 44.2535 62.9195 44.2535 60.5162ZM53.3656 36.5274C53.3656 34.1239 55.3209 32.1689 57.7241 32.1689C60.1274 32.1689 62.0826 34.1241 62.0826 36.5274V39.4718C62.0826 41.8751 60.1274 43.8303 57.7241 43.8303C55.3209 43.8303 53.3656 41.8751 53.3656 39.4718V36.5274ZM35.1413 36.5274C35.1413 34.1239 37.0965 32.1689 39.4998 32.1689C41.903 32.1689 43.8582 34.1241 43.8582 36.5274V39.4718C43.8582 41.8751 41.903 43.8303 39.4998 43.8303C37.0964 43.8303 35.1411 41.8751 35.1411 39.4718V36.5274H35.1413ZM34.8819 45.2717C36.1503 46.2836 37.7551 46.8906 39.4999 46.8906C41.2447 46.8906 42.8496 46.2836 44.1177 45.2718C45.2272 45.9624 46.1657 46.8858 46.8763 47.988C46.5149 48.8161 46.2466 49.6906 46.0817 50.5978C43.233 51.6345 41.1932 54.3693 41.1932 57.5718V60.5162C41.1932 61.7502 41.4977 62.9137 42.0329 63.9384C41.0682 64.5828 40.2148 65.3524 39.4924 66.2212C38.7648 65.3433 37.9153 64.5768 36.966 63.9401C37.5018 62.9149 37.8066 61.7508 37.8066 60.5161V57.5718C37.8066 54.3684 35.7657 51.6333 32.9161 50.5971C32.7501 49.7007 32.4793 48.8303 32.1142 48.0028C32.8259 46.8939 33.7678 45.9651 34.8819 45.2717ZM26.0291 60.5162V57.5718C26.0291 55.1684 27.9843 53.2133 30.3877 53.2133C32.7911 53.2133 34.7463 55.1685 34.7463 57.5718V60.5162C34.7463 62.9195 32.7911 64.8747 30.3877 64.8747C27.9843 64.8747 26.0291 62.9195 26.0291 60.5162ZM16.9169 36.5274C16.9169 34.1239 18.8721 32.1689 21.2754 32.1689C23.6788 32.1689 25.634 34.1241 25.634 36.5274V39.4718C25.634 41.8751 23.6788 43.8303 21.2755 43.8303C18.8721 43.8303 16.9169 41.8751 16.9169 39.4718V36.5274ZM16.6574 45.2717C17.9257 46.2836 19.5306 46.8906 21.2755 46.8906C23.0204 46.8906 24.6253 46.2836 25.8935 45.2717C27.7029 46.4041 29.0514 48.1718 29.6715 50.1882C25.9156 50.5498 22.9688 53.7227 22.9688 57.5718V60.5162C22.9688 61.7502 23.2733 62.9138 23.8085 63.9386C22.8441 64.5828 21.991 65.3521 21.2687 66.2206C20.5412 65.3426 19.6912 64.5768 18.7416 63.9401C19.2773 62.9149 19.5821 61.7509 19.5821 60.5162V57.5718C19.5821 53.7228 16.6355 50.5499 12.8798 50.1882C13.5002 48.1722 14.8497 46.4037 16.6574 45.2717ZM7.80489 57.5718C7.80489 55.1684 9.76011 53.2133 12.1635 53.2133C14.5668 53.2133 16.522 55.1685 16.522 57.5718V60.5162C16.522 62.9195 14.5668 64.8747 12.1635 64.8747C9.76011 64.8747 7.80489 62.9195 7.80489 60.5162V57.5718ZM3.38827 73.7658C3.38827 70.7023 4.96187 67.9177 7.54461 66.3157C8.81295 67.3279 10.4182 67.9352 12.1634 67.9352C13.9082 67.9352 15.513 67.3282 16.7813 66.3163C17.8899 67.0062 18.8273 67.9277 19.5373 69.0285C18.8978 70.493 18.5523 72.0984 18.5523 73.7658V75.9398H3.38827V73.7658ZM21.6126 73.7658C21.6126 70.7023 23.1861 67.9177 25.7688 66.3157C27.0372 67.3279 28.6424 67.9352 30.3876 67.9352C32.1324 67.9352 33.7372 67.3282 35.0056 66.3164C36.1135 67.0061 37.0511 67.9281 37.7614 69.0291C37.1221 70.4934 36.7765 72.0987 36.7765 73.7659V75.94H21.6125V73.7658H21.6126ZM39.837 73.7658C39.837 70.7023 41.4104 67.9177 43.9932 66.3157C45.2615 67.3279 46.8668 67.9352 48.6119 67.9352C50.3571 67.9352 51.9623 67.328 53.2307 66.3157C55.8133 67.9179 57.3872 70.7034 57.3872 73.7658V75.9398H39.837V73.7658ZM75.6115 75.9397H60.4475V73.7656C60.4475 72.099 60.102 70.4937 59.4625 69.0292C60.1731 67.9284 61.1117 67.0054 62.2185 66.3161C63.4867 67.328 65.0915 67.9349 66.8363 67.9349C68.5814 67.9349 70.1867 67.3277 71.455 66.3153C74.0379 67.9174 75.6114 70.702 75.6114 73.7655V75.9397H75.6115Z" fill="black"/>
<path d="M27.143 13.0079C27.9378 12.7209 28.3495 11.8438 28.0625 11.049C27.1003 8.38474 27.4478 6.27681 29.125 4.60497C31.1939 2.54249 34.5605 2.54249 36.6296 4.60497C38.239 6.20918 40.7606 6.20933 42.37 4.60497C44.4392 2.54249 47.8057 2.54249 49.8747 4.60497C51.3767 6.10222 51.8096 7.94192 51.1977 10.229C49.6645 15.9602 42.553 21.8127 39.5011 22.9669C38.6278 22.6339 37.4097 21.9062 36.1384 20.9505C35.4629 20.4425 34.5035 20.5785 33.9959 21.254C33.4881 21.9296 33.6239 22.8889 34.2995 23.3966C36.1259 24.7696 37.8325 25.7129 39.1051 26.0527C39.2344 26.0873 39.3672 26.1046 39.5 26.1046C39.6328 26.1046 39.7655 26.0873 39.8949 26.0527C41.9316 25.5088 45.0321 23.4243 47.7942 20.7421C49.691 18.9002 53.0392 15.1881 54.1542 11.0198C55.0483 7.67797 54.3157 4.71025 52.0353 2.43752C48.775 -0.812669 43.4698 -0.812669 40.2097 2.43752C39.7438 2.90176 39.1429 2.78899 38.7903 2.43752C35.5297 -0.812516 30.2249 -0.81221 26.9646 2.43752C24.4316 4.96241 23.8158 8.29967 25.1841 12.0883C25.4712 12.8832 26.3481 13.2945 27.143 13.0079Z" fill="black"/>
<path d="M30.2141 15.9143C29.369 15.9143 28.6846 16.5994 28.6846 17.4445C28.6846 18.2896 29.3701 18.9746 30.2152 18.9746C31.0603 18.9746 31.7453 18.2896 31.7453 17.4445C31.7453 16.5994 31.0603 15.9143 30.2152 15.9143H30.2141Z" fill="black"/>
</g>
</g>
<defs>
<clipPath id="clip0">
<rect width="1440" height="2200" fill="white" transform="translate(-528 -1045)"/>
</clipPath>
<clipPath id="clip1">
<rect width="79" height="79" fill="white"/>
</clipPath>
</defs>
</svg>
