<svg width="79" height="79" viewBox="0 0 79 79" fill="none" xmlns="http://www.w3.org/2000/svg">
<rect width="79" height="79" fill="#E5E5E5"/>
<g clip-path="url(#clip0)">
<rect width="1440" height="2200" transform="translate(-843 -1053)" fill="white"/>
<rect x="-105.5" y="-107.5" width="273" height="293" rx="5.5" stroke="#CFCFCF"/>
<g clip-path="url(#clip1)">
<path fill-rule="evenodd" clip-rule="evenodd" d="M9.25781 23.1454H23.7806C24.957 23.1454 25.9307 23.9403 26.3417 24.9676L29.3159 32.403H58.6316V3.08657C58.6316 2.23796 57.9372 1.54364 57.0886 1.54364H10.8007C9.95213 1.54364 9.25781 2.23796 9.25781 3.08657V23.1454Z" fill="white"/>
<path fill-rule="evenodd" clip-rule="evenodd" d="M26.3415 24.9678C25.9307 23.9405 24.9568 23.1456 23.7804 23.1456H9.25762H3.0859C2.23729 23.1456 1.54297 23.8399 1.54297 24.6885V69.4336C1.54297 71.1308 2.93161 72.5195 4.62883 72.5195H55.3445C43.5301 61.1893 47.1049 46.1591 47.1049 46.1591C50.8931 46.1591 59.2041 43.2161 62.026 40.4259C62.9735 41.3628 64.5397 42.3168 66.3459 43.1706V35.4888C66.3459 33.7918 64.9572 32.403 63.26 32.403H58.6312H29.3155L26.3415 24.9678Z" fill="#FFC144"/>
<path fill-rule="evenodd" clip-rule="evenodd" d="M62.0259 40.4258C59.204 43.216 50.893 46.159 47.1048 46.159C47.1048 46.159 43.53 61.1891 55.3443 72.5193C57.1775 74.2773 59.3811 75.9462 62.026 77.4561C81.7173 66.2151 76.9472 46.159 76.9472 46.159C74.4308 46.159 69.919 44.8605 66.3459 43.1708C64.5396 42.3166 62.9734 41.3626 62.0259 40.4258ZM54.0801 56.5283C55.2849 55.3232 57.2388 55.3232 58.4436 56.5283L60.2583 58.3429L65.6078 52.9934C66.8126 51.7884 68.7664 51.7884 69.9713 52.9934C71.1763 54.1983 71.1763 56.1521 69.9713 57.357L62.44 64.8883C61.2351 66.0933 59.2813 66.0933 58.0764 64.8883L54.0799 60.8918C52.8752 59.6869 52.8752 57.7333 54.0801 56.5283Z" fill="#6D91AC"/>
<path fill-rule="evenodd" clip-rule="evenodd" d="M60.2587 58.343L58.4441 56.5284C57.2392 55.3234 55.2854 55.3234 54.0805 56.5284C52.8755 57.7333 52.8755 59.6871 54.0805 60.892L58.077 64.8885C59.2821 66.0935 61.2357 66.0935 62.4406 64.8885L69.9719 57.3571C71.177 56.1522 71.177 54.1984 69.9719 52.9936C68.7671 51.7885 66.8133 51.7885 65.6084 52.9936L60.2587 58.343Z" fill="#CBE558"/>
<path d="M78.4482 45.803C78.283 45.1077 77.6618 44.6171 76.9471 44.6171C74.8461 44.6171 71.0766 43.5708 67.8889 42.1854V35.4899C67.8889 32.9375 65.8124 30.8611 63.2601 30.8611H60.1743V3.08757C60.1743 1.38603 58.7899 0.00170898 57.0884 0.00170898H10.8005C9.09896 0.00170898 7.71465 1.38603 7.71465 3.08757V21.6035H3.08586C1.38432 21.6035 0 22.9878 0 24.6894V69.4345C0 71.9868 2.07647 74.0633 4.62879 74.0633H54.7455C56.5604 75.7406 58.7113 77.3414 61.2612 78.7971C61.4982 78.9324 61.7622 79 62.0262 79C62.2902 79 62.5541 78.9323 62.7912 78.7971C73.4691 72.7016 77.1647 64.0646 78.3847 57.8924C79.7034 51.2205 78.5001 46.0211 78.4482 45.803ZM10.8005 3.08757H57.0884V30.8611H30.3604L27.7741 24.3956C27.0957 22.6994 25.5281 21.6033 23.7806 21.6033H10.8005V3.08757ZM3.08586 69.4345V67.8914H11.1085C11.9606 67.8914 12.6514 67.2006 12.6514 66.3485C12.6514 65.4963 11.9606 64.8055 11.1085 64.8055H3.08586V24.6894H23.7806C24.3246 24.6894 24.7393 25.1174 24.9091 25.5417L27.8834 32.977C28.1177 33.5629 28.6851 33.9469 29.316 33.9469H63.2604C64.1112 33.9469 64.8034 34.6391 64.8034 35.4899V40.6048C64.1194 40.1814 63.538 39.7516 63.1112 39.3294C62.5101 38.735 61.5427 38.735 60.9414 39.3294C58.4108 41.8318 50.534 44.6169 47.1052 44.6169C46.3906 44.6169 45.7695 45.1076 45.6041 45.8028C45.5522 46.021 44.3489 51.2203 45.6678 57.8923C46.4217 61.7066 48.1221 66.462 51.8304 70.9774H4.62879C3.77802 70.9774 3.08586 70.2852 3.08586 69.4345ZM75.3573 57.2939C73.817 65.0859 69.334 71.2636 62.0261 75.6684C54.7586 71.2877 50.2838 65.1511 48.7194 57.4164C47.8441 53.0881 48.1601 49.3872 48.4131 47.6221C52.394 47.1742 58.6815 44.9263 62.0262 42.4423C65.3716 44.9269 71.6611 47.1751 75.642 47.6224C75.8941 49.3642 76.207 52.995 75.3573 57.2939Z" fill="black"/>
<path d="M16.4326 9.25853H51.4569C52.3091 9.25853 52.9998 8.56776 52.9998 7.7156C52.9998 6.86344 52.3091 6.17267 51.4569 6.17267H16.4326C15.5804 6.17267 14.8896 6.86344 14.8896 7.7156C14.8896 8.56776 15.5804 9.25853 16.4326 9.25853Z" fill="black"/>
<path d="M52.9998 13.8873C52.9998 13.0351 52.3091 12.3444 51.4569 12.3444H16.4326C15.5804 12.3444 14.8896 13.0351 14.8896 13.8873C14.8896 14.7395 15.5804 15.4302 16.4326 15.4302H51.4569C52.3089 15.4302 52.9998 14.7395 52.9998 13.8873Z" fill="black"/>
<path d="M51.4565 18.5161H33.9443C33.0921 18.5161 32.4014 19.2069 32.4014 20.059C32.4014 20.9112 33.0921 21.602 33.9443 21.602H51.4565C52.3087 21.602 52.9995 20.9112 52.9995 20.059C52.9995 19.2069 52.3085 18.5161 51.4565 18.5161Z" fill="black"/>
<path d="M51.4568 24.6877H42.3535C41.5013 24.6877 40.8105 25.3785 40.8105 26.2307C40.8105 27.0828 41.5013 27.7736 42.3535 27.7736H51.4568C52.3089 27.7736 52.9997 27.0828 52.9997 26.2307C52.9997 25.3785 52.3088 24.6877 51.4568 24.6877Z" fill="black"/>
<path d="M67.7901 50.5468C66.5538 50.5468 65.3915 51.0284 64.5173 51.9026L60.2588 56.1611L59.5351 55.4374C58.6609 54.5632 57.4986 54.0818 56.2623 54.0818C55.0259 54.0818 53.8636 54.5634 52.9896 55.4374C52.1153 56.3117 51.6338 57.4739 51.6338 58.7103C51.6338 59.9466 52.1153 61.1089 52.9894 61.9832L56.9859 65.9797C57.8882 66.882 59.0735 67.333 60.2586 67.333C61.4437 67.333 62.6292 66.8818 63.5315 65.9797L71.0628 58.4483C72.8674 56.6437 72.8674 53.7072 71.0628 51.9027C70.1889 51.0284 69.0266 50.5468 67.7901 50.5468ZM68.881 56.266L61.3498 63.7973C60.7483 64.3988 59.7697 64.3986 59.1682 63.7973L55.1717 59.8008C54.8803 59.5095 54.72 59.1221 54.72 58.7101C54.72 58.298 54.8804 57.9107 55.1717 57.6194C55.463 57.328 55.8505 57.1677 56.2624 57.1677C56.6744 57.1677 57.0618 57.3281 57.3531 57.6194L59.1678 59.4341C59.4571 59.7234 59.8496 59.886 60.2588 59.886C60.668 59.886 61.0605 59.7234 61.3498 59.4341L66.6993 54.0846C66.9906 53.7931 67.378 53.6328 67.79 53.6328C68.2021 53.6328 68.5894 53.7933 68.8807 54.0846C69.4824 54.686 69.4824 55.6646 68.881 56.266Z" fill="black"/>
<path d="M18.0518 64.8046C17.1996 64.8046 16.5088 65.4954 16.5088 66.3475C16.5088 67.1997 17.1996 67.8905 18.0518 67.8905H18.0528C18.905 67.8905 19.5953 67.1997 19.5953 66.3475C19.5953 65.4954 18.9039 64.8046 18.0518 64.8046Z" fill="black"/>
</g>
</g>
<defs>
<clipPath id="clip0">
<rect width="1440" height="2200" fill="white" transform="translate(-843 -1053)"/>
</clipPath>
<clipPath id="clip1">
<rect width="79" height="79" fill="white"/>
</clipPath>
</defs>
</svg>
