<svg width="79" height="79" viewBox="0 0 79 79" fill="none" xmlns="http://www.w3.org/2000/svg">
<rect width="79" height="79" fill="#E5E5E5"/>
<g clip-path="url(#clip0)">
<rect width="1440" height="2200" transform="translate(-217 -1051)" fill="white"/>
<rect x="-95.5" y="-105.5" width="273" height="293" rx="5.5" stroke="#DBDBDB"/>
<path d="M1.54297 24.9961H77.457V77.457H1.54297V24.9961Z" fill="white"/>
<path d="M10.1836 33.6367H24.8614V45.3633H10.1836V33.6367Z" fill="#FFCD69"/>
<path d="M10.1836 57.0898H24.8614V68.8164H10.1836V57.0898Z" fill="#7DD9C2"/>
<path d="M39.5195 57.0898H54.1973V68.8164H39.5195V57.0898Z" fill="#7DD9C2"/>
<path d="M10.1836 45.3633H24.8614V57.0898H10.1836V45.3633Z" fill="#FF7D97"/>
<path d="M24.8613 45.3633H39.5391V57.0898H24.8613V45.3633Z" fill="#FF7D97"/>
<path d="M54.1777 45.3633H68.8555V57.0898H54.1777V45.3633Z" fill="#FF7D97"/>
<path d="M39.5195 33.6367H54.1973V45.3633H39.5195V33.6367Z" fill="#FFCD69"/>
<path d="M1.54297 7.71484H77.457V24.9961H1.54297V7.71484Z" fill="#00CCF2"/>
<path d="M61.1016 11.7266V4.9375C61.1016 3.06279 62.6214 1.54297 64.4961 1.54297C66.3708 1.54297 67.8906 3.06279 67.8906 4.9375V11.7266C67.8906 13.6013 66.3708 15.1211 64.4961 15.1211C62.6214 15.1211 61.1016 13.6013 61.1016 11.7266Z" fill="#E2E9EE"/>
<path d="M44.4375 11.7266V4.9375C44.4375 3.06279 45.9573 1.54297 47.832 1.54297C49.7067 1.54297 51.2266 3.06279 51.2266 4.9375V11.7266C51.2266 13.6013 49.7067 15.1211 47.832 15.1211C45.9573 15.1211 44.4375 13.6013 44.4375 11.7266Z" fill="#E2E9EE"/>
<path d="M27.7734 11.7266V4.9375C27.7734 3.06279 29.2933 1.54297 31.168 1.54297C33.0427 1.54297 34.5625 3.06279 34.5625 4.9375V11.7266C34.5625 13.6013 33.0427 15.1211 31.168 15.1211C29.2933 15.1211 27.7734 13.6013 27.7734 11.7266Z" fill="#E2E9EE"/>
<path d="M11.1094 11.7266V4.9375C11.1094 3.06279 12.6292 1.54297 14.5039 1.54297C16.3786 1.54297 17.8984 3.06279 17.8984 4.9375V11.7266C17.8984 13.6013 16.3786 15.1211 14.5039 15.1211C12.6292 15.1211 11.1094 13.6013 11.1094 11.7266Z" fill="#E2E9EE"/>
<path d="M77.457 6.17188H69.4336V4.9375C69.4336 2.21493 67.2187 0 64.4961 0C61.7735 0 59.5586 2.21493 59.5586 4.9375V6.17188H52.7695V4.9375C52.7695 2.21493 50.5546 0 47.832 0C45.1095 0 42.8945 2.21493 42.8945 4.9375V6.17188H36.1055V4.9375C36.1055 2.21493 33.8905 0 31.168 0C28.4454 0 26.2305 2.21493 26.2305 4.9375V6.17188H19.4414V4.9375C19.4414 2.21493 17.2265 0 14.5039 0C11.7813 0 9.56641 2.21493 9.56641 4.9375V6.17188H1.54297C0.690787 6.17188 0 6.86266 0 7.71484V77.457C0 78.3092 0.690787 79 1.54297 79H77.457C78.3092 79 79 78.3092 79 77.457V7.71484C79 6.86266 78.3092 6.17188 77.457 6.17188ZM62.6445 4.9375C62.6445 3.91652 63.4751 3.08594 64.4961 3.08594C65.5171 3.08594 66.3477 3.91652 66.3477 4.9375V11.7266C66.3477 12.7475 65.5171 13.5781 64.4961 13.5781C63.4751 13.5781 62.6445 12.7475 62.6445 11.7266V4.9375ZM45.9805 4.9375C45.9805 3.91652 46.8111 3.08594 47.832 3.08594C48.853 3.08594 49.6836 3.91652 49.6836 4.9375V11.7266C49.6836 12.7475 48.853 13.5781 47.832 13.5781C46.8111 13.5781 45.9805 12.7475 45.9805 11.7266V4.9375ZM29.3164 4.9375C29.3164 3.91652 30.147 3.08594 31.168 3.08594C32.1889 3.08594 33.0195 3.91652 33.0195 4.9375V11.7266C33.0195 12.7475 32.1889 13.5781 31.168 13.5781C30.147 13.5781 29.3164 12.7475 29.3164 11.7266V4.9375ZM12.6523 4.9375C12.6523 3.91652 13.4829 3.08594 14.5039 3.08594C15.5249 3.08594 16.3555 3.91652 16.3555 4.9375V11.7266C16.3555 12.7475 15.5249 13.5781 14.5039 13.5781C13.4829 13.5781 12.6523 12.7475 12.6523 11.7266V4.9375ZM3.08594 75.9141V26.5391H32.5566C33.4088 26.5391 34.0996 25.8483 34.0996 24.9961C34.0996 24.1439 33.4088 23.4531 32.5566 23.4531H3.08594V9.25781H9.56641V11.7266C9.56641 14.4491 11.7813 16.6641 14.5039 16.6641C17.2265 16.6641 19.4414 14.4491 19.4414 11.7266V9.25781H26.2305V11.7266C26.2305 14.4491 28.4454 16.6641 31.168 16.6641C33.8905 16.6641 36.1055 14.4491 36.1055 11.7266V9.25781H42.8945V11.7266C42.8945 14.4491 45.1095 16.6641 47.832 16.6641C50.5546 16.6641 52.7695 14.4491 52.7695 11.7266V9.25781H59.5586V11.7266C59.5586 14.4491 61.7735 16.6641 64.4961 16.6641C67.2187 16.6641 69.4336 14.4491 69.4336 11.7266V9.25781H75.9141V23.4531H46.4434C45.5912 23.4531 44.9004 24.1439 44.9004 24.9961C44.9004 25.8483 45.5912 26.5391 46.4434 26.5391H75.9141V75.9141H3.08594Z" fill="black"/>
<path d="M68.8164 32.0938H10.1836C9.33141 32.0938 8.64062 32.7845 8.64062 33.6367V68.8164C8.64062 69.6686 9.33141 70.3594 10.1836 70.3594H68.8164C69.6686 70.3594 70.3594 69.6686 70.3594 68.8164V33.6367C70.3594 32.7845 69.6686 32.0938 68.8164 32.0938ZM11.7266 46.9062H23.3184V55.5469H11.7266V46.9062ZM26.4044 46.9062H37.9766V55.5469H26.4044V46.9062ZM37.9766 43.8203H26.4044V35.1797H37.9766V43.8203ZM41.0626 35.1797H52.6348V43.8203H41.0626V35.1797ZM37.9766 58.6328V67.2734H26.4044V58.6328H37.9766ZM41.0626 58.6328H52.6348V67.2734H41.0626V58.6328ZM41.0626 55.5469V46.9062H52.6348V55.5469H41.0626ZM55.7208 46.9062H67.2734V55.5469H55.7208V46.9062ZM67.2734 43.8203H55.7208V35.1797H67.2734V43.8203ZM23.3184 35.1797V43.8203H11.7266V35.1797H23.3184ZM11.7266 58.6328H23.3184V67.2734H11.7266V58.6328ZM55.7208 67.2734V58.6328H67.2734V67.2734H55.7208Z" fill="black"/>
<path d="M39.5 26.5391C39.9058 26.5391 40.3039 26.374 40.5909 26.087C40.8779 25.8 41.043 25.4019 41.043 24.9961C41.043 24.5903 40.8779 24.1922 40.5909 23.9052C40.3039 23.6182 39.9058 23.4531 39.5 23.4531C39.0942 23.4531 38.6961 23.6182 38.4091 23.9052C38.1221 24.1922 37.957 24.5903 37.957 24.9961C37.957 25.4019 38.1221 25.8 38.4091 26.087C38.6961 26.374 39.0942 26.5391 39.5 26.5391Z" fill="black"/>
</g>
<defs>
<clipPath id="clip0">
<rect width="1440" height="2200" fill="white" transform="translate(-217 -1051)"/>
</clipPath>
</defs>
</svg>
