<svg width="79" height="79" viewBox="0 0 79 79" fill="none" xmlns="http://www.w3.org/2000/svg">
<rect width="79" height="79" fill="#E5E5E5"/>
<g clip-path="url(#clip0)">
<rect width="1440" height="2200" transform="translate(-529 -719)" fill="white"/>
<rect x="-99.5" y="-96.5" width="273" height="293" rx="5.5" stroke="#CFCFCF"/>
<path d="M44.1289 28.3906H10.8008C5.68785 28.3906 1.54297 32.5355 1.54297 37.6484V61.4102C1.54297 66.5231 5.68785 70.668 10.8008 70.668H20.8268L20.6878 70.68L27.4648 77.457L27.4696 70.668H44.1289C49.2418 70.668 53.3867 66.5231 53.3867 61.4102V37.6484C53.3867 32.5355 49.2418 28.3906 44.1289 28.3906Z" fill="#C7EAFF"/>
<path d="M27.4652 79C27.0635 79 26.669 78.8432 26.3738 78.5481L20.0367 72.2109H10.8008C4.84523 72.2109 0 67.3657 0 61.4102V37.6484C0 31.6929 4.84523 26.8477 10.8008 26.8477H26.3848C27.2368 26.8477 27.9277 27.5384 27.9277 28.3906C27.9277 29.2428 27.2368 29.9336 26.3848 29.9336H10.8008C6.54682 29.9336 3.08594 33.3945 3.08594 37.6484V61.4102C3.08594 65.6641 6.54682 69.125 10.8008 69.125H20.8268C21.4579 69.125 22.0035 69.5047 22.2419 70.052L25.9247 73.7346L25.9268 70.6669C25.9274 69.8152 26.6179 69.125 27.4698 69.125H44.1289C48.3829 69.125 51.8438 65.6641 51.8438 61.4102V50.7637C51.8438 49.9115 52.5347 49.2207 53.3867 49.2207C54.2387 49.2207 54.9297 49.9115 54.9297 50.7637V61.4102C54.9297 67.3657 50.0845 72.2109 44.1289 72.2109H29.0115L29.0078 77.4581C29.0073 78.0819 28.6313 78.6442 28.0547 78.8827C27.8642 78.9616 27.6637 79 27.4652 79Z" fill="black"/>
<path d="M56.5737 1.54297H52.6686C41.1351 1.54297 31.7852 10.8927 31.7852 22.4264C31.7852 33.96 41.1349 43.3099 52.6686 43.3099H56.5737C58.7113 43.3099 60.7737 42.988 62.7155 42.3914L69.125 48.7972V39.1177C74.185 35.3067 77.457 29.2488 77.457 22.4263C77.457 10.8927 68.1073 1.54297 56.5737 1.54297Z" fill="#FFBC53"/>
<path d="M69.1253 50.3401C68.7238 50.3401 68.3294 50.1834 68.0343 49.8885L62.2656 44.123C60.414 44.6075 58.5037 44.8527 56.5736 44.8527H52.6685C40.3027 44.8527 30.2422 34.7924 30.2422 22.4264C30.2422 10.0605 40.3027 0 52.6686 0H56.5737C68.9395 0 79 10.0605 79 22.4264C79 26.0086 78.1802 29.4323 76.563 32.6025C75.1392 35.3937 73.1103 37.8922 70.668 39.8702V48.7972C70.668 49.4211 70.2921 49.9837 69.7156 50.2226C69.5248 50.3017 69.3242 50.3401 69.1253 50.3401ZM62.7154 40.8482C63.1184 40.8482 63.5125 41.0064 63.8062 41.2999L67.582 45.0737V39.1178C67.582 38.6332 67.8098 38.1768 68.1966 37.8853C73.1012 34.1914 75.9141 28.5568 75.9141 22.4264C75.9141 11.762 67.2381 3.08594 56.5737 3.08594H52.6686C42.0042 3.08594 33.3281 11.762 33.3281 22.4264C33.3281 33.0908 42.0041 41.7669 52.6686 41.7669H56.5737C58.5118 41.7669 60.4257 41.4809 62.2623 40.9164C62.4114 40.8706 62.5641 40.8482 62.7154 40.8482Z" fill="black"/>
<path d="M55.0531 28.8186C54.2011 28.8186 53.5102 28.1279 53.5102 27.2757V23.5687C53.5102 22.1866 54.456 21.0097 55.8104 20.7066C57.4821 20.3326 58.6095 18.814 58.491 17.0956C58.3738 15.3942 57.0022 14.0226 55.3006 13.9054C54.3301 13.8384 53.4077 14.1644 52.702 14.8231C51.9956 15.4824 51.6064 16.3775 51.6064 17.3433C51.6064 18.1955 50.9155 18.8862 50.0635 18.8862C49.2114 18.8862 48.5205 18.1955 48.5205 17.3433C48.5205 15.5394 49.277 13.7986 50.5963 12.5672C51.9339 11.3184 53.6814 10.7008 55.5126 10.8265C58.743 11.0492 61.3469 13.6531 61.5695 16.8833C61.791 20.0959 59.705 22.9409 56.5959 23.692V27.2757C56.5961 28.1279 55.9053 28.8186 55.0531 28.8186Z" fill="black"/>
<path d="M55.0537 34.922C54.6479 34.922 54.2498 34.7584 53.9628 34.4714C53.676 34.1845 53.5107 33.7864 53.5107 33.379C53.5107 32.9732 53.6758 32.5751 53.9628 32.2881C54.2498 32.0012 54.6479 31.8361 55.0537 31.8361C55.4595 31.8361 55.8576 32.0012 56.1446 32.2881C56.4314 32.5751 56.5967 32.9732 56.5967 33.379C56.5967 33.7864 56.4316 34.1829 56.1446 34.4714C55.8576 34.7584 55.4595 34.922 55.0537 34.922Z" fill="black"/>
<path d="M42.4316 50.918H9.875C9.02297 50.918 8.33203 50.2272 8.33203 49.375C8.33203 48.5228 9.02297 47.832 9.875 47.832H42.4316C43.2837 47.832 43.9746 48.5228 43.9746 49.375C43.9746 50.2272 43.2838 50.918 42.4316 50.918Z" fill="black"/>
<path d="M42.4316 59.5586C42.0258 59.5586 41.6278 59.3935 41.3408 59.1065C41.0538 58.8195 40.8887 58.4214 40.8887 58.0156C40.8887 57.6098 41.0536 57.2117 41.3408 56.9247C41.6278 56.6378 42.0258 56.4727 42.4316 56.4727C42.8374 56.4727 43.2355 56.6378 43.5224 56.9247C43.8094 57.2117 43.9746 57.6098 43.9746 58.0156C43.9746 58.423 43.8095 58.8195 43.5224 59.1065C43.2355 59.3935 42.8374 59.5586 42.4316 59.5586Z" fill="black"/>
<path d="M36.3627 59.5586H9.875C9.02297 59.5586 8.33203 58.8678 8.33203 58.0156C8.33203 57.1634 9.02297 56.4727 9.875 56.4727H36.3627C37.2147 56.4727 37.9057 57.1634 37.9057 58.0156C37.9057 58.8678 37.2149 59.5586 36.3627 59.5586Z" fill="black"/>
<path d="M32.4023 42.2773H9.875C9.02297 42.2773 8.33203 41.5866 8.33203 40.7344C8.33203 39.8822 9.02297 39.1914 9.875 39.1914H32.4023C33.2544 39.1914 33.9453 39.8822 33.9453 40.7344C33.9453 41.5866 33.2545 42.2773 32.4023 42.2773Z" fill="black"/>
</g>
<defs>
<clipPath id="clip0">
<rect width="1440" height="2200" fill="white" transform="translate(-529 -719)"/>
</clipPath>
</defs>
</svg>
