<svg width="75" height="72" viewBox="0 0 75 72" fill="none" xmlns="http://www.w3.org/2000/svg">
<rect width="75" height="72" fill="#E5E5E5"/>
<g clip-path="url(#clip0)">
<rect width="1440" height="2200" transform="translate(-217 -722)" fill="white"/>
<rect x="-95.5" y="-99.5" width="273" height="293" rx="5.5" stroke="#CFCFCF"/>
<path d="M37.4996 31.4235C43.3016 26.386 51.4692 24.7269 58.8629 27.2864C59.1211 25.946 59.2581 24.5621 59.2581 23.1463C59.2581 11.1294 49.5164 1.38791 37.4996 1.38791C25.4829 1.38791 15.7412 11.1296 15.7412 23.1465C15.7412 24.5623 15.878 25.9461 16.1364 27.2866C23.5301 24.7271 31.6975 26.386 37.4996 31.4235Z" fill="#72D8FF"/>
<path d="M30.401 43.7193C23.1374 41.2134 17.6168 34.9696 16.1367 27.2866C14.8468 27.7331 13.58 28.3066 12.3536 29.0145C1.94672 35.0229 -1.61901 48.3303 4.38936 58.7372C10.3977 69.1441 23.7052 72.7098 34.112 66.7014C35.3383 65.9935 36.4681 65.1831 37.4999 64.2893C31.5863 59.1654 28.9395 51.2627 30.401 43.7193Z" fill="#E889C3"/>
<path d="M30.401 43.7193C30.8486 41.4085 31.6808 39.1314 32.9236 36.9786C34.1665 34.8259 35.7225 32.9667 37.4999 31.4235C31.698 26.386 23.5304 24.7269 16.1367 27.2865C17.6169 34.9696 23.1374 41.2132 30.401 43.7193Z" fill="#ADE5FF"/>
<path d="M62.6463 29.0144C61.4201 28.3064 60.1534 27.7331 58.8632 27.2864C57.383 34.9694 51.8624 41.2132 44.5989 43.7191C46.0604 51.2625 43.4134 59.1654 37.5 64.2887C38.5318 65.1827 39.6618 65.993 40.8879 66.7009C51.2948 72.7092 64.6022 69.1436 70.6106 58.7366C76.6188 48.3302 73.0532 35.0229 62.6463 29.0144Z" fill="#FFB954"/>
<path d="M37.5 31.4235C39.2773 32.9666 40.8333 34.8257 42.0763 36.9786C43.3194 39.1315 44.1513 41.4085 44.599 43.7193C51.8626 41.2134 57.3831 34.9696 58.8632 27.2866C51.4694 24.7271 43.3021 26.386 37.5 31.4235Z" fill="#FEDA9B"/>
<path d="M44.5985 43.7193C42.3736 44.4868 39.9854 44.9049 37.4996 44.9049C35.0137 44.9049 32.6257 44.4868 30.4006 43.7193C28.9392 51.2627 31.5861 59.1655 37.4996 64.2888C43.4133 59.1654 46.0603 51.2627 44.5985 43.7193Z" fill="#FCB8E7"/>
<path d="M37.4993 31.4235C35.722 32.9665 34.1661 34.8257 32.923 36.9786C31.6799 39.1315 30.848 41.4085 30.4004 43.7193C32.6254 44.4868 35.0135 44.9049 37.4993 44.9049C39.9852 44.9049 42.3732 44.4868 44.5983 43.7193C44.1506 41.4085 43.3185 39.1313 42.0757 36.9786C40.8329 34.8259 39.2768 32.9667 37.4993 31.4235Z" fill="white"/>
<path d="M37.4997 2.85276H37.5409C38.3498 2.85276 39.0054 2.19709 39.0054 1.3882C39.0054 0.579312 38.3498 -0.076355 37.5409 -0.076355H37.4997C36.6908 -0.076355 36.0352 0.579312 36.0352 1.3882C36.0352 2.19709 36.6908 2.85276 37.4997 2.85276Z" fill="black"/>
<path d="M74.1983 41.8472C72.5928 35.8554 68.7501 30.8475 63.3782 27.746C62.4445 27.2069 61.4834 26.7383 60.5023 26.3376C60.6464 25.2939 60.7226 24.229 60.7226 23.1465C60.7226 17.9758 59.0597 13.0822 55.9138 8.99441C52.8678 5.03668 48.5555 2.11958 43.7715 0.780708C42.9916 0.562445 42.1843 1.01743 41.9663 1.79643C41.7482 2.57544 42.2031 3.3836 42.9821 3.60157C51.7029 6.0423 57.7936 14.0795 57.7936 23.1466C57.7936 23.9041 57.7505 24.6518 57.6692 25.388C53.8042 24.3661 49.7218 24.3633 45.7563 25.4262C42.709 26.2427 39.9169 27.639 37.4999 29.52C35.0829 27.6392 32.2907 26.2429 29.2434 25.4262C25.278 24.3635 21.1955 24.3661 17.3305 25.388C17.2492 24.6518 17.2061 23.9041 17.2061 23.1466C17.2061 14.071 23.3042 6.03161 32.0354 3.59674C32.8146 3.3795 33.2701 2.57163 33.0527 1.79263C32.8355 1.01347 32.0276 0.558051 31.2485 0.775288C26.4596 2.11079 22.1424 5.02701 19.0921 8.9865C15.942 13.0758 14.277 17.9725 14.277 23.1468C14.277 24.2294 14.3532 25.2945 14.4973 26.3379C13.5162 26.7387 12.5551 27.2072 11.6214 27.7462C6.24936 30.8478 2.40662 35.8558 0.801291 41.8475C-0.804184 47.8391 0.0197939 54.0976 3.12117 59.4696C7.41787 66.9116 15.2394 71.0768 23.2719 71.0766C27.2089 71.0766 31.1969 70.0759 34.8445 67.97C35.7829 67.4283 36.6678 66.8292 37.5002 66.182C38.3325 66.8292 39.2174 67.4283 40.1558 67.97C43.8041 70.0764 47.7906 71.0766 51.7284 71.0766C59.76 71.0766 67.5829 66.911 71.8792 59.4696C74.9798 54.0973 75.8038 47.8389 74.1983 41.8472ZM46.5141 28.2554C48.2626 27.787 50.0368 27.5552 51.7996 27.5552C53.6037 27.5552 55.3952 27.7997 57.135 28.2799C55.5556 34.3168 51.2588 39.2652 45.6356 41.7359C45.1224 39.856 44.3631 38.0112 43.3442 36.2463C42.3327 34.4945 41.1175 32.9066 39.7326 31.5046C41.7427 30.0261 44.0315 28.9206 46.5141 28.2554ZM42.8346 53.1103C41.8862 56.6498 40.0433 59.7952 37.4993 62.3C34.9553 59.7952 33.1125 56.6498 32.164 53.1103C31.4982 50.6254 31.3115 48.0882 31.5877 45.606C33.4759 46.1033 35.4571 46.3695 37.4991 46.3695C39.5414 46.3695 41.5224 46.1033 43.4105 45.606C43.6871 48.0882 43.5005 50.6253 42.8346 53.1103ZM37.4994 43.4402C35.6398 43.4402 33.8383 43.1874 32.1262 42.7169C32.5824 40.9854 33.272 39.3035 34.1915 37.7109C35.1123 36.1161 36.2257 34.6762 37.4993 33.414C38.773 34.6762 39.8864 36.1161 40.8071 37.7109C41.7265 39.3035 42.4162 40.9853 42.8724 42.7169C41.1604 43.1875 39.3589 43.4402 37.4994 43.4402ZM23.1993 27.5552C24.9618 27.5552 26.7366 27.7871 28.4847 28.2554C30.9674 28.9206 33.2562 30.0261 35.2664 31.5045C33.8815 32.9065 32.6662 34.4945 31.6548 36.2462C30.6357 38.0112 29.8766 39.8559 29.3634 41.7357C23.7404 39.2651 19.4436 34.3167 17.864 28.2797C19.6035 27.7997 21.3952 27.5552 23.1993 27.5552ZM33.3792 65.4327C28.6848 68.1431 23.2158 68.8631 17.9799 67.4601C12.7439 66.0572 8.36768 62.6992 5.65727 58.0046C2.94686 53.3102 2.22688 47.8415 3.62992 42.6055C5.0328 37.3696 8.39082 32.9933 13.0854 30.2829C13.7412 29.9043 14.413 29.5669 15.0963 29.2662C17.0109 36.2671 22.1263 41.9584 28.7656 44.6632C27.7882 51.7658 30.1597 59.0419 35.2657 64.2003C34.6639 64.6418 34.0352 65.0541 33.3792 65.4327ZM69.3416 58.0048C66.6312 62.6993 62.2549 66.0572 57.019 67.4602C51.783 68.8631 46.3142 68.1431 41.6196 65.4329C40.9638 65.0541 40.3349 64.6418 39.7329 64.2003C44.8391 59.0419 47.2104 51.7657 46.233 44.6632C52.8723 41.9584 57.9877 36.2671 59.9023 29.2662C60.5856 29.5668 61.2572 29.9041 61.9132 30.2829C66.6077 32.9933 69.9658 37.3696 71.3687 42.6055C72.7718 47.8413 72.0519 53.3102 69.3416 58.0048Z" fill="black"/>
<path d="M64.6825 38.7454C63.9808 39.1479 63.7382 40.0429 64.1406 40.7446C65.8593 43.7415 66.4381 47.251 65.7701 50.6272C65.6131 51.4206 66.1292 52.1912 66.9227 52.3481C67.0186 52.3671 67.1143 52.3762 67.2086 52.3762C67.8936 52.3762 68.5057 51.8933 68.6437 51.1956C69.4488 47.1264 68.7521 42.8972 66.6817 39.2872C66.279 38.5856 65.3842 38.343 64.6825 38.7454Z" fill="black"/>
<path d="M66.1391 54.4253C65.4376 54.023 64.5424 54.2655 64.1399 54.9671L64.1271 54.9894C63.7208 55.6889 63.9585 56.5852 64.6578 56.9915C64.8894 57.126 65.1424 57.1899 65.3922 57.1899C65.8968 57.1899 66.3881 56.9286 66.66 56.4607L66.681 56.4244C67.0835 55.7227 66.8409 54.8277 66.1391 54.4253Z" fill="black"/>
</g>
<defs>
<clipPath id="clip0">
<rect width="1440" height="2200" fill="white" transform="translate(-217 -722)"/>
</clipPath>
</defs>
</svg>
