<svg width="65" height="79" viewBox="0 0 65 79" fill="none" xmlns="http://www.w3.org/2000/svg">
<rect width="65" height="79" fill="#E5E5E5"/>
<g clip-path="url(#clip0)">
<rect width="1440" height="2200" transform="translate(-841 -731)" fill="white"/>
<rect x="-103.5" y="-108.5" width="273" height="293" rx="5.5" stroke="#CFCFCF"/>
<path fill-rule="evenodd" clip-rule="evenodd" d="M11.7412 1.54297V65.8274H44.1827H63.2051V1.54297H11.7412Z" fill="#DFEDFF"/>
<path fill-rule="evenodd" clip-rule="evenodd" d="M22.5146 48.2846V54.8058C22.5146 55.3744 22.9783 55.8381 23.5426 55.8381H47.4418C48.0104 55.8381 48.474 55.3744 48.474 54.8058V48.2846C48.474 47.7203 48.0104 47.2568 47.4418 47.2568H23.5426C22.9783 47.2567 22.5146 47.7203 22.5146 48.2846Z" fill="#CDC0C4"/>
<path fill-rule="evenodd" clip-rule="evenodd" d="M1.79492 3.44992V71.6444C1.79492 68.4472 4.41056 65.8274 7.6079 65.8274H11.7412V1.54297H3.70203C2.6522 1.54297 1.79492 2.40024 1.79492 3.44992Z" fill="#A0C8FF"/>
<path fill-rule="evenodd" clip-rule="evenodd" d="M36.1915 10.2248C28.9307 10.2248 23.0479 16.1118 23.0479 23.3676C23.0479 30.6279 28.9309 36.515 36.1915 36.515C43.4521 36.515 49.3351 30.6279 49.3351 23.3676C49.3353 16.1117 43.4522 10.2248 36.1915 10.2248Z" fill="#B8ECBC"/>
<path fill-rule="evenodd" clip-rule="evenodd" d="M7.6079 65.8273C4.41056 65.8273 1.79492 68.4471 1.79492 71.6443C1.79492 74.8415 4.41056 77.457 7.6079 77.457H44.1827H63.2051V65.8273H44.1827H11.7412H7.6079Z" fill="#F3EFF0"/>
<path d="M36.1914 31.0776C37.0436 31.0776 37.7344 30.3868 37.7344 29.5346V23.407C37.7344 22.5548 37.0436 21.864 36.1914 21.864C35.3392 21.864 34.6484 22.5548 34.6484 23.407V29.5346C34.6484 30.3868 35.3392 31.0776 36.1914 31.0776Z" fill="black"/>
<path d="M36.1914 18.7568C37.0436 18.7568 37.7344 18.066 37.7344 17.2138V17.205C37.7344 16.3528 37.0436 15.6664 36.1914 15.6664C35.3392 15.6664 34.6484 16.3615 34.6484 17.2137C34.6484 18.0659 35.3392 18.7568 36.1914 18.7568Z" fill="black"/>
<path d="M63.2051 0H3.70188C1.79955 0 0.251953 1.5476 0.251953 3.44992V71.6444C0.251953 75.7002 3.55175 79 7.6079 79H63.2051C64.0573 79 64.748 78.3092 64.748 77.457V1.54297C64.748 0.690787 64.0573 0 63.2051 0ZM3.33789 3.44992C3.33789 3.25258 3.50469 3.08594 3.70188 3.08594H10.1982V64.2844H7.6079C6.0171 64.2844 4.54264 64.7923 3.33789 65.6544V3.44992ZM61.6621 64.2844H38.0331C37.1809 64.2844 36.4901 64.9752 36.4901 65.8274C36.4901 66.6796 37.1809 67.3703 38.0331 67.3703H61.6621V75.9141H7.6079C5.25349 75.9141 3.33789 73.9986 3.33789 71.6444C3.33789 69.2878 5.25349 67.3703 7.6079 67.3703H24.1765C25.0286 67.3703 25.7194 66.6796 25.7194 65.8274C25.7194 64.9752 25.0286 64.2844 24.1765 64.2844H13.2843V3.08594H61.6621V64.2844Z" fill="black"/>
<path d="M36.1916 38.0579C44.2899 38.0579 50.8784 31.4679 50.8784 23.3676C50.8784 15.2698 44.2899 8.68167 36.1916 8.68167C28.0934 8.68167 21.5049 15.2697 21.5049 23.3676C21.505 31.4679 28.0934 38.0579 36.1916 38.0579ZM36.1916 11.7678C42.5883 11.7678 47.7924 16.9716 47.7924 23.3678C47.7924 29.7665 42.5883 34.9722 36.1916 34.9722C29.7949 34.9722 24.5908 29.7665 24.5908 23.3678C24.591 16.9714 29.7949 11.7678 36.1916 11.7678Z" fill="black"/>
<path d="M23.5426 57.3808H47.4418C48.8618 57.3808 50.017 56.2256 50.017 54.8056V48.2844C50.017 46.8669 48.8618 45.7137 47.4418 45.7137H23.5426C22.1249 45.7137 20.9717 46.8669 20.9717 48.2844V54.8056C20.9718 56.2256 22.125 57.3808 23.5426 57.3808ZM24.0578 48.7996H46.9312V54.2949H24.0578V48.7996Z" fill="black"/>
<path d="M31.1045 64.2844C30.2523 64.2844 29.5615 64.9752 29.5615 65.8273C29.5615 66.6795 30.2523 67.3703 31.1045 67.3703H31.1133C31.9655 67.3703 32.6519 66.6795 32.6519 65.8273C32.6519 64.9752 31.9567 64.2844 31.1045 64.2844Z" fill="black"/>
</g>
<defs>
<clipPath id="clip0">
<rect width="1440" height="2200" fill="white" transform="translate(-841 -731)"/>
</clipPath>
</defs>
</svg>
