<svg width="59" height="56" viewBox="0 0 59 56" fill="none" xmlns="http://www.w3.org/2000/svg">
<rect width="59" height="56" fill="#E5E5E5"/>
<g clip-path="url(#clip0)">
<rect width="1440" height="1428" transform="translate(-398 -1189)" fill="white"/>
<rect x="-8.5" y="-8.5" width="275" height="72" rx="5.5" fill="#F2F2F2" stroke="#1055A3"/>
<rect width="59" height="56" rx="4" fill="#1055A3"/>
<path d="M27.4414 19.5345C27.4414 20.6695 28.3648 21.5928 29.4998 21.5928C30.6348 21.5928 31.5582 20.6695 31.5582 19.5345C31.5582 18.3994 30.6348 17.4761 29.4998 17.4761C28.3648 17.4761 27.4414 18.3995 27.4414 19.5345ZM30.5352 19.5345C30.5352 20.1054 30.0707 20.5698 29.4998 20.5698C28.9289 20.5698 28.4644 20.1054 28.4644 19.5345C28.4644 18.9635 28.9289 18.4991 29.4998 18.4991C30.0707 18.4991 30.5352 18.9635 30.5352 19.5345Z" fill="white"/>
<path d="M28.4644 38.6123H27.4414V39.6435H28.4644V38.6123Z" fill="white"/>
<path d="M21.2457 24.6948H16.6133V32.4209H21.2457V24.6948ZM20.2227 31.3979H17.6363V30.3584H20.2227V31.3979ZM20.2227 29.3354H17.6363V28.8116H20.2227V29.3354ZM20.2227 27.7885H17.6363V25.7178H20.2227V27.7885Z" fill="white"/>
<path d="M42.3863 24.6948H37.7539V32.4209H42.3863V24.6948ZM41.3633 31.3979H38.7769V30.3584H41.3633V31.3979ZM41.3633 29.3354H38.7769V28.8116H41.3633V29.3354ZM41.3633 27.7885H38.7769V25.7178H41.3633V27.7885Z" fill="white"/>
<path d="M21.2457 33.46H16.6133V41.1861H21.2457V33.46ZM20.2227 40.1631H17.6363V39.1236H20.2227V40.1631ZM20.2227 38.1007H17.6363V37.5768H20.2227V38.1007ZM20.2227 36.5537H17.6363V34.483H20.2227V36.5537Z" fill="white"/>
<path d="M26.9258 31.3893H31.5582V23.6631H26.9258V31.3893ZM27.9488 24.6862H30.5352V26.2413H27.9488V24.6862ZM27.9488 27.2643H30.5352V27.7882H27.9488V27.2643ZM27.9488 28.8112H30.5352V30.3663H27.9488V28.8112Z" fill="white"/>
<path d="M44.9646 42.7415V23.655H45.9959V20.6867L36.1989 18.1086V17.4675H37.7458V15.0833L29.5001 11.2354L21.2541 15.0835V17.4676H22.801V18.1088L13.0041 20.6868V23.6551H14.0353V42.7415H13V43.7645H46V42.7415L44.9646 42.7415ZM14.0271 22.632V21.4753L22.801 19.1664V20.5696H20.7344V21.5926H22.801V22.632H14.0354H14.0271ZM22.801 38.1009H21.7656V39.1239H22.801V42.7415H15.0584V39.1239H16.0938V38.1009H15.0584V23.655H22.801V38.1009ZM22.801 16.0995V16.4446H22.2771V15.735L29.5 12.3642L36.7229 15.735V16.4446H36.199V16.0995L29.5001 13.3082L22.801 16.0995ZM32.0823 42.7415H26.9178V34.9988H32.0823V42.7415ZM35.1761 38.1009H33.625V39.1239H35.1759V42.7415H33.1052V33.9758H25.8947V42.7415H23.8241V39.1239H25.375V38.1009H23.8241V16.7814L29.5001 14.4164L35.1761 16.7814V38.1009ZM43.9416 38.1009H42.9062V39.1239H43.9416V42.7415H36.199V39.1239H37.2344V38.1009H36.199V23.655H43.9416V38.1009ZM36.199 22.6321V21.5926H38.2656V20.5696H36.199V19.1665L44.9729 21.4755V22.6321H44.9646H44.4531L36.199 22.6321Z" fill="white"/>
<path d="M42.3863 33.46H37.7539V41.1861H42.3863V33.46ZM41.3633 40.1631H38.7769V39.1236H41.3633V40.1631ZM41.3633 38.1007H38.7769V37.5768H41.3633V38.1007ZM41.3633 36.5537H38.7769V34.483H41.3633V36.5537Z" fill="white"/>
</g>
<defs>
<clipPath id="clip0">
<rect width="1440" height="1428" fill="white" transform="translate(-398 -1189)"/>
</clipPath>
</defs>
</svg>
