<svg width="67" height="64" viewBox="0 0 67 64" fill="none" xmlns="http://www.w3.org/2000/svg">
<rect width="67" height="64" fill="#E5E5E5"/>
<g clip-path="url(#clip0)">
<rect x="-217" y="-1590" width="1440" height="4806" fill="white"/>
<rect x="-105.5" y="-109.5" width="279" height="420" rx="5.5" stroke="#CFCFCF"/>
<rect width="67" height="64" rx="4" fill="#06B36B"/>
<path d="M40.2068 16L39.3975 16.886C37.5852 18.8785 36.0911 19.7694 34.8476 20.3523C33.604 20.9339 32.559 21.1076 31.5326 21.8926C30.4383 22.7305 28.848 24.3373 28.1781 27.206C26.7421 27.519 25.691 28.0685 24.8619 28.7845C24.0427 29.4918 23.4259 30.2964 22.6659 31.1726C22.6597 31.1824 22.6696 31.2009 22.6659 31.2108C21.5753 32.4627 20.6216 33.8108 18.7711 34.523L18 34.8311V48H41.5182C42.8667 47.9273 43.8018 46.9945 44.3706 46.074C44.9381 45.1548 45.2527 44.1591 45.4118 43.3409C45.8214 41.256 46.5678 35.2537 46.5678 35.2537L46.6073 35.1391V35.0233C46.5678 34.1903 46.2248 33.483 45.7967 32.8274L47.1847 28.7081L49.3831 25.3958L50 24.5098L49.1895 23.7791L41.0938 16.7701L40.2068 16ZM40.2845 19.3887L46.722 24.9732L45.0257 27.4746L44.9109 27.5917L44.8715 27.7839L43.7537 31.0949C43.1702 30.8546 42.5694 30.6858 41.9032 30.7105H41.8254L34.0382 30.7487H32.8045V35.5236C32.6318 36.8667 31.8842 37.3867 30.954 37.7576C30.6455 37.8821 30.6073 37.8143 30.3371 37.8722V30.7117C30.1348 26.1438 31.7633 24.829 33.0365 23.8568C33.3881 23.5869 34.4182 23.2751 35.8888 22.5863C37.1176 22.0084 38.6449 20.9733 40.2845 19.3899V19.3887ZM27.9474 29.9785C27.9425 30.2582 27.8549 30.4554 27.8697 30.7487V40.6066H29.1034C29.1034 40.6066 30.4235 40.5918 31.841 40.0286C33.2573 39.4655 34.9685 38.147 35.272 35.8316V33.2131L41.9032 33.1749H41.9414C42.483 33.1453 43.0142 33.3312 43.4189 33.692C43.8235 34.0527 44.0686 34.5589 44.1004 35.0997C44.0955 35.1194 44.0387 35.5766 44.0239 35.6776H38.9731V38.1421H43.7155C43.5847 39.0946 43.465 39.6922 43.3293 40.6066H38.9731V43.071H42.9444C42.7986 43.6672 42.5645 44.2383 42.2498 44.7654C41.913 45.3137 41.6231 45.5207 41.364 45.5355H20.4674V36.3319C22.4673 35.2722 23.7108 33.7479 24.5152 32.8287C25.3492 31.8749 25.9217 31.1528 26.4818 30.6723C26.8482 30.3593 27.4219 30.1806 27.9474 29.9785Z" fill="white"/>
</g>
<defs>
<clipPath id="clip0">
<rect x="-217" y="-1590" width="1440" height="4806" fill="white"/>
</clipPath>
</defs>
</svg>
