<svg width="31" height="31" viewBox="0 0 31 31" fill="none" xmlns="http://www.w3.org/2000/svg">
<rect width="31" height="31" fill="#E5E5E5"/>
<g clip-path="url(#clip0)">
<rect x="-299" y="-40" width="1440" height="4806" fill="white"/>
<g filter="url(#filter0_d)">
<path d="M-298 -39H1142V60H-298V-39Z" fill="white"/>
</g>
<circle cx="15.5" cy="15.5" r="15.5" fill="#1831CC"/>
<g clip-path="url(#clip1)">
<path d="M11.3984 14.7673C11.3111 15.2546 11.3147 15.7455 11.3984 16.2219V21.7819C11.3729 21.7673 11.3475 21.7492 11.3256 21.731C8.49881 19.8401 7.29095 16.2364 8.42604 13.011L11.4602 14.4728C11.4348 14.571 11.4129 14.6692 11.3984 14.7673Z" fill="#FCFCFC"/>
<path d="M22.2582 18.7599C20.5847 22.2254 16.5755 23.8254 13.0247 22.5817C12.9992 22.5745 12.9737 22.5636 12.9519 22.5563V18.7963C12.9774 18.8145 12.9992 18.8327 13.0247 18.8508C13.2284 19.0036 13.4503 19.1345 13.6868 19.2508C15.7569 20.2508 18.2527 19.3781 19.2531 17.309C19.7152 16.3563 19.7625 15.3163 19.4933 14.3708L22.4947 12.8181C23.2114 14.6836 23.1932 16.8218 22.2582 18.7599Z" fill="#FCFCFC"/>
<path d="M17.3136 11.7456C17.8884 12.022 18.3578 12.422 18.7325 12.8874L21.7303 11.3347C21.01 10.2547 20.0131 9.3456 18.7616 8.74196C15.2908 7.06924 11.1506 8.32014 9.14966 11.5092L12.1839 12.9747C13.359 11.4329 15.4982 10.8729 17.3136 11.7456Z" fill="#FCFCFC"/>
<path d="M17.754 16.585C18.3548 15.3406 17.8326 13.8451 16.5876 13.2446C15.3426 12.6441 13.8463 13.1661 13.2455 14.4104C12.6447 15.6548 13.167 17.1504 14.4119 17.7509C15.6569 18.3514 17.1532 17.8294 17.754 16.585Z" fill="#FCFCFC"/>
<path d="M11.398 14.4727V21.7781C11.3725 21.7636 11.347 21.7454 11.3252 21.7272V14.4727H11.398Z" fill="#FCFCFC"/>
</g>
</g>
<defs>
<filter id="filter0_d" x="-301" y="-40" width="1446" height="105" filterUnits="userSpaceOnUse" color-interpolation-filters="sRGB">
<feFlood flood-opacity="0" result="BackgroundImageFix"/>
<feColorMatrix in="SourceAlpha" type="matrix" values="0 0 0 0 0 0 0 0 0 0 0 0 0 0 0 0 0 0 127 0"/>
<feOffset dy="2"/>
<feGaussianBlur stdDeviation="1.5"/>
<feColorMatrix type="matrix" values="0 0 0 0 0.184314 0 0 0 0 0.188235 0 0 0 0 0.380392 0 0 0 0.1 0"/>
<feBlend mode="normal" in2="BackgroundImageFix" result="effect1_dropShadow"/>
<feBlend mode="normal" in="SourceGraphic" in2="effect1_dropShadow" result="shape"/>
</filter>
<clipPath id="clip0">
<rect x="-299" y="-40" width="1440" height="4806" fill="white"/>
</clipPath>
<clipPath id="clip1">
<rect width="15" height="15" fill="white" transform="translate(8 8)"/>
</clipPath>
</defs>
</svg>
